G04 #@! TF.GenerationSoftware,KiCad,Pcbnew,(5.0.2)-1*
G04 #@! TF.CreationDate,2019-06-27T12:51:54+02:00*
G04 #@! TF.ProjectId,PCB_RControl,5043425f-5243-46f6-9e74-726f6c2e6b69,rev?*
G04 #@! TF.SameCoordinates,PX6e75580PY80fd3d8*
G04 #@! TF.FileFunction,Legend,Bot*
G04 #@! TF.FilePolarity,Positive*
%FSLAX46Y46*%
G04 Gerber Fmt 4.6, Leading zero omitted, Abs format (unit mm)*
G04 Created by KiCad (PCBNEW (5.0.2)-1) date 27/06/2019 12:51:54*
%MOMM*%
%LPD*%
G01*
G04 APERTURE LIST*
%ADD10C,0.300000*%
%ADD11C,0.150000*%
%ADD12R,1.702000X1.702000*%
%ADD13O,1.702000X1.702000*%
%ADD14C,2.502000*%
%ADD15R,2.502000X2.502000*%
%ADD16C,6.502000*%
%ADD17C,0.902000*%
%ADD18O,3.102000X3.102000*%
%ADD19C,0.100000*%
%ADD20C,3.102000*%
%ADD21C,4.102000*%
%ADD22O,1.802000X1.802000*%
%ADD23R,1.802000X1.802000*%
%ADD24C,1.626000*%
G04 APERTURE END LIST*
D10*
X27149357Y57769786D02*
X25949357Y57769786D01*
X27149357Y57255500D02*
X26520785Y57255500D01*
X26406500Y57312643D01*
X26349357Y57426929D01*
X26349357Y57598358D01*
X26406500Y57712643D01*
X26463642Y57769786D01*
X26349357Y56855500D02*
X26349357Y56398358D01*
X25949357Y56684072D02*
X26977928Y56684072D01*
X27092214Y56626929D01*
X27149357Y56512643D01*
X27149357Y56398358D01*
X26349357Y56169786D02*
X26349357Y55712643D01*
X25949357Y55998358D02*
X26977928Y55998358D01*
X27092214Y55941215D01*
X27149357Y55826929D01*
X27149357Y55712643D01*
X26349357Y55312643D02*
X27549357Y55312643D01*
X26406500Y55312643D02*
X26349357Y55198358D01*
X26349357Y54969786D01*
X26406500Y54855500D01*
X26463642Y54798358D01*
X26577928Y54741215D01*
X26920785Y54741215D01*
X27035071Y54798358D01*
X27092214Y54855500D01*
X27149357Y54969786D01*
X27149357Y55198358D01*
X27092214Y55312643D01*
X27092214Y54284072D02*
X27149357Y54169786D01*
X27149357Y53941215D01*
X27092214Y53826929D01*
X26977928Y53769786D01*
X26920785Y53769786D01*
X26806500Y53826929D01*
X26749357Y53941215D01*
X26749357Y54112643D01*
X26692214Y54226929D01*
X26577928Y54284072D01*
X26520785Y54284072D01*
X26406500Y54226929D01*
X26349357Y54112643D01*
X26349357Y53941215D01*
X26406500Y53826929D01*
X27035071Y53255500D02*
X27092214Y53198358D01*
X27149357Y53255500D01*
X27092214Y53312643D01*
X27035071Y53255500D01*
X27149357Y53255500D01*
X26406500Y53255500D02*
X26463642Y53198358D01*
X26520785Y53255500D01*
X26463642Y53312643D01*
X26406500Y53255500D01*
X26520785Y53255500D01*
X25892214Y51826929D02*
X27435071Y52855500D01*
X25892214Y50569786D02*
X27435071Y51598358D01*
X26349357Y49655500D02*
X27320785Y49655500D01*
X27435071Y49712643D01*
X27492214Y49769786D01*
X27549357Y49884072D01*
X27549357Y50055500D01*
X27492214Y50169786D01*
X27092214Y49655500D02*
X27149357Y49769786D01*
X27149357Y49998358D01*
X27092214Y50112643D01*
X27035071Y50169786D01*
X26920785Y50226929D01*
X26577928Y50226929D01*
X26463642Y50169786D01*
X26406500Y50112643D01*
X26349357Y49998358D01*
X26349357Y49769786D01*
X26406500Y49655500D01*
X27149357Y49084072D02*
X26349357Y49084072D01*
X25949357Y49084072D02*
X26006500Y49141215D01*
X26063642Y49084072D01*
X26006500Y49026929D01*
X25949357Y49084072D01*
X26063642Y49084072D01*
X26349357Y48684072D02*
X26349357Y48226929D01*
X25949357Y48512643D02*
X26977928Y48512643D01*
X27092214Y48455500D01*
X27149357Y48341215D01*
X27149357Y48226929D01*
X27149357Y47826929D02*
X25949357Y47826929D01*
X27149357Y47312643D02*
X26520785Y47312643D01*
X26406500Y47369786D01*
X26349357Y47484072D01*
X26349357Y47655500D01*
X26406500Y47769786D01*
X26463642Y47826929D01*
X26349357Y46226929D02*
X27149357Y46226929D01*
X26349357Y46741215D02*
X26977928Y46741215D01*
X27092214Y46684072D01*
X27149357Y46569786D01*
X27149357Y46398358D01*
X27092214Y46284072D01*
X27035071Y46226929D01*
X27149357Y45655500D02*
X25949357Y45655500D01*
X26406500Y45655500D02*
X26349357Y45541215D01*
X26349357Y45312643D01*
X26406500Y45198358D01*
X26463642Y45141215D01*
X26577928Y45084072D01*
X26920785Y45084072D01*
X27035071Y45141215D01*
X27092214Y45198358D01*
X27149357Y45312643D01*
X27149357Y45541215D01*
X27092214Y45655500D01*
X27035071Y44569786D02*
X27092214Y44512643D01*
X27149357Y44569786D01*
X27092214Y44626929D01*
X27035071Y44569786D01*
X27149357Y44569786D01*
X27092214Y43484072D02*
X27149357Y43598358D01*
X27149357Y43826929D01*
X27092214Y43941215D01*
X27035071Y43998358D01*
X26920785Y44055500D01*
X26577928Y44055500D01*
X26463642Y43998358D01*
X26406500Y43941215D01*
X26349357Y43826929D01*
X26349357Y43598358D01*
X26406500Y43484072D01*
X27149357Y42798358D02*
X27092214Y42912643D01*
X27035071Y42969786D01*
X26920785Y43026929D01*
X26577928Y43026929D01*
X26463642Y42969786D01*
X26406500Y42912643D01*
X26349357Y42798358D01*
X26349357Y42626929D01*
X26406500Y42512643D01*
X26463642Y42455500D01*
X26577928Y42398358D01*
X26920785Y42398358D01*
X27035071Y42455500D01*
X27092214Y42512643D01*
X27149357Y42626929D01*
X27149357Y42798358D01*
X27149357Y41884072D02*
X26349357Y41884072D01*
X26463642Y41884072D02*
X26406500Y41826929D01*
X26349357Y41712643D01*
X26349357Y41541215D01*
X26406500Y41426929D01*
X26520785Y41369786D01*
X27149357Y41369786D01*
X26520785Y41369786D02*
X26406500Y41312643D01*
X26349357Y41198358D01*
X26349357Y41026929D01*
X26406500Y40912643D01*
X26520785Y40855500D01*
X27149357Y40855500D01*
X25892214Y39426929D02*
X27435071Y40455500D01*
X25949357Y38798358D02*
X25949357Y38569786D01*
X26006500Y38455500D01*
X26120785Y38341215D01*
X26349357Y38284072D01*
X26749357Y38284072D01*
X26977928Y38341215D01*
X27092214Y38455500D01*
X27149357Y38569786D01*
X27149357Y38798358D01*
X27092214Y38912643D01*
X26977928Y39026929D01*
X26749357Y39084072D01*
X26349357Y39084072D01*
X26120785Y39026929D01*
X26006500Y38912643D01*
X25949357Y38798358D01*
X27149357Y37769786D02*
X25949357Y37769786D01*
X25949357Y37312643D01*
X26006500Y37198358D01*
X26063642Y37141215D01*
X26177928Y37084072D01*
X26349357Y37084072D01*
X26463642Y37141215D01*
X26520785Y37198358D01*
X26577928Y37312643D01*
X26577928Y37769786D01*
X27149357Y35884072D02*
X26577928Y36284072D01*
X27149357Y36569786D02*
X25949357Y36569786D01*
X25949357Y36112643D01*
X26006500Y35998358D01*
X26063642Y35941215D01*
X26177928Y35884072D01*
X26349357Y35884072D01*
X26463642Y35941215D01*
X26520785Y35998358D01*
X26577928Y36112643D01*
X26577928Y36569786D01*
X27149357Y35198358D02*
X27092214Y35312643D01*
X27035071Y35369786D01*
X26920785Y35426929D01*
X26577928Y35426929D01*
X26463642Y35369786D01*
X26406500Y35312643D01*
X26349357Y35198358D01*
X26349357Y35026929D01*
X26406500Y34912643D01*
X26463642Y34855500D01*
X26577928Y34798358D01*
X26920785Y34798358D01*
X27035071Y34855500D01*
X27092214Y34912643D01*
X27149357Y35026929D01*
X27149357Y35198358D01*
X27149357Y34284072D02*
X25949357Y34284072D01*
X26406500Y34284072D02*
X26349357Y34169786D01*
X26349357Y33941215D01*
X26406500Y33826929D01*
X26463642Y33769786D01*
X26577928Y33712643D01*
X26920785Y33712643D01*
X27035071Y33769786D01*
X27092214Y33826929D01*
X27149357Y33941215D01*
X27149357Y34169786D01*
X27092214Y34284072D01*
X27149357Y33026929D02*
X27092214Y33141215D01*
X27035071Y33198358D01*
X26920785Y33255500D01*
X26577928Y33255500D01*
X26463642Y33198358D01*
X26406500Y33141215D01*
X26349357Y33026929D01*
X26349357Y32855500D01*
X26406500Y32741215D01*
X26463642Y32684072D01*
X26577928Y32626929D01*
X26920785Y32626929D01*
X27035071Y32684072D01*
X27092214Y32741215D01*
X27149357Y32855500D01*
X27149357Y33026929D01*
X26349357Y32284072D02*
X26349357Y31826929D01*
X25949357Y32112643D02*
X26977928Y32112643D01*
X27092214Y32055500D01*
X27149357Y31941215D01*
X27149357Y31826929D01*
X27092214Y31484072D02*
X27149357Y31369786D01*
X27149357Y31141215D01*
X27092214Y31026929D01*
X26977928Y30969786D01*
X26920785Y30969786D01*
X26806500Y31026929D01*
X26749357Y31141215D01*
X26749357Y31312643D01*
X26692214Y31426929D01*
X26577928Y31484072D01*
X26520785Y31484072D01*
X26406500Y31426929D01*
X26349357Y31312643D01*
X26349357Y31141215D01*
X26406500Y31026929D01*
X25892214Y29598358D02*
X27435071Y30626929D01*
X27149357Y29198358D02*
X25949357Y29198358D01*
X25949357Y28741215D01*
X26006500Y28626929D01*
X26063642Y28569786D01*
X26177928Y28512643D01*
X26349357Y28512643D01*
X26463642Y28569786D01*
X26520785Y28626929D01*
X26577928Y28741215D01*
X26577928Y29198358D01*
X27035071Y27312643D02*
X27092214Y27369786D01*
X27149357Y27541215D01*
X27149357Y27655500D01*
X27092214Y27826929D01*
X26977928Y27941215D01*
X26863642Y27998358D01*
X26635071Y28055500D01*
X26463642Y28055500D01*
X26235071Y27998358D01*
X26120785Y27941215D01*
X26006500Y27826929D01*
X25949357Y27655500D01*
X25949357Y27541215D01*
X26006500Y27369786D01*
X26063642Y27312643D01*
X26520785Y26398358D02*
X26577928Y26226929D01*
X26635071Y26169786D01*
X26749357Y26112643D01*
X26920785Y26112643D01*
X27035071Y26169786D01*
X27092214Y26226929D01*
X27149357Y26341215D01*
X27149357Y26798358D01*
X25949357Y26798358D01*
X25949357Y26398358D01*
X26006500Y26284072D01*
X26063642Y26226929D01*
X26177928Y26169786D01*
X26292214Y26169786D01*
X26406500Y26226929D01*
X26463642Y26284072D01*
X26520785Y26398358D01*
X26520785Y26798358D01*
X27263642Y25884072D02*
X27263642Y24969786D01*
X27149357Y23998358D02*
X26577928Y24398358D01*
X27149357Y24684072D02*
X25949357Y24684072D01*
X25949357Y24226929D01*
X26006500Y24112643D01*
X26063642Y24055500D01*
X26177928Y23998358D01*
X26349357Y23998358D01*
X26463642Y24055500D01*
X26520785Y24112643D01*
X26577928Y24226929D01*
X26577928Y24684072D01*
X27035071Y22798358D02*
X27092214Y22855500D01*
X27149357Y23026929D01*
X27149357Y23141215D01*
X27092214Y23312643D01*
X26977928Y23426929D01*
X26863642Y23484072D01*
X26635071Y23541215D01*
X26463642Y23541215D01*
X26235071Y23484072D01*
X26120785Y23426929D01*
X26006500Y23312643D01*
X25949357Y23141215D01*
X25949357Y23026929D01*
X26006500Y22855500D01*
X26063642Y22798358D01*
X27149357Y22112643D02*
X27092214Y22226929D01*
X27035071Y22284072D01*
X26920785Y22341215D01*
X26577928Y22341215D01*
X26463642Y22284072D01*
X26406500Y22226929D01*
X26349357Y22112643D01*
X26349357Y21941215D01*
X26406500Y21826929D01*
X26463642Y21769786D01*
X26577928Y21712643D01*
X26920785Y21712643D01*
X27035071Y21769786D01*
X27092214Y21826929D01*
X27149357Y21941215D01*
X27149357Y22112643D01*
X26349357Y21198358D02*
X27149357Y21198358D01*
X26463642Y21198358D02*
X26406500Y21141215D01*
X26349357Y21026929D01*
X26349357Y20855500D01*
X26406500Y20741215D01*
X26520785Y20684072D01*
X27149357Y20684072D01*
X26349357Y20284072D02*
X26349357Y19826929D01*
X25949357Y20112643D02*
X26977928Y20112643D01*
X27092214Y20055500D01*
X27149357Y19941215D01*
X27149357Y19826929D01*
X27149357Y19426929D02*
X26349357Y19426929D01*
X26577928Y19426929D02*
X26463642Y19369786D01*
X26406500Y19312643D01*
X26349357Y19198358D01*
X26349357Y19084072D01*
X27149357Y18512643D02*
X27092214Y18626929D01*
X27035071Y18684072D01*
X26920785Y18741215D01*
X26577928Y18741215D01*
X26463642Y18684072D01*
X26406500Y18626929D01*
X26349357Y18512643D01*
X26349357Y18341215D01*
X26406500Y18226929D01*
X26463642Y18169786D01*
X26577928Y18112643D01*
X26920785Y18112643D01*
X27035071Y18169786D01*
X27092214Y18226929D01*
X27149357Y18341215D01*
X27149357Y18512643D01*
X27149357Y17426929D02*
X27092214Y17541215D01*
X26977928Y17598358D01*
X25949357Y17598358D01*
D11*
X43180000Y6223000D02*
G75*
G02X41656000Y4699000I-1524000J0D01*
G01*
X38608000Y4699000D02*
G75*
G02X37084000Y6223000I0J1524000D01*
G01*
X29464000Y6223000D02*
G75*
G02X27940000Y4699000I-1524000J0D01*
G01*
X24892000Y4699000D02*
G75*
G02X23368000Y6223000I0J1524000D01*
G01*
X15748000Y6223000D02*
G75*
G02X14224000Y4699000I-1524000J0D01*
G01*
X11176000Y4699000D02*
G75*
G02X9652000Y6223000I0J1524000D01*
G01*
X9144000Y65157898D02*
X18796000Y65157898D01*
X29565600Y59563000D02*
G75*
G03X31292767Y60682051I-101634J2049263D01*
G01*
X23266367Y59561549D02*
G75*
G02X21539200Y60680600I101634J2049263D01*
G01*
X18796000Y65151000D02*
G75*
G02X20701000Y63777954I0J-2008046D01*
G01*
X32208485Y64007376D02*
G75*
G02X34036000Y65151000I1827515J-888376D01*
G01*
X20701000Y63779400D02*
X21539200Y60680600D01*
X31292800Y60680600D02*
X32207200Y64008000D01*
X23266400Y59563000D02*
X29565600Y59563000D01*
X46291500Y65976500D02*
X46710600Y66217800D01*
X6096000Y66167000D02*
X6604000Y65887600D01*
X44196000Y3429000D02*
X44272200Y2908300D01*
X44271978Y2908193D02*
G75*
G03X52039520Y6822440I3918589J1888029D01*
G01*
X51308000Y9276080D02*
G75*
G03X52035576Y6828212I4791575J92131D01*
G01*
X8636000Y3454400D02*
X8509000Y2819400D01*
X34036000Y65151000D02*
X43688000Y65151000D01*
X46710558Y66217912D02*
G75*
G02X52032465Y60141254I1511907J-4044658D01*
G01*
X51304004Y57601254D02*
G75*
G02X52032466Y60141253I4792461J0D01*
G01*
X43688059Y65149549D02*
G75*
G03X46291500Y65976500I-88393J4789885D01*
G01*
X8502174Y2797261D02*
G75*
G02X795841Y6690366I-3896333J1861105D01*
G01*
X1524130Y9271001D02*
G75*
G02X795840Y6690367I-4792289J-40635D01*
G01*
X742276Y60060480D02*
G75*
G02X6096000Y66167000I3829724J2042520D01*
G01*
X1523595Y57480201D02*
G75*
G03X762000Y60071000I-4787494J0D01*
G01*
X9144000Y65157898D02*
G75*
G02X6604000Y65887600I0J4785563D01*
G01*
X51302920Y57622440D02*
X51308000Y9271000D01*
X44196000Y16383000D02*
X44196000Y3429000D01*
X43180000Y16383000D02*
X44196000Y16383000D01*
X43180000Y6223000D02*
X43180000Y16383000D01*
X38608000Y4699000D02*
X41656000Y4699000D01*
X37084000Y16383000D02*
X37084000Y6223000D01*
X29464000Y16383000D02*
X37084000Y16383000D01*
X29464000Y6223000D02*
X29464000Y16383000D01*
X24892000Y4699000D02*
X27940000Y4699000D01*
X23368000Y16383000D02*
X23368000Y6223000D01*
X15748000Y16383000D02*
X23368000Y16383000D01*
X15748000Y6223000D02*
X15748000Y16383000D01*
X11176000Y4699000D02*
X14224000Y4699000D01*
X9652000Y16383000D02*
X9652000Y6223000D01*
X8636000Y16383000D02*
X9652000Y16383000D01*
X8636000Y3454400D02*
X8636000Y16383000D01*
X1524000Y9271000D02*
X1524000Y57480200D01*
%LPC*%
D12*
G04 #@! TO.C,A1*
X34036000Y20447000D03*
D13*
X18796000Y53467000D03*
X34036000Y22987000D03*
X18796000Y50927000D03*
X34036000Y25527000D03*
X18796000Y48387000D03*
X34036000Y28067000D03*
X18796000Y45847000D03*
X34036000Y30607000D03*
X18796000Y43307000D03*
X34036000Y33147000D03*
X18796000Y40767000D03*
X34036000Y35687000D03*
X18796000Y38227000D03*
X34036000Y38227000D03*
X18796000Y35687000D03*
X34036000Y40767000D03*
X18796000Y33147000D03*
X34036000Y43307000D03*
X18796000Y30607000D03*
X34036000Y45847000D03*
X18796000Y28067000D03*
X34036000Y48387000D03*
X18796000Y25527000D03*
X34036000Y50927000D03*
X18796000Y22987000D03*
X34036000Y53467000D03*
X18796000Y20447000D03*
X34036000Y56007000D03*
X18796000Y56007000D03*
G04 #@! TD*
D14*
G04 #@! TO.C,C2*
X12700000Y7573000D03*
D15*
X12700000Y12573000D03*
G04 #@! TD*
G04 #@! TO.C,C3*
X26416000Y12573000D03*
D14*
X26416000Y7573000D03*
G04 #@! TD*
D15*
G04 #@! TO.C,C1*
X40132000Y12573000D03*
D14*
X40132000Y7573000D03*
G04 #@! TD*
D16*
G04 #@! TO.C,*
X48260000Y4699000D03*
D17*
X50660000Y4699000D03*
X49957056Y3001944D03*
X48260000Y2299000D03*
X46562944Y3001944D03*
X45860000Y4699000D03*
X46562944Y6396056D03*
X48260000Y7099000D03*
X49957056Y6396056D03*
G04 #@! TD*
G04 #@! TO.C,*
X6269056Y6396056D03*
X4572000Y7099000D03*
X2874944Y6396056D03*
X2172000Y4699000D03*
X2874944Y3001944D03*
X4572000Y2299000D03*
X6269056Y3001944D03*
X6972000Y4699000D03*
D16*
X4572000Y4699000D03*
G04 #@! TD*
G04 #@! TO.C,*
X4572000Y62103000D03*
D17*
X6972000Y62103000D03*
X6269056Y60405944D03*
X4572000Y59703000D03*
X2874944Y60405944D03*
X2172000Y62103000D03*
X2874944Y63800056D03*
X4572000Y64503000D03*
X6269056Y63800056D03*
G04 #@! TD*
D18*
G04 #@! TO.C,VESC2*
X4572000Y44069000D03*
D19*
G36*
X5423512Y41806266D02*
X5498793Y41795099D01*
X5572616Y41776607D01*
X5644271Y41750969D01*
X5713068Y41718430D01*
X5778345Y41679305D01*
X5839472Y41633970D01*
X5895861Y41582861D01*
X5946970Y41526472D01*
X5992305Y41465345D01*
X6031430Y41400068D01*
X6063969Y41331271D01*
X6089607Y41259616D01*
X6108099Y41185793D01*
X6119266Y41110512D01*
X6123000Y41034500D01*
X6123000Y39483500D01*
X6119266Y39407488D01*
X6108099Y39332207D01*
X6089607Y39258384D01*
X6063969Y39186729D01*
X6031430Y39117932D01*
X5992305Y39052655D01*
X5946970Y38991528D01*
X5895861Y38935139D01*
X5839472Y38884030D01*
X5778345Y38838695D01*
X5713068Y38799570D01*
X5644271Y38767031D01*
X5572616Y38741393D01*
X5498793Y38722901D01*
X5423512Y38711734D01*
X5347500Y38708000D01*
X3796500Y38708000D01*
X3720488Y38711734D01*
X3645207Y38722901D01*
X3571384Y38741393D01*
X3499729Y38767031D01*
X3430932Y38799570D01*
X3365655Y38838695D01*
X3304528Y38884030D01*
X3248139Y38935139D01*
X3197030Y38991528D01*
X3151695Y39052655D01*
X3112570Y39117932D01*
X3080031Y39186729D01*
X3054393Y39258384D01*
X3035901Y39332207D01*
X3024734Y39407488D01*
X3021000Y39483500D01*
X3021000Y41034500D01*
X3024734Y41110512D01*
X3035901Y41185793D01*
X3054393Y41259616D01*
X3080031Y41331271D01*
X3112570Y41400068D01*
X3151695Y41465345D01*
X3197030Y41526472D01*
X3248139Y41582861D01*
X3304528Y41633970D01*
X3365655Y41679305D01*
X3430932Y41718430D01*
X3499729Y41750969D01*
X3571384Y41776607D01*
X3645207Y41795099D01*
X3720488Y41806266D01*
X3796500Y41810000D01*
X5347500Y41810000D01*
X5423512Y41806266D01*
X5423512Y41806266D01*
G37*
D20*
X4572000Y40259000D03*
G04 #@! TD*
D19*
G04 #@! TO.C,VESC1*
G36*
X5423512Y51204266D02*
X5498793Y51193099D01*
X5572616Y51174607D01*
X5644271Y51148969D01*
X5713068Y51116430D01*
X5778345Y51077305D01*
X5839472Y51031970D01*
X5895861Y50980861D01*
X5946970Y50924472D01*
X5992305Y50863345D01*
X6031430Y50798068D01*
X6063969Y50729271D01*
X6089607Y50657616D01*
X6108099Y50583793D01*
X6119266Y50508512D01*
X6123000Y50432500D01*
X6123000Y48881500D01*
X6119266Y48805488D01*
X6108099Y48730207D01*
X6089607Y48656384D01*
X6063969Y48584729D01*
X6031430Y48515932D01*
X5992305Y48450655D01*
X5946970Y48389528D01*
X5895861Y48333139D01*
X5839472Y48282030D01*
X5778345Y48236695D01*
X5713068Y48197570D01*
X5644271Y48165031D01*
X5572616Y48139393D01*
X5498793Y48120901D01*
X5423512Y48109734D01*
X5347500Y48106000D01*
X3796500Y48106000D01*
X3720488Y48109734D01*
X3645207Y48120901D01*
X3571384Y48139393D01*
X3499729Y48165031D01*
X3430932Y48197570D01*
X3365655Y48236695D01*
X3304528Y48282030D01*
X3248139Y48333139D01*
X3197030Y48389528D01*
X3151695Y48450655D01*
X3112570Y48515932D01*
X3080031Y48584729D01*
X3054393Y48656384D01*
X3035901Y48730207D01*
X3024734Y48805488D01*
X3021000Y48881500D01*
X3021000Y50432500D01*
X3024734Y50508512D01*
X3035901Y50583793D01*
X3054393Y50657616D01*
X3080031Y50729271D01*
X3112570Y50798068D01*
X3151695Y50863345D01*
X3197030Y50924472D01*
X3248139Y50980861D01*
X3304528Y51031970D01*
X3365655Y51077305D01*
X3430932Y51116430D01*
X3499729Y51148969D01*
X3571384Y51174607D01*
X3645207Y51193099D01*
X3720488Y51204266D01*
X3796500Y51208000D01*
X5347500Y51208000D01*
X5423512Y51204266D01*
X5423512Y51204266D01*
G37*
D20*
X4572000Y49657000D03*
D18*
X4572000Y53467000D03*
G04 #@! TD*
D19*
G04 #@! TO.C,PANEL*
G36*
X18583013Y64150050D02*
X18662652Y64138236D01*
X18740750Y64118674D01*
X18816553Y64091551D01*
X18889334Y64057128D01*
X18958390Y64015738D01*
X19023056Y63967778D01*
X19082710Y63913710D01*
X19136778Y63854056D01*
X19184738Y63789390D01*
X19226128Y63720334D01*
X19260551Y63647553D01*
X19287674Y63571750D01*
X19307236Y63493652D01*
X19319050Y63414013D01*
X19323000Y63333600D01*
X19323000Y60872400D01*
X19319050Y60791987D01*
X19307236Y60712348D01*
X19287674Y60634250D01*
X19260551Y60558447D01*
X19226128Y60485666D01*
X19184738Y60416610D01*
X19136778Y60351944D01*
X19082710Y60292290D01*
X19023056Y60238222D01*
X18958390Y60190262D01*
X18889334Y60148872D01*
X18816553Y60114449D01*
X18740750Y60087326D01*
X18662652Y60067764D01*
X18583013Y60055950D01*
X18502600Y60052000D01*
X16041400Y60052000D01*
X15960987Y60055950D01*
X15881348Y60067764D01*
X15803250Y60087326D01*
X15727447Y60114449D01*
X15654666Y60148872D01*
X15585610Y60190262D01*
X15520944Y60238222D01*
X15461290Y60292290D01*
X15407222Y60351944D01*
X15359262Y60416610D01*
X15317872Y60485666D01*
X15283449Y60558447D01*
X15256326Y60634250D01*
X15236764Y60712348D01*
X15224950Y60791987D01*
X15221000Y60872400D01*
X15221000Y63333600D01*
X15224950Y63414013D01*
X15236764Y63493652D01*
X15256326Y63571750D01*
X15283449Y63647553D01*
X15317872Y63720334D01*
X15359262Y63789390D01*
X15407222Y63854056D01*
X15461290Y63913710D01*
X15520944Y63967778D01*
X15585610Y64015738D01*
X15654666Y64057128D01*
X15727447Y64091551D01*
X15803250Y64118674D01*
X15881348Y64138236D01*
X15960987Y64150050D01*
X16041400Y64154000D01*
X18502600Y64154000D01*
X18583013Y64150050D01*
X18583013Y64150050D01*
G37*
D21*
X17272000Y62103000D03*
D19*
G36*
X12763027Y64146099D02*
X12922304Y64122472D01*
X13078499Y64083348D01*
X13230107Y64029102D01*
X13375668Y63960256D01*
X13513780Y63877475D01*
X13643113Y63781556D01*
X13762421Y63673421D01*
X13870556Y63554113D01*
X13966475Y63424780D01*
X14049256Y63286668D01*
X14118102Y63141107D01*
X14172348Y62989499D01*
X14211472Y62833304D01*
X14235099Y62674027D01*
X14243000Y62513200D01*
X14243000Y61692800D01*
X14235099Y61531973D01*
X14211472Y61372696D01*
X14172348Y61216501D01*
X14118102Y61064893D01*
X14049256Y60919332D01*
X13966475Y60781220D01*
X13870556Y60651887D01*
X13762421Y60532579D01*
X13643113Y60424444D01*
X13513780Y60328525D01*
X13375668Y60245744D01*
X13230107Y60176898D01*
X13078499Y60122652D01*
X12922304Y60083528D01*
X12763027Y60059901D01*
X12602200Y60052000D01*
X11781800Y60052000D01*
X11620973Y60059901D01*
X11461696Y60083528D01*
X11305501Y60122652D01*
X11153893Y60176898D01*
X11008332Y60245744D01*
X10870220Y60328525D01*
X10740887Y60424444D01*
X10621579Y60532579D01*
X10513444Y60651887D01*
X10417525Y60781220D01*
X10334744Y60919332D01*
X10265898Y61064893D01*
X10211652Y61216501D01*
X10172528Y61372696D01*
X10148901Y61531973D01*
X10141000Y61692800D01*
X10141000Y62513200D01*
X10148901Y62674027D01*
X10172528Y62833304D01*
X10211652Y62989499D01*
X10265898Y63141107D01*
X10334744Y63286668D01*
X10417525Y63424780D01*
X10513444Y63554113D01*
X10621579Y63673421D01*
X10740887Y63781556D01*
X10870220Y63877475D01*
X11008332Y63960256D01*
X11153893Y64029102D01*
X11305501Y64083348D01*
X11461696Y64122472D01*
X11620973Y64146099D01*
X11781800Y64154000D01*
X12602200Y64154000D01*
X12763027Y64146099D01*
X12763027Y64146099D01*
G37*
D21*
X12192000Y62103000D03*
G04 #@! TD*
D22*
G04 #@! TO.C,Batt_Aux1*
X49276000Y18415000D03*
X49276000Y15875000D03*
D23*
X49276000Y13335000D03*
G04 #@! TD*
G04 #@! TO.C,ENCODERS1*
X49276000Y30607000D03*
D22*
X49276000Y33147000D03*
X49276000Y35687000D03*
X49276000Y38227000D03*
G04 #@! TD*
D23*
G04 #@! TO.C,Ibus1*
X49276000Y27051000D03*
D22*
X49276000Y24511000D03*
X49276000Y21971000D03*
G04 #@! TD*
D23*
G04 #@! TO.C,J1*
X37592000Y35687000D03*
D22*
X37592000Y38227000D03*
X37592000Y40767000D03*
X37592000Y43307000D03*
X37592000Y45847000D03*
G04 #@! TD*
D23*
G04 #@! TO.C,J2*
X15240000Y43307000D03*
D22*
X15240000Y40767000D03*
X15240000Y38227000D03*
X15240000Y35687000D03*
X15240000Y33147000D03*
X15240000Y30607000D03*
G04 #@! TD*
G04 #@! TO.C,MOT1*
X49276000Y55499000D03*
X49276000Y52959000D03*
D23*
X49276000Y50419000D03*
G04 #@! TD*
G04 #@! TO.C,MOT2*
X43688000Y50419000D03*
D22*
X43688000Y52959000D03*
X43688000Y55499000D03*
G04 #@! TD*
G04 #@! TO.C,SERVO1*
X49276000Y46863000D03*
X49276000Y44323000D03*
D23*
X49276000Y41783000D03*
G04 #@! TD*
G04 #@! TO.C,SERVO2*
X43688000Y41783000D03*
D22*
X43688000Y44323000D03*
X43688000Y46863000D03*
G04 #@! TD*
D24*
G04 #@! TO.C,U1*
X2857500Y34290000D03*
X12001500Y34290000D03*
X2857500Y19050000D03*
X11997500Y19050000D03*
G04 #@! TD*
D17*
G04 #@! TO.C,*
X49957056Y63800056D03*
X48260000Y64503000D03*
X46562944Y63800056D03*
X45860000Y62103000D03*
X46562944Y60405944D03*
X48260000Y59703000D03*
X49957056Y60405944D03*
X50660000Y62103000D03*
D16*
X48260000Y62103000D03*
G04 #@! TD*
M02*
