G04 #@! TF.GenerationSoftware,KiCad,Pcbnew,(5.0.2)-1*
G04 #@! TF.CreationDate,2019-06-27T12:51:54+02:00*
G04 #@! TF.ProjectId,PCB_RControl,5043425f-5243-46f6-9e74-726f6c2e6b69,rev?*
G04 #@! TF.SameCoordinates,PX6e75580PY80fd3d8*
G04 #@! TF.FileFunction,Legend,Top*
G04 #@! TF.FilePolarity,Positive*
%FSLAX46Y46*%
G04 Gerber Fmt 4.6, Leading zero omitted, Abs format (unit mm)*
G04 Created by KiCad (PCBNEW (5.0.2)-1) date 27/06/2019 12:51:54*
%MOMM*%
%LPD*%
G01*
G04 APERTURE LIST*
%ADD10C,0.187500*%
%ADD11C,0.150000*%
%ADD12C,0.300000*%
%ADD13C,0.250000*%
%ADD14C,0.200000*%
%ADD15C,0.120000*%
%ADD16C,0.010000*%
%ADD17R,1.702000X1.702000*%
%ADD18O,1.702000X1.702000*%
%ADD19C,2.502000*%
%ADD20R,2.502000X2.502000*%
%ADD21C,6.502000*%
%ADD22C,0.902000*%
%ADD23O,3.102000X3.102000*%
%ADD24C,0.100000*%
%ADD25C,3.102000*%
%ADD26C,4.102000*%
%ADD27R,1.652000X0.702000*%
%ADD28O,1.802000X1.802000*%
%ADD29R,1.802000X1.802000*%
%ADD30C,1.252000*%
%ADD31C,0.300000*%
%ADD32C,1.626000*%
G04 APERTURE END LIST*
D10*
X6911571Y39878048D02*
X6911571Y40639953D01*
X6911571Y43688048D02*
X6911571Y44449953D01*
X7197285Y44069000D02*
X6625857Y44069000D01*
X6911571Y49276048D02*
X6911571Y50037953D01*
X6911571Y53086048D02*
X6911571Y53847953D01*
X7197285Y53467000D02*
X6625857Y53467000D01*
D11*
X43180000Y6223000D02*
G75*
G02X41656000Y4699000I-1524000J0D01*
G01*
X38608000Y4699000D02*
G75*
G02X37084000Y6223000I0J1524000D01*
G01*
X29464000Y6223000D02*
G75*
G02X27940000Y4699000I-1524000J0D01*
G01*
X24892000Y4699000D02*
G75*
G02X23368000Y6223000I0J1524000D01*
G01*
X15748000Y6223000D02*
G75*
G02X14224000Y4699000I-1524000J0D01*
G01*
X11176000Y4699000D02*
G75*
G02X9652000Y6223000I0J1524000D01*
G01*
X9144000Y65157898D02*
X18796000Y65157898D01*
X29565600Y59563000D02*
G75*
G03X31292767Y60682051I-101634J2049263D01*
G01*
X23266367Y59561549D02*
G75*
G02X21539200Y60680600I101634J2049263D01*
G01*
X18796000Y65151000D02*
G75*
G02X20701000Y63777954I0J-2008046D01*
G01*
X32208485Y64007376D02*
G75*
G02X34036000Y65151000I1827515J-888376D01*
G01*
X20701000Y63779400D02*
X21539200Y60680600D01*
X31292800Y60680600D02*
X32207200Y64008000D01*
X23266400Y59563000D02*
X29565600Y59563000D01*
D12*
X3365595Y21038358D02*
X4889404Y21038358D01*
X4127500Y20466929D02*
X4127500Y21609786D01*
X9779095Y21038358D02*
X11302904Y21038358D01*
X9779095Y32341358D02*
X11302904Y32341358D01*
X3365595Y32341358D02*
X4889404Y32341358D01*
X4127500Y31769929D02*
X4127500Y32912786D01*
D13*
X5540595Y20486620D02*
X5873928Y19486620D01*
X6207261Y20486620D01*
X6731071Y20486620D02*
X6921547Y20486620D01*
X7016785Y20439000D01*
X7112023Y20343762D01*
X7159642Y20153286D01*
X7159642Y19819953D01*
X7112023Y19629477D01*
X7016785Y19534239D01*
X6921547Y19486620D01*
X6731071Y19486620D01*
X6635833Y19534239D01*
X6540595Y19629477D01*
X6492976Y19819953D01*
X6492976Y20153286D01*
X6540595Y20343762D01*
X6635833Y20439000D01*
X6731071Y20486620D01*
X7588214Y20486620D02*
X7588214Y19677096D01*
X7635833Y19581858D01*
X7683452Y19534239D01*
X7778690Y19486620D01*
X7969166Y19486620D01*
X8064404Y19534239D01*
X8112023Y19581858D01*
X8159642Y19677096D01*
X8159642Y20486620D01*
X8492976Y20486620D02*
X9064404Y20486620D01*
X8778690Y19486620D02*
X8778690Y20486620D01*
X6270761Y33694620D02*
X6604095Y32694620D01*
X6937428Y33694620D01*
X7270761Y32694620D02*
X7270761Y33694620D01*
X7746952Y32694620D02*
X7746952Y33694620D01*
X8318380Y32694620D01*
X8318380Y33694620D01*
D12*
X7020642Y25384429D02*
X7092071Y25598715D01*
X7092071Y25955858D01*
X7020642Y26098715D01*
X6949214Y26170143D01*
X6806357Y26241572D01*
X6663500Y26241572D01*
X6520642Y26170143D01*
X6449214Y26098715D01*
X6377785Y25955858D01*
X6306357Y25670143D01*
X6234928Y25527286D01*
X6163500Y25455858D01*
X6020642Y25384429D01*
X5877785Y25384429D01*
X5734928Y25455858D01*
X5663500Y25527286D01*
X5592071Y25670143D01*
X5592071Y26027286D01*
X5663500Y26241572D01*
X5592071Y26670143D02*
X5592071Y27527286D01*
X7092071Y27098715D02*
X5592071Y27098715D01*
X6306357Y28027286D02*
X6306357Y28527286D01*
X7092071Y28741572D02*
X7092071Y28027286D01*
X5592071Y28027286D01*
X5592071Y28741572D01*
X7092071Y29384429D02*
X5592071Y29384429D01*
X5592071Y29955858D01*
X5663500Y30098715D01*
X5734928Y30170143D01*
X5877785Y30241572D01*
X6092071Y30241572D01*
X6234928Y30170143D01*
X6306357Y30098715D01*
X6377785Y29955858D01*
X6377785Y29384429D01*
X16510095Y59138358D02*
X18033904Y59138358D01*
X11430095Y59138358D02*
X12953904Y59138358D01*
X12192000Y58566929D02*
X12192000Y59709786D01*
X26666000Y29576143D02*
X26666000Y30290429D01*
X27094571Y29433286D02*
X25594571Y29933286D01*
X27094571Y30433286D01*
X27094571Y31790429D02*
X26380285Y31290429D01*
X27094571Y30933286D02*
X25594571Y30933286D01*
X25594571Y31504715D01*
X25666000Y31647572D01*
X25737428Y31719000D01*
X25880285Y31790429D01*
X26094571Y31790429D01*
X26237428Y31719000D01*
X26308857Y31647572D01*
X26380285Y31504715D01*
X26380285Y30933286D01*
X27094571Y32433286D02*
X25594571Y32433286D01*
X25594571Y32790429D01*
X25666000Y33004715D01*
X25808857Y33147572D01*
X25951714Y33219000D01*
X26237428Y33290429D01*
X26451714Y33290429D01*
X26737428Y33219000D01*
X26880285Y33147572D01*
X27023142Y33004715D01*
X27094571Y32790429D01*
X27094571Y32433286D01*
X25594571Y33933286D02*
X26808857Y33933286D01*
X26951714Y34004715D01*
X27023142Y34076143D01*
X27094571Y34219000D01*
X27094571Y34504715D01*
X27023142Y34647572D01*
X26951714Y34719000D01*
X26808857Y34790429D01*
X25594571Y34790429D01*
X27094571Y35504715D02*
X25594571Y35504715D01*
X27094571Y36219000D02*
X25594571Y36219000D01*
X27094571Y37076143D01*
X25594571Y37076143D01*
X25594571Y38076143D02*
X25594571Y38361858D01*
X25666000Y38504715D01*
X25808857Y38647572D01*
X26094571Y38719000D01*
X26594571Y38719000D01*
X26880285Y38647572D01*
X27023142Y38504715D01*
X27094571Y38361858D01*
X27094571Y38076143D01*
X27023142Y37933286D01*
X26880285Y37790429D01*
X26594571Y37719000D01*
X26094571Y37719000D01*
X25808857Y37790429D01*
X25666000Y37933286D01*
X25594571Y38076143D01*
X27094571Y40504715D02*
X25594571Y40504715D01*
X27094571Y41361858D01*
X25594571Y41361858D01*
X26666000Y42004715D02*
X26666000Y42719000D01*
X27094571Y41861858D02*
X25594571Y42361858D01*
X27094571Y42861858D01*
X27094571Y43361858D02*
X25594571Y43361858D01*
X27094571Y44219000D01*
X25594571Y44219000D01*
X25594571Y45219000D02*
X25594571Y45504715D01*
X25666000Y45647572D01*
X25808857Y45790429D01*
X26094571Y45861858D01*
X26594571Y45861858D01*
X26880285Y45790429D01*
X27023142Y45647572D01*
X27094571Y45504715D01*
X27094571Y45219000D01*
X27023142Y45076143D01*
X26880285Y44933286D01*
X26594571Y44861858D01*
X26094571Y44861858D01*
X25808857Y44933286D01*
X25666000Y45076143D01*
X25594571Y45219000D01*
D11*
X46291500Y65976500D02*
X46710600Y66217800D01*
X6096000Y66167000D02*
X6604000Y65887600D01*
X44196000Y3429000D02*
X44272200Y2908300D01*
X44271978Y2908193D02*
G75*
G03X52039520Y6822440I3918589J1888029D01*
G01*
X51308000Y9276080D02*
G75*
G03X52035576Y6828212I4791575J92131D01*
G01*
X8636000Y3454400D02*
X8509000Y2819400D01*
X34036000Y65151000D02*
X43688000Y65151000D01*
X46710558Y66217912D02*
G75*
G02X52032465Y60141254I1511907J-4044658D01*
G01*
X51304004Y57601254D02*
G75*
G02X52032466Y60141253I4792461J0D01*
G01*
X43688059Y65149549D02*
G75*
G03X46291500Y65976500I-88393J4789885D01*
G01*
X8502174Y2797261D02*
G75*
G02X795841Y6690366I-3896333J1861105D01*
G01*
X1524130Y9271001D02*
G75*
G02X795840Y6690367I-4792289J-40635D01*
G01*
X742276Y60060480D02*
G75*
G02X6096000Y66167000I3829724J2042520D01*
G01*
X1523595Y57480201D02*
G75*
G03X762000Y60071000I-4787494J0D01*
G01*
X9144000Y65157898D02*
G75*
G02X6604000Y65887600I0J4785563D01*
G01*
X51302920Y57622440D02*
X51308000Y9271000D01*
D14*
X6134100Y24574500D02*
X7658100Y24574500D01*
X7658100Y22542500D02*
X6134100Y24574500D01*
X7658100Y30670500D02*
X7658100Y22542500D01*
D11*
X44196000Y16383000D02*
X44196000Y3429000D01*
X43180000Y16383000D02*
X44196000Y16383000D01*
X43180000Y6223000D02*
X43180000Y16383000D01*
X38608000Y4699000D02*
X41656000Y4699000D01*
X37084000Y16383000D02*
X37084000Y6223000D01*
X29464000Y16383000D02*
X37084000Y16383000D01*
X29464000Y6223000D02*
X29464000Y16383000D01*
X24892000Y4699000D02*
X27940000Y4699000D01*
X23368000Y16383000D02*
X23368000Y6223000D01*
X15748000Y16383000D02*
X23368000Y16383000D01*
X15748000Y6223000D02*
X15748000Y16383000D01*
X11176000Y4699000D02*
X14224000Y4699000D01*
X9652000Y16383000D02*
X9652000Y6223000D01*
X8636000Y16383000D02*
X9652000Y16383000D01*
X8636000Y3454400D02*
X8636000Y16383000D01*
X1524000Y9271000D02*
X1524000Y57480200D01*
D15*
G04 #@! TO.C,A1*
X32766000Y21717000D02*
X32766000Y19177000D01*
X32766000Y19177000D02*
X35436000Y19177000D01*
X35436000Y21717000D02*
X35433000Y58166000D01*
X35436000Y16507000D02*
X35436000Y19177000D01*
X20066000Y19177000D02*
X17396000Y19177000D01*
X20066000Y19177000D02*
X20066000Y57277000D01*
X20066000Y57277000D02*
X17396000Y57277000D01*
X32766000Y21717000D02*
X35436000Y21717000D01*
X32766000Y21717000D02*
X32766000Y57277000D01*
X32766000Y57277000D02*
X35436000Y57277000D01*
X35433000Y58166000D02*
X17393000Y58166000D01*
X17399000Y58166000D02*
X17396000Y16507000D01*
X17396000Y16507000D02*
X35436000Y16507000D01*
D11*
X30226000Y52197000D02*
X30226000Y61722000D01*
X30226000Y61722000D02*
X22606000Y61722000D01*
X22606000Y61722000D02*
X22606000Y52197000D01*
X22606000Y52197000D02*
X30226000Y52197000D01*
D15*
G04 #@! TO.C,C2*
X13017000Y3712000D02*
X12383000Y3712000D01*
X13457000Y3752000D02*
X11943000Y3752000D01*
X13728000Y3792000D02*
X11672000Y3792000D01*
X13941000Y3832000D02*
X11459000Y3832000D01*
X14122000Y3872000D02*
X11278000Y3872000D01*
X14283000Y3912000D02*
X11117000Y3912000D01*
X14428000Y3952000D02*
X10972000Y3952000D01*
X14561000Y3992000D02*
X10839000Y3992000D01*
X14684000Y4032000D02*
X10716000Y4032000D01*
X14800000Y4072000D02*
X10600000Y4072000D01*
X14909000Y4112000D02*
X10491000Y4112000D01*
X15012000Y4152000D02*
X10388000Y4152000D01*
X15110000Y4192000D02*
X10290000Y4192000D01*
X15204000Y4232000D02*
X10196000Y4232000D01*
X15294000Y4272000D02*
X10106000Y4272000D01*
X15381000Y4312000D02*
X10019000Y4312000D01*
X15464000Y4352000D02*
X9936000Y4352000D01*
X15544000Y4392000D02*
X9856000Y4392000D01*
X15621000Y4432000D02*
X9779000Y4432000D01*
X15696000Y4472000D02*
X9704000Y4472000D01*
X15769000Y4512000D02*
X9631000Y4512000D01*
X15840000Y4552000D02*
X9560000Y4552000D01*
X15908000Y4592000D02*
X9492000Y4592000D01*
X15975000Y4632000D02*
X9425000Y4632000D01*
X16039000Y4672000D02*
X9361000Y4672000D01*
X16102000Y4712000D02*
X9298000Y4712000D01*
X16164000Y4752000D02*
X9236000Y4752000D01*
X16224000Y4792000D02*
X9176000Y4792000D01*
X16283000Y4832000D02*
X9117000Y4832000D01*
X16340000Y4872000D02*
X9060000Y4872000D01*
X16396000Y4912000D02*
X9004000Y4912000D01*
X16450000Y4952000D02*
X8950000Y4952000D01*
X16504000Y4992000D02*
X8896000Y4992000D01*
X16556000Y5032000D02*
X8844000Y5032000D01*
X16607000Y5072000D02*
X8793000Y5072000D01*
X16657000Y5112000D02*
X8743000Y5112000D01*
X16707000Y5152000D02*
X8693000Y5152000D01*
X16755000Y5192000D02*
X8645000Y5192000D01*
X16802000Y5232000D02*
X8598000Y5232000D01*
X16848000Y5272000D02*
X8552000Y5272000D01*
X16894000Y5312000D02*
X8506000Y5312000D01*
X16938000Y5352000D02*
X8462000Y5352000D01*
X16982000Y5392000D02*
X8418000Y5392000D01*
X17025000Y5432000D02*
X8375000Y5432000D01*
X17067000Y5472000D02*
X8333000Y5472000D01*
X17108000Y5512000D02*
X8292000Y5512000D01*
X17149000Y5552000D02*
X8251000Y5552000D01*
X17189000Y5592000D02*
X8211000Y5592000D01*
X17228000Y5632000D02*
X8172000Y5632000D01*
X17267000Y5672000D02*
X8133000Y5672000D01*
X17305000Y5712000D02*
X8095000Y5712000D01*
X17342000Y5752000D02*
X8058000Y5752000D01*
X17378000Y5792000D02*
X8022000Y5792000D01*
X17414000Y5832000D02*
X7986000Y5832000D01*
X17450000Y5872000D02*
X7950000Y5872000D01*
X17485000Y5912000D02*
X7915000Y5912000D01*
X17519000Y5952000D02*
X7881000Y5952000D01*
X17552000Y5992000D02*
X7848000Y5992000D01*
X17585000Y6032000D02*
X7815000Y6032000D01*
X17618000Y6072000D02*
X7782000Y6072000D01*
X17650000Y6112000D02*
X7750000Y6112000D01*
X11260000Y6152000D02*
X7718000Y6152000D01*
X17682000Y6152000D02*
X14140000Y6152000D01*
X11260000Y6192000D02*
X7688000Y6192000D01*
X17712000Y6192000D02*
X14140000Y6192000D01*
X11260000Y6232000D02*
X7657000Y6232000D01*
X17743000Y6232000D02*
X14140000Y6232000D01*
X11260000Y6272000D02*
X7627000Y6272000D01*
X17773000Y6272000D02*
X14140000Y6272000D01*
X11260000Y6312000D02*
X7598000Y6312000D01*
X17802000Y6312000D02*
X14140000Y6312000D01*
X11260000Y6352000D02*
X7569000Y6352000D01*
X17831000Y6352000D02*
X14140000Y6352000D01*
X11260000Y6392000D02*
X7540000Y6392000D01*
X17860000Y6392000D02*
X14140000Y6392000D01*
X11260000Y6432000D02*
X7512000Y6432000D01*
X17888000Y6432000D02*
X14140000Y6432000D01*
X11260000Y6472000D02*
X7484000Y6472000D01*
X17916000Y6472000D02*
X14140000Y6472000D01*
X11260000Y6512000D02*
X7457000Y6512000D01*
X17943000Y6512000D02*
X14140000Y6512000D01*
X11260000Y6552000D02*
X7430000Y6552000D01*
X17970000Y6552000D02*
X14140000Y6552000D01*
X11260000Y6592000D02*
X7404000Y6592000D01*
X17996000Y6592000D02*
X14140000Y6592000D01*
X11260000Y6632000D02*
X7378000Y6632000D01*
X18022000Y6632000D02*
X14140000Y6632000D01*
X11260000Y6672000D02*
X7353000Y6672000D01*
X18047000Y6672000D02*
X14140000Y6672000D01*
X11260000Y6712000D02*
X7328000Y6712000D01*
X18072000Y6712000D02*
X14140000Y6712000D01*
X11260000Y6752000D02*
X7303000Y6752000D01*
X18097000Y6752000D02*
X14140000Y6752000D01*
X11260000Y6792000D02*
X7279000Y6792000D01*
X18121000Y6792000D02*
X14140000Y6792000D01*
X11260000Y6832000D02*
X7255000Y6832000D01*
X18145000Y6832000D02*
X14140000Y6832000D01*
X11260000Y6872000D02*
X7232000Y6872000D01*
X18168000Y6872000D02*
X14140000Y6872000D01*
X11260000Y6912000D02*
X7209000Y6912000D01*
X18191000Y6912000D02*
X14140000Y6912000D01*
X11260000Y6952000D02*
X7186000Y6952000D01*
X18214000Y6952000D02*
X14140000Y6952000D01*
X11260000Y6992000D02*
X7164000Y6992000D01*
X18236000Y6992000D02*
X14140000Y6992000D01*
X11260000Y7032000D02*
X7142000Y7032000D01*
X18258000Y7032000D02*
X14140000Y7032000D01*
X11260000Y7072000D02*
X7120000Y7072000D01*
X18280000Y7072000D02*
X14140000Y7072000D01*
X11260000Y7112000D02*
X7099000Y7112000D01*
X18301000Y7112000D02*
X14140000Y7112000D01*
X11260000Y7152000D02*
X7078000Y7152000D01*
X18322000Y7152000D02*
X14140000Y7152000D01*
X11260000Y7192000D02*
X7058000Y7192000D01*
X18342000Y7192000D02*
X14140000Y7192000D01*
X11260000Y7232000D02*
X7038000Y7232000D01*
X18362000Y7232000D02*
X14140000Y7232000D01*
X11260000Y7272000D02*
X7018000Y7272000D01*
X18382000Y7272000D02*
X14140000Y7272000D01*
X11260000Y7312000D02*
X6998000Y7312000D01*
X18402000Y7312000D02*
X14140000Y7312000D01*
X11260000Y7352000D02*
X6979000Y7352000D01*
X18421000Y7352000D02*
X14140000Y7352000D01*
X11260000Y7392000D02*
X6961000Y7392000D01*
X18439000Y7392000D02*
X14140000Y7392000D01*
X11260000Y7432000D02*
X6942000Y7432000D01*
X18458000Y7432000D02*
X14140000Y7432000D01*
X11260000Y7472000D02*
X6924000Y7472000D01*
X18476000Y7472000D02*
X14140000Y7472000D01*
X11260000Y7512000D02*
X6907000Y7512000D01*
X18493000Y7512000D02*
X14140000Y7512000D01*
X11260000Y7552000D02*
X6889000Y7552000D01*
X18511000Y7552000D02*
X14140000Y7552000D01*
X11260000Y7592000D02*
X6872000Y7592000D01*
X18528000Y7592000D02*
X14140000Y7592000D01*
X11260000Y7632000D02*
X6855000Y7632000D01*
X18545000Y7632000D02*
X14140000Y7632000D01*
X11260000Y7672000D02*
X6839000Y7672000D01*
X18561000Y7672000D02*
X14140000Y7672000D01*
X11260000Y7712000D02*
X6823000Y7712000D01*
X18577000Y7712000D02*
X14140000Y7712000D01*
X11260000Y7752000D02*
X6807000Y7752000D01*
X18593000Y7752000D02*
X14140000Y7752000D01*
X11260000Y7792000D02*
X6792000Y7792000D01*
X18608000Y7792000D02*
X14140000Y7792000D01*
X11260000Y7832000D02*
X6776000Y7832000D01*
X18624000Y7832000D02*
X14140000Y7832000D01*
X11260000Y7872000D02*
X6761000Y7872000D01*
X18639000Y7872000D02*
X14140000Y7872000D01*
X11260000Y7912000D02*
X6747000Y7912000D01*
X18653000Y7912000D02*
X14140000Y7912000D01*
X11260000Y7952000D02*
X6733000Y7952000D01*
X18667000Y7952000D02*
X14140000Y7952000D01*
X11260000Y7992000D02*
X6719000Y7992000D01*
X18681000Y7992000D02*
X14140000Y7992000D01*
X11260000Y8032000D02*
X6705000Y8032000D01*
X18695000Y8032000D02*
X14140000Y8032000D01*
X11260000Y8072000D02*
X6692000Y8072000D01*
X18708000Y8072000D02*
X14140000Y8072000D01*
X11260000Y8112000D02*
X6679000Y8112000D01*
X18721000Y8112000D02*
X14140000Y8112000D01*
X11260000Y8152000D02*
X6666000Y8152000D01*
X18734000Y8152000D02*
X14140000Y8152000D01*
X11260000Y8192000D02*
X6653000Y8192000D01*
X18747000Y8192000D02*
X14140000Y8192000D01*
X11260000Y8232000D02*
X6641000Y8232000D01*
X18759000Y8232000D02*
X14140000Y8232000D01*
X11260000Y8272000D02*
X6629000Y8272000D01*
X18771000Y8272000D02*
X14140000Y8272000D01*
X11260000Y8312000D02*
X6617000Y8312000D01*
X18783000Y8312000D02*
X14140000Y8312000D01*
X11260000Y8352000D02*
X6606000Y8352000D01*
X18794000Y8352000D02*
X14140000Y8352000D01*
X11260000Y8392000D02*
X6595000Y8392000D01*
X18805000Y8392000D02*
X14140000Y8392000D01*
X11260000Y8432000D02*
X6584000Y8432000D01*
X18816000Y8432000D02*
X14140000Y8432000D01*
X11260000Y8472000D02*
X6574000Y8472000D01*
X18826000Y8472000D02*
X14140000Y8472000D01*
X11260000Y8512000D02*
X6563000Y8512000D01*
X18837000Y8512000D02*
X14140000Y8512000D01*
X11260000Y8552000D02*
X6554000Y8552000D01*
X18846000Y8552000D02*
X14140000Y8552000D01*
X11260000Y8592000D02*
X6544000Y8592000D01*
X18856000Y8592000D02*
X14140000Y8592000D01*
X11260000Y8632000D02*
X6534000Y8632000D01*
X18866000Y8632000D02*
X14140000Y8632000D01*
X11260000Y8672000D02*
X6525000Y8672000D01*
X18875000Y8672000D02*
X14140000Y8672000D01*
X11260000Y8712000D02*
X6516000Y8712000D01*
X18884000Y8712000D02*
X14140000Y8712000D01*
X11260000Y8752000D02*
X6508000Y8752000D01*
X18892000Y8752000D02*
X14140000Y8752000D01*
X11260000Y8792000D02*
X6499000Y8792000D01*
X18901000Y8792000D02*
X14140000Y8792000D01*
X11260000Y8832000D02*
X6491000Y8832000D01*
X18909000Y8832000D02*
X14140000Y8832000D01*
X11260000Y8872000D02*
X6484000Y8872000D01*
X18916000Y8872000D02*
X14140000Y8872000D01*
X11260000Y8912000D02*
X6476000Y8912000D01*
X18924000Y8912000D02*
X14140000Y8912000D01*
X11260000Y8952000D02*
X6469000Y8952000D01*
X18931000Y8952000D02*
X14140000Y8952000D01*
X11260000Y8992000D02*
X6462000Y8992000D01*
X18938000Y8992000D02*
X14140000Y8992000D01*
X18945000Y9032000D02*
X6455000Y9032000D01*
X18952000Y9072000D02*
X6448000Y9072000D01*
X18958000Y9112000D02*
X6442000Y9112000D01*
X18964000Y9152000D02*
X6436000Y9152000D01*
X18969000Y9192000D02*
X6431000Y9192000D01*
X18975000Y9232000D02*
X6425000Y9232000D01*
X18980000Y9272000D02*
X6420000Y9272000D01*
X18985000Y9312000D02*
X6415000Y9312000D01*
X18990000Y9352000D02*
X6410000Y9352000D01*
X18994000Y9393000D02*
X6406000Y9393000D01*
X18998000Y9433000D02*
X6402000Y9433000D01*
X19002000Y9473000D02*
X6398000Y9473000D01*
X19006000Y9513000D02*
X6394000Y9513000D01*
X19009000Y9553000D02*
X6391000Y9553000D01*
X19012000Y9593000D02*
X6388000Y9593000D01*
X19015000Y9633000D02*
X6385000Y9633000D01*
X19018000Y9673000D02*
X6382000Y9673000D01*
X19020000Y9713000D02*
X6380000Y9713000D01*
X19022000Y9753000D02*
X6378000Y9753000D01*
X19024000Y9793000D02*
X6376000Y9793000D01*
X19026000Y9833000D02*
X6374000Y9833000D01*
X19027000Y9873000D02*
X6373000Y9873000D01*
X19028000Y9913000D02*
X6372000Y9913000D01*
X19029000Y9953000D02*
X6371000Y9953000D01*
X19030000Y9993000D02*
X6370000Y9993000D01*
X19030000Y10033000D02*
X6370000Y10033000D01*
X19030000Y10073000D02*
X6370000Y10073000D01*
X19070000Y10073000D02*
G75*
G03X19070000Y10073000I-6370000J0D01*
G01*
G04 #@! TO.C,C3*
X32786000Y10073000D02*
G75*
G03X32786000Y10073000I-6370000J0D01*
G01*
X32746000Y10073000D02*
X20086000Y10073000D01*
X32746000Y10033000D02*
X20086000Y10033000D01*
X32746000Y9993000D02*
X20086000Y9993000D01*
X32745000Y9953000D02*
X20087000Y9953000D01*
X32744000Y9913000D02*
X20088000Y9913000D01*
X32743000Y9873000D02*
X20089000Y9873000D01*
X32742000Y9833000D02*
X20090000Y9833000D01*
X32740000Y9793000D02*
X20092000Y9793000D01*
X32738000Y9753000D02*
X20094000Y9753000D01*
X32736000Y9713000D02*
X20096000Y9713000D01*
X32734000Y9673000D02*
X20098000Y9673000D01*
X32731000Y9633000D02*
X20101000Y9633000D01*
X32728000Y9593000D02*
X20104000Y9593000D01*
X32725000Y9553000D02*
X20107000Y9553000D01*
X32722000Y9513000D02*
X20110000Y9513000D01*
X32718000Y9473000D02*
X20114000Y9473000D01*
X32714000Y9433000D02*
X20118000Y9433000D01*
X32710000Y9393000D02*
X20122000Y9393000D01*
X32706000Y9352000D02*
X20126000Y9352000D01*
X32701000Y9312000D02*
X20131000Y9312000D01*
X32696000Y9272000D02*
X20136000Y9272000D01*
X32691000Y9232000D02*
X20141000Y9232000D01*
X32685000Y9192000D02*
X20147000Y9192000D01*
X32680000Y9152000D02*
X20152000Y9152000D01*
X32674000Y9112000D02*
X20158000Y9112000D01*
X32668000Y9072000D02*
X20164000Y9072000D01*
X32661000Y9032000D02*
X20171000Y9032000D01*
X32654000Y8992000D02*
X27856000Y8992000D01*
X24976000Y8992000D02*
X20178000Y8992000D01*
X32647000Y8952000D02*
X27856000Y8952000D01*
X24976000Y8952000D02*
X20185000Y8952000D01*
X32640000Y8912000D02*
X27856000Y8912000D01*
X24976000Y8912000D02*
X20192000Y8912000D01*
X32632000Y8872000D02*
X27856000Y8872000D01*
X24976000Y8872000D02*
X20200000Y8872000D01*
X32625000Y8832000D02*
X27856000Y8832000D01*
X24976000Y8832000D02*
X20207000Y8832000D01*
X32617000Y8792000D02*
X27856000Y8792000D01*
X24976000Y8792000D02*
X20215000Y8792000D01*
X32608000Y8752000D02*
X27856000Y8752000D01*
X24976000Y8752000D02*
X20224000Y8752000D01*
X32600000Y8712000D02*
X27856000Y8712000D01*
X24976000Y8712000D02*
X20232000Y8712000D01*
X32591000Y8672000D02*
X27856000Y8672000D01*
X24976000Y8672000D02*
X20241000Y8672000D01*
X32582000Y8632000D02*
X27856000Y8632000D01*
X24976000Y8632000D02*
X20250000Y8632000D01*
X32572000Y8592000D02*
X27856000Y8592000D01*
X24976000Y8592000D02*
X20260000Y8592000D01*
X32562000Y8552000D02*
X27856000Y8552000D01*
X24976000Y8552000D02*
X20270000Y8552000D01*
X32553000Y8512000D02*
X27856000Y8512000D01*
X24976000Y8512000D02*
X20279000Y8512000D01*
X32542000Y8472000D02*
X27856000Y8472000D01*
X24976000Y8472000D02*
X20290000Y8472000D01*
X32532000Y8432000D02*
X27856000Y8432000D01*
X24976000Y8432000D02*
X20300000Y8432000D01*
X32521000Y8392000D02*
X27856000Y8392000D01*
X24976000Y8392000D02*
X20311000Y8392000D01*
X32510000Y8352000D02*
X27856000Y8352000D01*
X24976000Y8352000D02*
X20322000Y8352000D01*
X32499000Y8312000D02*
X27856000Y8312000D01*
X24976000Y8312000D02*
X20333000Y8312000D01*
X32487000Y8272000D02*
X27856000Y8272000D01*
X24976000Y8272000D02*
X20345000Y8272000D01*
X32475000Y8232000D02*
X27856000Y8232000D01*
X24976000Y8232000D02*
X20357000Y8232000D01*
X32463000Y8192000D02*
X27856000Y8192000D01*
X24976000Y8192000D02*
X20369000Y8192000D01*
X32450000Y8152000D02*
X27856000Y8152000D01*
X24976000Y8152000D02*
X20382000Y8152000D01*
X32437000Y8112000D02*
X27856000Y8112000D01*
X24976000Y8112000D02*
X20395000Y8112000D01*
X32424000Y8072000D02*
X27856000Y8072000D01*
X24976000Y8072000D02*
X20408000Y8072000D01*
X32411000Y8032000D02*
X27856000Y8032000D01*
X24976000Y8032000D02*
X20421000Y8032000D01*
X32397000Y7992000D02*
X27856000Y7992000D01*
X24976000Y7992000D02*
X20435000Y7992000D01*
X32383000Y7952000D02*
X27856000Y7952000D01*
X24976000Y7952000D02*
X20449000Y7952000D01*
X32369000Y7912000D02*
X27856000Y7912000D01*
X24976000Y7912000D02*
X20463000Y7912000D01*
X32355000Y7872000D02*
X27856000Y7872000D01*
X24976000Y7872000D02*
X20477000Y7872000D01*
X32340000Y7832000D02*
X27856000Y7832000D01*
X24976000Y7832000D02*
X20492000Y7832000D01*
X32324000Y7792000D02*
X27856000Y7792000D01*
X24976000Y7792000D02*
X20508000Y7792000D01*
X32309000Y7752000D02*
X27856000Y7752000D01*
X24976000Y7752000D02*
X20523000Y7752000D01*
X32293000Y7712000D02*
X27856000Y7712000D01*
X24976000Y7712000D02*
X20539000Y7712000D01*
X32277000Y7672000D02*
X27856000Y7672000D01*
X24976000Y7672000D02*
X20555000Y7672000D01*
X32261000Y7632000D02*
X27856000Y7632000D01*
X24976000Y7632000D02*
X20571000Y7632000D01*
X32244000Y7592000D02*
X27856000Y7592000D01*
X24976000Y7592000D02*
X20588000Y7592000D01*
X32227000Y7552000D02*
X27856000Y7552000D01*
X24976000Y7552000D02*
X20605000Y7552000D01*
X32209000Y7512000D02*
X27856000Y7512000D01*
X24976000Y7512000D02*
X20623000Y7512000D01*
X32192000Y7472000D02*
X27856000Y7472000D01*
X24976000Y7472000D02*
X20640000Y7472000D01*
X32174000Y7432000D02*
X27856000Y7432000D01*
X24976000Y7432000D02*
X20658000Y7432000D01*
X32155000Y7392000D02*
X27856000Y7392000D01*
X24976000Y7392000D02*
X20677000Y7392000D01*
X32137000Y7352000D02*
X27856000Y7352000D01*
X24976000Y7352000D02*
X20695000Y7352000D01*
X32118000Y7312000D02*
X27856000Y7312000D01*
X24976000Y7312000D02*
X20714000Y7312000D01*
X32098000Y7272000D02*
X27856000Y7272000D01*
X24976000Y7272000D02*
X20734000Y7272000D01*
X32078000Y7232000D02*
X27856000Y7232000D01*
X24976000Y7232000D02*
X20754000Y7232000D01*
X32058000Y7192000D02*
X27856000Y7192000D01*
X24976000Y7192000D02*
X20774000Y7192000D01*
X32038000Y7152000D02*
X27856000Y7152000D01*
X24976000Y7152000D02*
X20794000Y7152000D01*
X32017000Y7112000D02*
X27856000Y7112000D01*
X24976000Y7112000D02*
X20815000Y7112000D01*
X31996000Y7072000D02*
X27856000Y7072000D01*
X24976000Y7072000D02*
X20836000Y7072000D01*
X31974000Y7032000D02*
X27856000Y7032000D01*
X24976000Y7032000D02*
X20858000Y7032000D01*
X31952000Y6992000D02*
X27856000Y6992000D01*
X24976000Y6992000D02*
X20880000Y6992000D01*
X31930000Y6952000D02*
X27856000Y6952000D01*
X24976000Y6952000D02*
X20902000Y6952000D01*
X31907000Y6912000D02*
X27856000Y6912000D01*
X24976000Y6912000D02*
X20925000Y6912000D01*
X31884000Y6872000D02*
X27856000Y6872000D01*
X24976000Y6872000D02*
X20948000Y6872000D01*
X31861000Y6832000D02*
X27856000Y6832000D01*
X24976000Y6832000D02*
X20971000Y6832000D01*
X31837000Y6792000D02*
X27856000Y6792000D01*
X24976000Y6792000D02*
X20995000Y6792000D01*
X31813000Y6752000D02*
X27856000Y6752000D01*
X24976000Y6752000D02*
X21019000Y6752000D01*
X31788000Y6712000D02*
X27856000Y6712000D01*
X24976000Y6712000D02*
X21044000Y6712000D01*
X31763000Y6672000D02*
X27856000Y6672000D01*
X24976000Y6672000D02*
X21069000Y6672000D01*
X31738000Y6632000D02*
X27856000Y6632000D01*
X24976000Y6632000D02*
X21094000Y6632000D01*
X31712000Y6592000D02*
X27856000Y6592000D01*
X24976000Y6592000D02*
X21120000Y6592000D01*
X31686000Y6552000D02*
X27856000Y6552000D01*
X24976000Y6552000D02*
X21146000Y6552000D01*
X31659000Y6512000D02*
X27856000Y6512000D01*
X24976000Y6512000D02*
X21173000Y6512000D01*
X31632000Y6472000D02*
X27856000Y6472000D01*
X24976000Y6472000D02*
X21200000Y6472000D01*
X31604000Y6432000D02*
X27856000Y6432000D01*
X24976000Y6432000D02*
X21228000Y6432000D01*
X31576000Y6392000D02*
X27856000Y6392000D01*
X24976000Y6392000D02*
X21256000Y6392000D01*
X31547000Y6352000D02*
X27856000Y6352000D01*
X24976000Y6352000D02*
X21285000Y6352000D01*
X31518000Y6312000D02*
X27856000Y6312000D01*
X24976000Y6312000D02*
X21314000Y6312000D01*
X31489000Y6272000D02*
X27856000Y6272000D01*
X24976000Y6272000D02*
X21343000Y6272000D01*
X31459000Y6232000D02*
X27856000Y6232000D01*
X24976000Y6232000D02*
X21373000Y6232000D01*
X31428000Y6192000D02*
X27856000Y6192000D01*
X24976000Y6192000D02*
X21404000Y6192000D01*
X31398000Y6152000D02*
X27856000Y6152000D01*
X24976000Y6152000D02*
X21434000Y6152000D01*
X31366000Y6112000D02*
X21466000Y6112000D01*
X31334000Y6072000D02*
X21498000Y6072000D01*
X31301000Y6032000D02*
X21531000Y6032000D01*
X31268000Y5992000D02*
X21564000Y5992000D01*
X31235000Y5952000D02*
X21597000Y5952000D01*
X31201000Y5912000D02*
X21631000Y5912000D01*
X31166000Y5872000D02*
X21666000Y5872000D01*
X31130000Y5832000D02*
X21702000Y5832000D01*
X31094000Y5792000D02*
X21738000Y5792000D01*
X31058000Y5752000D02*
X21774000Y5752000D01*
X31021000Y5712000D02*
X21811000Y5712000D01*
X30983000Y5672000D02*
X21849000Y5672000D01*
X30944000Y5632000D02*
X21888000Y5632000D01*
X30905000Y5592000D02*
X21927000Y5592000D01*
X30865000Y5552000D02*
X21967000Y5552000D01*
X30824000Y5512000D02*
X22008000Y5512000D01*
X30783000Y5472000D02*
X22049000Y5472000D01*
X30741000Y5432000D02*
X22091000Y5432000D01*
X30698000Y5392000D02*
X22134000Y5392000D01*
X30654000Y5352000D02*
X22178000Y5352000D01*
X30610000Y5312000D02*
X22222000Y5312000D01*
X30564000Y5272000D02*
X22268000Y5272000D01*
X30518000Y5232000D02*
X22314000Y5232000D01*
X30471000Y5192000D02*
X22361000Y5192000D01*
X30423000Y5152000D02*
X22409000Y5152000D01*
X30373000Y5112000D02*
X22459000Y5112000D01*
X30323000Y5072000D02*
X22509000Y5072000D01*
X30272000Y5032000D02*
X22560000Y5032000D01*
X30220000Y4992000D02*
X22612000Y4992000D01*
X30166000Y4952000D02*
X22666000Y4952000D01*
X30112000Y4912000D02*
X22720000Y4912000D01*
X30056000Y4872000D02*
X22776000Y4872000D01*
X29999000Y4832000D02*
X22833000Y4832000D01*
X29940000Y4792000D02*
X22892000Y4792000D01*
X29880000Y4752000D02*
X22952000Y4752000D01*
X29818000Y4712000D02*
X23014000Y4712000D01*
X29755000Y4672000D02*
X23077000Y4672000D01*
X29691000Y4632000D02*
X23141000Y4632000D01*
X29624000Y4592000D02*
X23208000Y4592000D01*
X29556000Y4552000D02*
X23276000Y4552000D01*
X29485000Y4512000D02*
X23347000Y4512000D01*
X29412000Y4472000D02*
X23420000Y4472000D01*
X29337000Y4432000D02*
X23495000Y4432000D01*
X29260000Y4392000D02*
X23572000Y4392000D01*
X29180000Y4352000D02*
X23652000Y4352000D01*
X29097000Y4312000D02*
X23735000Y4312000D01*
X29010000Y4272000D02*
X23822000Y4272000D01*
X28920000Y4232000D02*
X23912000Y4232000D01*
X28826000Y4192000D02*
X24006000Y4192000D01*
X28728000Y4152000D02*
X24104000Y4152000D01*
X28625000Y4112000D02*
X24207000Y4112000D01*
X28516000Y4072000D02*
X24316000Y4072000D01*
X28400000Y4032000D02*
X24432000Y4032000D01*
X28277000Y3992000D02*
X24555000Y3992000D01*
X28144000Y3952000D02*
X24688000Y3952000D01*
X27999000Y3912000D02*
X24833000Y3912000D01*
X27838000Y3872000D02*
X24994000Y3872000D01*
X27657000Y3832000D02*
X25175000Y3832000D01*
X27444000Y3792000D02*
X25388000Y3792000D01*
X27173000Y3752000D02*
X25659000Y3752000D01*
X26733000Y3712000D02*
X26099000Y3712000D01*
G04 #@! TO.C,C1*
X46502000Y10073000D02*
G75*
G03X46502000Y10073000I-6370000J0D01*
G01*
X46462000Y10073000D02*
X33802000Y10073000D01*
X46462000Y10033000D02*
X33802000Y10033000D01*
X46462000Y9993000D02*
X33802000Y9993000D01*
X46461000Y9953000D02*
X33803000Y9953000D01*
X46460000Y9913000D02*
X33804000Y9913000D01*
X46459000Y9873000D02*
X33805000Y9873000D01*
X46458000Y9833000D02*
X33806000Y9833000D01*
X46456000Y9793000D02*
X33808000Y9793000D01*
X46454000Y9753000D02*
X33810000Y9753000D01*
X46452000Y9713000D02*
X33812000Y9713000D01*
X46450000Y9673000D02*
X33814000Y9673000D01*
X46447000Y9633000D02*
X33817000Y9633000D01*
X46444000Y9593000D02*
X33820000Y9593000D01*
X46441000Y9553000D02*
X33823000Y9553000D01*
X46438000Y9513000D02*
X33826000Y9513000D01*
X46434000Y9473000D02*
X33830000Y9473000D01*
X46430000Y9433000D02*
X33834000Y9433000D01*
X46426000Y9393000D02*
X33838000Y9393000D01*
X46422000Y9352000D02*
X33842000Y9352000D01*
X46417000Y9312000D02*
X33847000Y9312000D01*
X46412000Y9272000D02*
X33852000Y9272000D01*
X46407000Y9232000D02*
X33857000Y9232000D01*
X46401000Y9192000D02*
X33863000Y9192000D01*
X46396000Y9152000D02*
X33868000Y9152000D01*
X46390000Y9112000D02*
X33874000Y9112000D01*
X46384000Y9072000D02*
X33880000Y9072000D01*
X46377000Y9032000D02*
X33887000Y9032000D01*
X46370000Y8992000D02*
X41572000Y8992000D01*
X38692000Y8992000D02*
X33894000Y8992000D01*
X46363000Y8952000D02*
X41572000Y8952000D01*
X38692000Y8952000D02*
X33901000Y8952000D01*
X46356000Y8912000D02*
X41572000Y8912000D01*
X38692000Y8912000D02*
X33908000Y8912000D01*
X46348000Y8872000D02*
X41572000Y8872000D01*
X38692000Y8872000D02*
X33916000Y8872000D01*
X46341000Y8832000D02*
X41572000Y8832000D01*
X38692000Y8832000D02*
X33923000Y8832000D01*
X46333000Y8792000D02*
X41572000Y8792000D01*
X38692000Y8792000D02*
X33931000Y8792000D01*
X46324000Y8752000D02*
X41572000Y8752000D01*
X38692000Y8752000D02*
X33940000Y8752000D01*
X46316000Y8712000D02*
X41572000Y8712000D01*
X38692000Y8712000D02*
X33948000Y8712000D01*
X46307000Y8672000D02*
X41572000Y8672000D01*
X38692000Y8672000D02*
X33957000Y8672000D01*
X46298000Y8632000D02*
X41572000Y8632000D01*
X38692000Y8632000D02*
X33966000Y8632000D01*
X46288000Y8592000D02*
X41572000Y8592000D01*
X38692000Y8592000D02*
X33976000Y8592000D01*
X46278000Y8552000D02*
X41572000Y8552000D01*
X38692000Y8552000D02*
X33986000Y8552000D01*
X46269000Y8512000D02*
X41572000Y8512000D01*
X38692000Y8512000D02*
X33995000Y8512000D01*
X46258000Y8472000D02*
X41572000Y8472000D01*
X38692000Y8472000D02*
X34006000Y8472000D01*
X46248000Y8432000D02*
X41572000Y8432000D01*
X38692000Y8432000D02*
X34016000Y8432000D01*
X46237000Y8392000D02*
X41572000Y8392000D01*
X38692000Y8392000D02*
X34027000Y8392000D01*
X46226000Y8352000D02*
X41572000Y8352000D01*
X38692000Y8352000D02*
X34038000Y8352000D01*
X46215000Y8312000D02*
X41572000Y8312000D01*
X38692000Y8312000D02*
X34049000Y8312000D01*
X46203000Y8272000D02*
X41572000Y8272000D01*
X38692000Y8272000D02*
X34061000Y8272000D01*
X46191000Y8232000D02*
X41572000Y8232000D01*
X38692000Y8232000D02*
X34073000Y8232000D01*
X46179000Y8192000D02*
X41572000Y8192000D01*
X38692000Y8192000D02*
X34085000Y8192000D01*
X46166000Y8152000D02*
X41572000Y8152000D01*
X38692000Y8152000D02*
X34098000Y8152000D01*
X46153000Y8112000D02*
X41572000Y8112000D01*
X38692000Y8112000D02*
X34111000Y8112000D01*
X46140000Y8072000D02*
X41572000Y8072000D01*
X38692000Y8072000D02*
X34124000Y8072000D01*
X46127000Y8032000D02*
X41572000Y8032000D01*
X38692000Y8032000D02*
X34137000Y8032000D01*
X46113000Y7992000D02*
X41572000Y7992000D01*
X38692000Y7992000D02*
X34151000Y7992000D01*
X46099000Y7952000D02*
X41572000Y7952000D01*
X38692000Y7952000D02*
X34165000Y7952000D01*
X46085000Y7912000D02*
X41572000Y7912000D01*
X38692000Y7912000D02*
X34179000Y7912000D01*
X46071000Y7872000D02*
X41572000Y7872000D01*
X38692000Y7872000D02*
X34193000Y7872000D01*
X46056000Y7832000D02*
X41572000Y7832000D01*
X38692000Y7832000D02*
X34208000Y7832000D01*
X46040000Y7792000D02*
X41572000Y7792000D01*
X38692000Y7792000D02*
X34224000Y7792000D01*
X46025000Y7752000D02*
X41572000Y7752000D01*
X38692000Y7752000D02*
X34239000Y7752000D01*
X46009000Y7712000D02*
X41572000Y7712000D01*
X38692000Y7712000D02*
X34255000Y7712000D01*
X45993000Y7672000D02*
X41572000Y7672000D01*
X38692000Y7672000D02*
X34271000Y7672000D01*
X45977000Y7632000D02*
X41572000Y7632000D01*
X38692000Y7632000D02*
X34287000Y7632000D01*
X45960000Y7592000D02*
X41572000Y7592000D01*
X38692000Y7592000D02*
X34304000Y7592000D01*
X45943000Y7552000D02*
X41572000Y7552000D01*
X38692000Y7552000D02*
X34321000Y7552000D01*
X45925000Y7512000D02*
X41572000Y7512000D01*
X38692000Y7512000D02*
X34339000Y7512000D01*
X45908000Y7472000D02*
X41572000Y7472000D01*
X38692000Y7472000D02*
X34356000Y7472000D01*
X45890000Y7432000D02*
X41572000Y7432000D01*
X38692000Y7432000D02*
X34374000Y7432000D01*
X45871000Y7392000D02*
X41572000Y7392000D01*
X38692000Y7392000D02*
X34393000Y7392000D01*
X45853000Y7352000D02*
X41572000Y7352000D01*
X38692000Y7352000D02*
X34411000Y7352000D01*
X45834000Y7312000D02*
X41572000Y7312000D01*
X38692000Y7312000D02*
X34430000Y7312000D01*
X45814000Y7272000D02*
X41572000Y7272000D01*
X38692000Y7272000D02*
X34450000Y7272000D01*
X45794000Y7232000D02*
X41572000Y7232000D01*
X38692000Y7232000D02*
X34470000Y7232000D01*
X45774000Y7192000D02*
X41572000Y7192000D01*
X38692000Y7192000D02*
X34490000Y7192000D01*
X45754000Y7152000D02*
X41572000Y7152000D01*
X38692000Y7152000D02*
X34510000Y7152000D01*
X45733000Y7112000D02*
X41572000Y7112000D01*
X38692000Y7112000D02*
X34531000Y7112000D01*
X45712000Y7072000D02*
X41572000Y7072000D01*
X38692000Y7072000D02*
X34552000Y7072000D01*
X45690000Y7032000D02*
X41572000Y7032000D01*
X38692000Y7032000D02*
X34574000Y7032000D01*
X45668000Y6992000D02*
X41572000Y6992000D01*
X38692000Y6992000D02*
X34596000Y6992000D01*
X45646000Y6952000D02*
X41572000Y6952000D01*
X38692000Y6952000D02*
X34618000Y6952000D01*
X45623000Y6912000D02*
X41572000Y6912000D01*
X38692000Y6912000D02*
X34641000Y6912000D01*
X45600000Y6872000D02*
X41572000Y6872000D01*
X38692000Y6872000D02*
X34664000Y6872000D01*
X45577000Y6832000D02*
X41572000Y6832000D01*
X38692000Y6832000D02*
X34687000Y6832000D01*
X45553000Y6792000D02*
X41572000Y6792000D01*
X38692000Y6792000D02*
X34711000Y6792000D01*
X45529000Y6752000D02*
X41572000Y6752000D01*
X38692000Y6752000D02*
X34735000Y6752000D01*
X45504000Y6712000D02*
X41572000Y6712000D01*
X38692000Y6712000D02*
X34760000Y6712000D01*
X45479000Y6672000D02*
X41572000Y6672000D01*
X38692000Y6672000D02*
X34785000Y6672000D01*
X45454000Y6632000D02*
X41572000Y6632000D01*
X38692000Y6632000D02*
X34810000Y6632000D01*
X45428000Y6592000D02*
X41572000Y6592000D01*
X38692000Y6592000D02*
X34836000Y6592000D01*
X45402000Y6552000D02*
X41572000Y6552000D01*
X38692000Y6552000D02*
X34862000Y6552000D01*
X45375000Y6512000D02*
X41572000Y6512000D01*
X38692000Y6512000D02*
X34889000Y6512000D01*
X45348000Y6472000D02*
X41572000Y6472000D01*
X38692000Y6472000D02*
X34916000Y6472000D01*
X45320000Y6432000D02*
X41572000Y6432000D01*
X38692000Y6432000D02*
X34944000Y6432000D01*
X45292000Y6392000D02*
X41572000Y6392000D01*
X38692000Y6392000D02*
X34972000Y6392000D01*
X45263000Y6352000D02*
X41572000Y6352000D01*
X38692000Y6352000D02*
X35001000Y6352000D01*
X45234000Y6312000D02*
X41572000Y6312000D01*
X38692000Y6312000D02*
X35030000Y6312000D01*
X45205000Y6272000D02*
X41572000Y6272000D01*
X38692000Y6272000D02*
X35059000Y6272000D01*
X45175000Y6232000D02*
X41572000Y6232000D01*
X38692000Y6232000D02*
X35089000Y6232000D01*
X45144000Y6192000D02*
X41572000Y6192000D01*
X38692000Y6192000D02*
X35120000Y6192000D01*
X45114000Y6152000D02*
X41572000Y6152000D01*
X38692000Y6152000D02*
X35150000Y6152000D01*
X45082000Y6112000D02*
X35182000Y6112000D01*
X45050000Y6072000D02*
X35214000Y6072000D01*
X45017000Y6032000D02*
X35247000Y6032000D01*
X44984000Y5992000D02*
X35280000Y5992000D01*
X44951000Y5952000D02*
X35313000Y5952000D01*
X44917000Y5912000D02*
X35347000Y5912000D01*
X44882000Y5872000D02*
X35382000Y5872000D01*
X44846000Y5832000D02*
X35418000Y5832000D01*
X44810000Y5792000D02*
X35454000Y5792000D01*
X44774000Y5752000D02*
X35490000Y5752000D01*
X44737000Y5712000D02*
X35527000Y5712000D01*
X44699000Y5672000D02*
X35565000Y5672000D01*
X44660000Y5632000D02*
X35604000Y5632000D01*
X44621000Y5592000D02*
X35643000Y5592000D01*
X44581000Y5552000D02*
X35683000Y5552000D01*
X44540000Y5512000D02*
X35724000Y5512000D01*
X44499000Y5472000D02*
X35765000Y5472000D01*
X44457000Y5432000D02*
X35807000Y5432000D01*
X44414000Y5392000D02*
X35850000Y5392000D01*
X44370000Y5352000D02*
X35894000Y5352000D01*
X44326000Y5312000D02*
X35938000Y5312000D01*
X44280000Y5272000D02*
X35984000Y5272000D01*
X44234000Y5232000D02*
X36030000Y5232000D01*
X44187000Y5192000D02*
X36077000Y5192000D01*
X44139000Y5152000D02*
X36125000Y5152000D01*
X44089000Y5112000D02*
X36175000Y5112000D01*
X44039000Y5072000D02*
X36225000Y5072000D01*
X43988000Y5032000D02*
X36276000Y5032000D01*
X43936000Y4992000D02*
X36328000Y4992000D01*
X43882000Y4952000D02*
X36382000Y4952000D01*
X43828000Y4912000D02*
X36436000Y4912000D01*
X43772000Y4872000D02*
X36492000Y4872000D01*
X43715000Y4832000D02*
X36549000Y4832000D01*
X43656000Y4792000D02*
X36608000Y4792000D01*
X43596000Y4752000D02*
X36668000Y4752000D01*
X43534000Y4712000D02*
X36730000Y4712000D01*
X43471000Y4672000D02*
X36793000Y4672000D01*
X43407000Y4632000D02*
X36857000Y4632000D01*
X43340000Y4592000D02*
X36924000Y4592000D01*
X43272000Y4552000D02*
X36992000Y4552000D01*
X43201000Y4512000D02*
X37063000Y4512000D01*
X43128000Y4472000D02*
X37136000Y4472000D01*
X43053000Y4432000D02*
X37211000Y4432000D01*
X42976000Y4392000D02*
X37288000Y4392000D01*
X42896000Y4352000D02*
X37368000Y4352000D01*
X42813000Y4312000D02*
X37451000Y4312000D01*
X42726000Y4272000D02*
X37538000Y4272000D01*
X42636000Y4232000D02*
X37628000Y4232000D01*
X42542000Y4192000D02*
X37722000Y4192000D01*
X42444000Y4152000D02*
X37820000Y4152000D01*
X42341000Y4112000D02*
X37923000Y4112000D01*
X42232000Y4072000D02*
X38032000Y4072000D01*
X42116000Y4032000D02*
X38148000Y4032000D01*
X41993000Y3992000D02*
X38271000Y3992000D01*
X41860000Y3952000D02*
X38404000Y3952000D01*
X41715000Y3912000D02*
X38549000Y3912000D01*
X41554000Y3872000D02*
X38710000Y3872000D01*
X41373000Y3832000D02*
X38891000Y3832000D01*
X41160000Y3792000D02*
X39104000Y3792000D01*
X40889000Y3752000D02*
X39375000Y3752000D01*
X40449000Y3712000D02*
X39815000Y3712000D01*
D11*
G04 #@! TO.C,Amper\00EDmetro1*
X9990000Y55978500D02*
X9990000Y55928500D01*
X14140000Y55978500D02*
X14140000Y55833500D01*
X14140000Y50828500D02*
X14140000Y50973500D01*
X9990000Y50828500D02*
X9990000Y50973500D01*
X9990000Y55978500D02*
X14140000Y55978500D01*
X9990000Y50828500D02*
X14140000Y50828500D01*
X9990000Y55928500D02*
X8590000Y55928500D01*
D15*
G04 #@! TO.C,Batt_Aux1*
X50606000Y12005000D02*
X49276000Y12005000D01*
X50606000Y13335000D02*
X50606000Y12005000D01*
X50606000Y14605000D02*
X47946000Y14605000D01*
X47946000Y14605000D02*
X47946000Y19745000D01*
X50606000Y14605000D02*
X50606000Y19745000D01*
X50606000Y19745000D02*
X47946000Y19745000D01*
G04 #@! TO.C,C4*
X14231252Y58050500D02*
X13708748Y58050500D01*
X14231252Y56630500D02*
X13708748Y56630500D01*
G04 #@! TO.C,C5*
X14231252Y48883500D02*
X13708748Y48883500D01*
X14231252Y50303500D02*
X13708748Y50303500D01*
G04 #@! TO.C,ENCODERS1*
X50606000Y39557000D02*
X47946000Y39557000D01*
X50606000Y31877000D02*
X50606000Y39557000D01*
X47946000Y31877000D02*
X47946000Y39557000D01*
X50606000Y31877000D02*
X47946000Y31877000D01*
X50606000Y30607000D02*
X50606000Y29277000D01*
X50606000Y29277000D02*
X49276000Y29277000D01*
G04 #@! TO.C,Ibus1*
X47946000Y20641000D02*
X50606000Y20641000D01*
X47946000Y25781000D02*
X47946000Y20641000D01*
X50606000Y25781000D02*
X50606000Y20641000D01*
X47946000Y25781000D02*
X50606000Y25781000D01*
X47946000Y27051000D02*
X47946000Y28381000D01*
X47946000Y28381000D02*
X49276000Y28381000D01*
G04 #@! TO.C,J1*
X38922000Y47177000D02*
X36262000Y47177000D01*
X38922000Y36957000D02*
X38922000Y47177000D01*
X36262000Y36957000D02*
X36262000Y47177000D01*
X38922000Y36957000D02*
X36262000Y36957000D01*
X38922000Y35687000D02*
X38922000Y34357000D01*
X38922000Y34357000D02*
X37592000Y34357000D01*
G04 #@! TO.C,J2*
X13910000Y29277000D02*
X16570000Y29277000D01*
X13910000Y42037000D02*
X13910000Y29277000D01*
X16570000Y42037000D02*
X16570000Y29277000D01*
X13910000Y42037000D02*
X16570000Y42037000D01*
X13910000Y43307000D02*
X13910000Y44637000D01*
X13910000Y44637000D02*
X15240000Y44637000D01*
G04 #@! TO.C,JP1*
X39500000Y53483000D02*
X36700000Y53483000D01*
X36700000Y53483000D02*
X36700000Y55483000D01*
X36700000Y55483000D02*
X39500000Y55483000D01*
X39500000Y55483000D02*
X39500000Y53483000D01*
G04 #@! TO.C,JP2*
X39500000Y51419000D02*
X39500000Y49419000D01*
X36700000Y51419000D02*
X39500000Y51419000D01*
X36700000Y49419000D02*
X36700000Y51419000D01*
X39500000Y49419000D02*
X36700000Y49419000D01*
G04 #@! TO.C,MOT1*
X50606000Y49089000D02*
X49276000Y49089000D01*
X50606000Y50419000D02*
X50606000Y49089000D01*
X50606000Y51689000D02*
X47946000Y51689000D01*
X47946000Y51689000D02*
X47946000Y56829000D01*
X50606000Y51689000D02*
X50606000Y56829000D01*
X50606000Y56829000D02*
X47946000Y56829000D01*
G04 #@! TO.C,MOT2*
X45018000Y56829000D02*
X42358000Y56829000D01*
X45018000Y51689000D02*
X45018000Y56829000D01*
X42358000Y51689000D02*
X42358000Y56829000D01*
X45018000Y51689000D02*
X42358000Y51689000D01*
X45018000Y50419000D02*
X45018000Y49089000D01*
X45018000Y49089000D02*
X43688000Y49089000D01*
G04 #@! TO.C,R1*
X10025748Y46851500D02*
X10548252Y46851500D01*
X10025748Y48271500D02*
X10548252Y48271500D01*
G04 #@! TO.C,R2*
X13772248Y48271500D02*
X14294752Y48271500D01*
X13772248Y46851500D02*
X14294752Y46851500D01*
G04 #@! TO.C,SERVO1*
X50606000Y40453000D02*
X49276000Y40453000D01*
X50606000Y41783000D02*
X50606000Y40453000D01*
X50606000Y43053000D02*
X47946000Y43053000D01*
X47946000Y43053000D02*
X47946000Y48193000D01*
X50606000Y43053000D02*
X50606000Y48193000D01*
X50606000Y48193000D02*
X47946000Y48193000D01*
G04 #@! TO.C,SERVO2*
X45018000Y48193000D02*
X42358000Y48193000D01*
X45018000Y43053000D02*
X45018000Y48193000D01*
X42358000Y43053000D02*
X42358000Y48193000D01*
X45018000Y43053000D02*
X42358000Y43053000D01*
X45018000Y41783000D02*
X45018000Y40453000D01*
X45018000Y40453000D02*
X43688000Y40453000D01*
D11*
G04 #@! TO.C,U1*
X2857500Y33020000D02*
G75*
G03X4127500Y34290000I0J1270000D01*
G01*
X10477500Y34290000D02*
G75*
G03X11747500Y33020000I1270000J0D01*
G01*
X11747500Y20320000D02*
G75*
G03X10477500Y19050000I0J-1270000D01*
G01*
X4127500Y19050000D02*
G75*
G03X2857500Y20320000I-1270000J0D01*
G01*
X2857500Y33020000D02*
X2857500Y20320000D01*
X10477500Y19050000D02*
X4127500Y19050000D01*
X11747500Y33020000D02*
X11747500Y20320000D01*
X10477500Y34290000D02*
X4127500Y34290000D01*
D16*
G04 #@! TO.C,G\002A\002A\002A*
G36*
X37521542Y27180398D02*
X37523919Y27176132D01*
X37551811Y27136412D01*
X37569716Y27118283D01*
X37581900Y27100508D01*
X37563597Y27083919D01*
X37548717Y27076661D01*
X37519670Y27065543D01*
X37506405Y27072753D01*
X37502898Y27105901D01*
X37502921Y27134511D01*
X37504533Y27181055D01*
X37509974Y27194833D01*
X37521542Y27180398D01*
X37521542Y27180398D01*
G37*
X37521542Y27180398D02*
X37523919Y27176132D01*
X37551811Y27136412D01*
X37569716Y27118283D01*
X37581900Y27100508D01*
X37563597Y27083919D01*
X37548717Y27076661D01*
X37519670Y27065543D01*
X37506405Y27072753D01*
X37502898Y27105901D01*
X37502921Y27134511D01*
X37504533Y27181055D01*
X37509974Y27194833D01*
X37521542Y27180398D01*
G36*
X38406453Y27953820D02*
X38554117Y27923760D01*
X38684723Y27879210D01*
X38761038Y27839670D01*
X38815090Y27805808D01*
X38762581Y27778296D01*
X38730347Y27764023D01*
X38703668Y27764259D01*
X38670355Y27782166D01*
X38628415Y27813113D01*
X38556389Y27859596D01*
X38482462Y27893258D01*
X38416982Y27910281D01*
X38372211Y27907637D01*
X38349579Y27882259D01*
X38342794Y27850358D01*
X38349360Y27820842D01*
X38373906Y27794469D01*
X38423704Y27764469D01*
X38448721Y27751721D01*
X38504797Y27721537D01*
X38545420Y27695318D01*
X38560652Y27680397D01*
X38550267Y27659620D01*
X38516936Y27633533D01*
X38511585Y27630383D01*
X38473833Y27610806D01*
X38456016Y27611050D01*
X38446263Y27631349D01*
X38446158Y27631678D01*
X38424824Y27664062D01*
X38385979Y27700967D01*
X38379109Y27706226D01*
X38318005Y27737788D01*
X38269846Y27739363D01*
X38239646Y27717464D01*
X38232416Y27678605D01*
X38253169Y27629300D01*
X38289561Y27589858D01*
X38323097Y27556371D01*
X38336162Y27533317D01*
X38333456Y27528491D01*
X38312185Y27517127D01*
X38263911Y27489937D01*
X38193890Y27449928D01*
X38107379Y27400104D01*
X38009633Y27343470D01*
X37997279Y27336290D01*
X37679779Y27151693D01*
X37674107Y27223157D01*
X37663931Y27275420D01*
X37646137Y27312433D01*
X37642320Y27316294D01*
X37606674Y27328624D01*
X37567898Y27321293D01*
X37542459Y27299014D01*
X37539706Y27286933D01*
X37529211Y27262897D01*
X37521029Y27260176D01*
X37502881Y27272921D01*
X37502353Y27276855D01*
X37486952Y27298553D01*
X37451514Y27307248D01*
X37412186Y27299206D01*
X37410172Y27298172D01*
X37383442Y27264809D01*
X37367377Y27204992D01*
X37363546Y27128497D01*
X37371310Y27056416D01*
X37377900Y27005093D01*
X37371043Y26976759D01*
X37347656Y26958525D01*
X37327506Y26949535D01*
X37317601Y26954818D01*
X37316329Y26981311D01*
X37322078Y27035950D01*
X37324722Y27057200D01*
X37333121Y27132126D01*
X37339360Y27202448D01*
X37341620Y27241500D01*
X37339964Y27285362D01*
X37325159Y27303382D01*
X37288172Y27306868D01*
X37250990Y27302093D01*
X37228668Y27281012D01*
X37210634Y27233492D01*
X37210232Y27232162D01*
X37197009Y27169321D01*
X37188201Y27091726D01*
X37186288Y27049464D01*
X37187184Y26987098D01*
X37194176Y26951791D01*
X37210561Y26933354D01*
X37226183Y26926184D01*
X37267513Y26910895D01*
X37221514Y26886526D01*
X37168965Y26856755D01*
X37133493Y26834902D01*
X37102491Y26818199D01*
X37091004Y26824772D01*
X37089811Y26833139D01*
X37095002Y26975433D01*
X37125479Y27129274D01*
X37177735Y27282416D01*
X37248262Y27422610D01*
X37267179Y27452460D01*
X37384893Y27598372D01*
X37530541Y27727633D01*
X37696449Y27834871D01*
X37874940Y27914713D01*
X37968137Y27943101D01*
X38102761Y27964887D01*
X38252433Y27967994D01*
X38406453Y27953820D01*
X38406453Y27953820D01*
G37*
X38406453Y27953820D02*
X38554117Y27923760D01*
X38684723Y27879210D01*
X38761038Y27839670D01*
X38815090Y27805808D01*
X38762581Y27778296D01*
X38730347Y27764023D01*
X38703668Y27764259D01*
X38670355Y27782166D01*
X38628415Y27813113D01*
X38556389Y27859596D01*
X38482462Y27893258D01*
X38416982Y27910281D01*
X38372211Y27907637D01*
X38349579Y27882259D01*
X38342794Y27850358D01*
X38349360Y27820842D01*
X38373906Y27794469D01*
X38423704Y27764469D01*
X38448721Y27751721D01*
X38504797Y27721537D01*
X38545420Y27695318D01*
X38560652Y27680397D01*
X38550267Y27659620D01*
X38516936Y27633533D01*
X38511585Y27630383D01*
X38473833Y27610806D01*
X38456016Y27611050D01*
X38446263Y27631349D01*
X38446158Y27631678D01*
X38424824Y27664062D01*
X38385979Y27700967D01*
X38379109Y27706226D01*
X38318005Y27737788D01*
X38269846Y27739363D01*
X38239646Y27717464D01*
X38232416Y27678605D01*
X38253169Y27629300D01*
X38289561Y27589858D01*
X38323097Y27556371D01*
X38336162Y27533317D01*
X38333456Y27528491D01*
X38312185Y27517127D01*
X38263911Y27489937D01*
X38193890Y27449928D01*
X38107379Y27400104D01*
X38009633Y27343470D01*
X37997279Y27336290D01*
X37679779Y27151693D01*
X37674107Y27223157D01*
X37663931Y27275420D01*
X37646137Y27312433D01*
X37642320Y27316294D01*
X37606674Y27328624D01*
X37567898Y27321293D01*
X37542459Y27299014D01*
X37539706Y27286933D01*
X37529211Y27262897D01*
X37521029Y27260176D01*
X37502881Y27272921D01*
X37502353Y27276855D01*
X37486952Y27298553D01*
X37451514Y27307248D01*
X37412186Y27299206D01*
X37410172Y27298172D01*
X37383442Y27264809D01*
X37367377Y27204992D01*
X37363546Y27128497D01*
X37371310Y27056416D01*
X37377900Y27005093D01*
X37371043Y26976759D01*
X37347656Y26958525D01*
X37327506Y26949535D01*
X37317601Y26954818D01*
X37316329Y26981311D01*
X37322078Y27035950D01*
X37324722Y27057200D01*
X37333121Y27132126D01*
X37339360Y27202448D01*
X37341620Y27241500D01*
X37339964Y27285362D01*
X37325159Y27303382D01*
X37288172Y27306868D01*
X37250990Y27302093D01*
X37228668Y27281012D01*
X37210634Y27233492D01*
X37210232Y27232162D01*
X37197009Y27169321D01*
X37188201Y27091726D01*
X37186288Y27049464D01*
X37187184Y26987098D01*
X37194176Y26951791D01*
X37210561Y26933354D01*
X37226183Y26926184D01*
X37267513Y26910895D01*
X37221514Y26886526D01*
X37168965Y26856755D01*
X37133493Y26834902D01*
X37102491Y26818199D01*
X37091004Y26824772D01*
X37089811Y26833139D01*
X37095002Y26975433D01*
X37125479Y27129274D01*
X37177735Y27282416D01*
X37248262Y27422610D01*
X37267179Y27452460D01*
X37384893Y27598372D01*
X37530541Y27727633D01*
X37696449Y27834871D01*
X37874940Y27914713D01*
X37968137Y27943101D01*
X38102761Y27964887D01*
X38252433Y27967994D01*
X38406453Y27953820D01*
G36*
X39759886Y27730917D02*
X39762206Y27719946D01*
X39746482Y27708134D01*
X39701137Y27679262D01*
X39628906Y27634929D01*
X39532527Y27576733D01*
X39414738Y27506273D01*
X39278275Y27425145D01*
X39125875Y27334950D01*
X38960277Y27237284D01*
X38784216Y27133746D01*
X38600431Y27025935D01*
X38411658Y26915448D01*
X38220634Y26803884D01*
X38030097Y26692841D01*
X37842784Y26583918D01*
X37661431Y26478712D01*
X37488777Y26378821D01*
X37327558Y26285845D01*
X37180512Y26201381D01*
X37050375Y26127027D01*
X36939885Y26064382D01*
X36851779Y26015044D01*
X36788794Y25980611D01*
X36753667Y25962681D01*
X36750058Y25961152D01*
X36724016Y25960601D01*
X36718125Y25983509D01*
X36727672Y26000100D01*
X36757774Y26026125D01*
X36810822Y26063145D01*
X36889209Y26112722D01*
X36995325Y26176418D01*
X37131562Y26255794D01*
X37161692Y26273146D01*
X37259032Y26329162D01*
X37384301Y26401319D01*
X37533087Y26487072D01*
X37700977Y26583875D01*
X37883556Y26689183D01*
X38076412Y26800451D01*
X38275131Y26915132D01*
X38475301Y27030682D01*
X38659309Y27136933D01*
X38841405Y27241885D01*
X39014275Y27341112D01*
X39175158Y27433056D01*
X39321297Y27516159D01*
X39449930Y27588864D01*
X39558298Y27649612D01*
X39643642Y27696847D01*
X39703201Y27729010D01*
X39734217Y27744544D01*
X39737875Y27745765D01*
X39759886Y27730917D01*
X39759886Y27730917D01*
G37*
X39759886Y27730917D02*
X39762206Y27719946D01*
X39746482Y27708134D01*
X39701137Y27679262D01*
X39628906Y27634929D01*
X39532527Y27576733D01*
X39414738Y27506273D01*
X39278275Y27425145D01*
X39125875Y27334950D01*
X38960277Y27237284D01*
X38784216Y27133746D01*
X38600431Y27025935D01*
X38411658Y26915448D01*
X38220634Y26803884D01*
X38030097Y26692841D01*
X37842784Y26583918D01*
X37661431Y26478712D01*
X37488777Y26378821D01*
X37327558Y26285845D01*
X37180512Y26201381D01*
X37050375Y26127027D01*
X36939885Y26064382D01*
X36851779Y26015044D01*
X36788794Y25980611D01*
X36753667Y25962681D01*
X36750058Y25961152D01*
X36724016Y25960601D01*
X36718125Y25983509D01*
X36727672Y26000100D01*
X36757774Y26026125D01*
X36810822Y26063145D01*
X36889209Y26112722D01*
X36995325Y26176418D01*
X37131562Y26255794D01*
X37161692Y26273146D01*
X37259032Y26329162D01*
X37384301Y26401319D01*
X37533087Y26487072D01*
X37700977Y26583875D01*
X37883556Y26689183D01*
X38076412Y26800451D01*
X38275131Y26915132D01*
X38475301Y27030682D01*
X38659309Y27136933D01*
X38841405Y27241885D01*
X39014275Y27341112D01*
X39175158Y27433056D01*
X39321297Y27516159D01*
X39449930Y27588864D01*
X39558298Y27649612D01*
X39643642Y27696847D01*
X39703201Y27729010D01*
X39734217Y27744544D01*
X39737875Y27745765D01*
X39759886Y27730917D01*
G36*
X38827637Y26823737D02*
X38989365Y26791186D01*
X39139231Y26728140D01*
X39228717Y26669885D01*
X39354406Y26551596D01*
X39450700Y26413781D01*
X39516555Y26261234D01*
X39550922Y26098754D01*
X39552757Y25931136D01*
X39521012Y25763178D01*
X39459934Y25609887D01*
X39408579Y25530584D01*
X39336227Y25445699D01*
X39254644Y25367582D01*
X39175601Y25308586D01*
X39169202Y25304746D01*
X39022183Y25237985D01*
X38861608Y25198985D01*
X38697415Y25188936D01*
X38539544Y25209032D01*
X38488428Y25223149D01*
X38330266Y25291851D01*
X38194927Y25386979D01*
X38084034Y25504205D01*
X37999209Y25639199D01*
X37942077Y25787635D01*
X37914261Y25945182D01*
X37917384Y26107513D01*
X37953070Y26270298D01*
X38022942Y26429209D01*
X38030893Y26443055D01*
X38087631Y26521317D01*
X38164569Y26603147D01*
X38249356Y26676775D01*
X38329639Y26730435D01*
X38336034Y26733787D01*
X38494497Y26795501D01*
X38660523Y26825330D01*
X38827637Y26823737D01*
X38827637Y26823737D01*
G37*
X38827637Y26823737D02*
X38989365Y26791186D01*
X39139231Y26728140D01*
X39228717Y26669885D01*
X39354406Y26551596D01*
X39450700Y26413781D01*
X39516555Y26261234D01*
X39550922Y26098754D01*
X39552757Y25931136D01*
X39521012Y25763178D01*
X39459934Y25609887D01*
X39408579Y25530584D01*
X39336227Y25445699D01*
X39254644Y25367582D01*
X39175601Y25308586D01*
X39169202Y25304746D01*
X39022183Y25237985D01*
X38861608Y25198985D01*
X38697415Y25188936D01*
X38539544Y25209032D01*
X38488428Y25223149D01*
X38330266Y25291851D01*
X38194927Y25386979D01*
X38084034Y25504205D01*
X37999209Y25639199D01*
X37942077Y25787635D01*
X37914261Y25945182D01*
X37917384Y26107513D01*
X37953070Y26270298D01*
X38022942Y26429209D01*
X38030893Y26443055D01*
X38087631Y26521317D01*
X38164569Y26603147D01*
X38249356Y26676775D01*
X38329639Y26730435D01*
X38336034Y26733787D01*
X38494497Y26795501D01*
X38660523Y26825330D01*
X38827637Y26823737D01*
G36*
X41168618Y30849747D02*
X41360436Y30837938D01*
X41545093Y30816347D01*
X41734731Y30783414D01*
X41941491Y30737576D01*
X42032614Y30715049D01*
X42252017Y30655412D01*
X42448980Y30592157D01*
X42638255Y30519865D01*
X42834595Y30433119D01*
X42946544Y30379441D01*
X43221904Y30235104D01*
X43470918Y30083512D01*
X43703287Y29917733D01*
X43928715Y29730832D01*
X44156905Y29515875D01*
X44161895Y29510913D01*
X44446227Y29202420D01*
X44698058Y28875592D01*
X44917217Y28530807D01*
X45103532Y28168438D01*
X45256832Y27788863D01*
X45376946Y27392455D01*
X45463702Y26979592D01*
X45516929Y26550647D01*
X45517847Y26539505D01*
X45527775Y26214905D01*
X45507138Y25876491D01*
X45457336Y25529774D01*
X45379768Y25180268D01*
X45275832Y24833486D01*
X45146928Y24494940D01*
X44994455Y24170142D01*
X44852306Y23917088D01*
X44635911Y23595335D01*
X44388184Y23287790D01*
X44113975Y22999391D01*
X43818136Y22735074D01*
X43505518Y22499774D01*
X43374459Y22413365D01*
X43253294Y22341420D01*
X43107792Y22262483D01*
X42948868Y22181917D01*
X42787437Y22105081D01*
X42634414Y22037337D01*
X42500713Y21984047D01*
X42499526Y21983610D01*
X42355603Y21935281D01*
X42186730Y21885838D01*
X42005075Y21838333D01*
X41822809Y21795814D01*
X41652100Y21761333D01*
X41536471Y21742221D01*
X41393164Y21725573D01*
X41230128Y21713224D01*
X41058487Y21705502D01*
X40889369Y21702735D01*
X40733897Y21705251D01*
X40603200Y21713380D01*
X40593309Y21714369D01*
X40188450Y21774023D01*
X39788929Y21867641D01*
X39399429Y21993627D01*
X39024628Y22150385D01*
X38669208Y22336321D01*
X38540541Y22414084D01*
X38230120Y22629534D01*
X37932529Y22876379D01*
X37652821Y23149482D01*
X37396049Y23443702D01*
X37167265Y23753903D01*
X37062694Y23917088D01*
X36892459Y24225339D01*
X36744448Y24551907D01*
X36620055Y24891275D01*
X36520674Y25237930D01*
X36447701Y25586357D01*
X36402530Y25931040D01*
X36398825Y26008853D01*
X36585019Y26008853D01*
X36589142Y25942262D01*
X36622416Y25882079D01*
X36663832Y25849110D01*
X36687296Y25837941D01*
X36708969Y25833249D01*
X36735065Y25837255D01*
X36771797Y25852179D01*
X36825379Y25880240D01*
X36902023Y25923659D01*
X36950362Y25951491D01*
X37033185Y25998860D01*
X37104071Y26038702D01*
X37156959Y26067662D01*
X37185786Y26082388D01*
X37189095Y26083559D01*
X37194936Y26066374D01*
X37202122Y26020601D01*
X37209382Y25954913D01*
X37211650Y25929478D01*
X37249363Y25680499D01*
X37319073Y25450770D01*
X37420820Y25240203D01*
X37554643Y25048711D01*
X37658535Y24934739D01*
X37840821Y24778781D01*
X38040024Y24654953D01*
X38252870Y24564150D01*
X38476089Y24507273D01*
X38706407Y24485219D01*
X38940554Y24498885D01*
X39119331Y24533786D01*
X39334533Y24607724D01*
X39535819Y24714424D01*
X39719686Y24850775D01*
X39882630Y25013666D01*
X40021149Y25199988D01*
X40131740Y25406629D01*
X40149562Y25448559D01*
X40200234Y25588855D01*
X40232713Y25722023D01*
X40249772Y25862908D01*
X40253938Y25999157D01*
X40343336Y25999157D01*
X40343653Y25845065D01*
X40344981Y25669409D01*
X40346697Y25497070D01*
X40348441Y25357758D01*
X40350496Y25247148D01*
X40353143Y25160914D01*
X40356665Y25094731D01*
X40361345Y25044274D01*
X40367465Y25005218D01*
X40375307Y24973238D01*
X40385155Y24944008D01*
X40393800Y24921852D01*
X40467429Y24787006D01*
X40569939Y24670743D01*
X40695292Y24578381D01*
X40837453Y24515233D01*
X40864570Y24507322D01*
X40934120Y24489250D01*
X40977036Y24480951D01*
X41002618Y24481998D01*
X41020166Y24491964D01*
X41028471Y24499794D01*
X41035384Y24518010D01*
X41040886Y24559121D01*
X41045077Y24625778D01*
X41048058Y24720636D01*
X41049930Y24846347D01*
X41050795Y25005564D01*
X41050882Y25088103D01*
X41050882Y25654000D01*
X41354375Y25654108D01*
X41510109Y25655615D01*
X41635788Y25660753D01*
X41738626Y25670629D01*
X41825836Y25686355D01*
X41904632Y25709038D01*
X41982227Y25739789D01*
X42017767Y25756123D01*
X42169151Y25847283D01*
X42299575Y25964477D01*
X42406276Y26102570D01*
X42486487Y26256423D01*
X42537445Y26420902D01*
X42556382Y26590869D01*
X42545223Y26735914D01*
X42496982Y26913813D01*
X42416814Y27076673D01*
X42308371Y27220683D01*
X42175303Y27342033D01*
X42021261Y27436912D01*
X41906899Y27480023D01*
X42618865Y27480023D01*
X42620881Y27451604D01*
X42628787Y27415482D01*
X42636387Y27383196D01*
X42688197Y27234863D01*
X42771875Y27102434D01*
X42883696Y26990493D01*
X43019930Y26903623D01*
X43030588Y26898454D01*
X43151985Y26840761D01*
X43574958Y26831020D01*
X43712370Y26827635D01*
X43817410Y26824295D01*
X43895055Y26820494D01*
X43950282Y26815729D01*
X43988068Y26809495D01*
X44013389Y26801288D01*
X44031224Y26790603D01*
X44039112Y26783971D01*
X44101404Y26706167D01*
X44128627Y26621159D01*
X44120782Y26534594D01*
X44077868Y26452122D01*
X44039096Y26410353D01*
X44026754Y26400614D01*
X44010854Y26392647D01*
X43987616Y26386209D01*
X43953262Y26381057D01*
X43904013Y26376948D01*
X43836090Y26373640D01*
X43745714Y26370889D01*
X43629106Y26368452D01*
X43482486Y26366087D01*
X43313471Y26363706D01*
X42629044Y26354368D01*
X42624122Y25720348D01*
X42622984Y25531606D01*
X42623083Y25375962D01*
X42624872Y25249171D01*
X42628808Y25146987D01*
X42635343Y25065164D01*
X42644933Y24999454D01*
X42658031Y24945614D01*
X42675094Y24899395D01*
X42696574Y24856553D01*
X42720920Y24816008D01*
X42810026Y24703811D01*
X42921426Y24608493D01*
X43045645Y24536825D01*
X43167955Y24496600D01*
X43206444Y24488311D01*
X43236756Y24483177D01*
X43259902Y24484983D01*
X43276895Y24497519D01*
X43288747Y24524573D01*
X43296470Y24569933D01*
X43301077Y24637385D01*
X43303578Y24730720D01*
X43304987Y24853724D01*
X43306316Y25010185D01*
X43306357Y25014580D01*
X43308075Y25150579D01*
X43310470Y25273573D01*
X43313383Y25378856D01*
X43316654Y25461721D01*
X43320125Y25517464D01*
X43323635Y25541379D01*
X43324238Y25541941D01*
X43340026Y25529234D01*
X43379149Y25493098D01*
X43438524Y25436514D01*
X43515070Y25362462D01*
X43605704Y25273921D01*
X43707344Y25173872D01*
X43804867Y25077262D01*
X43942117Y24941486D01*
X44056749Y24829910D01*
X44152185Y24739955D01*
X44231852Y24669047D01*
X44299174Y24614608D01*
X44357577Y24574063D01*
X44410485Y24544834D01*
X44461324Y24524345D01*
X44513519Y24510021D01*
X44570495Y24499284D01*
X44573976Y24498724D01*
X44699861Y24492272D01*
X44829563Y24509474D01*
X44952801Y24547358D01*
X45059293Y24602951D01*
X45125493Y24658151D01*
X45167459Y24702822D01*
X44674372Y25196172D01*
X44547467Y25323215D01*
X44444745Y25426443D01*
X44363972Y25508451D01*
X44302916Y25571832D01*
X44259343Y25619181D01*
X44231019Y25653092D01*
X44215712Y25676160D01*
X44211188Y25690978D01*
X44215215Y25700141D01*
X44225558Y25706243D01*
X44232814Y25709114D01*
X44270842Y25722467D01*
X44299295Y25725051D01*
X44328717Y25713506D01*
X44369653Y25684468D01*
X44409911Y25652647D01*
X44468183Y25609625D01*
X44512600Y25590496D01*
X44553836Y25595934D01*
X44602562Y25626613D01*
X44651975Y25667924D01*
X44732552Y25738044D01*
X44684603Y25864683D01*
X44660282Y25931209D01*
X44648831Y25973518D01*
X44649235Y26002068D01*
X44660481Y26027318D01*
X44667732Y26038752D01*
X44685665Y26062920D01*
X44706190Y26076029D01*
X44739083Y26080088D01*
X44794123Y26077109D01*
X44835951Y26073331D01*
X44973094Y26060480D01*
X45009001Y26142056D01*
X45042061Y26220295D01*
X45057778Y26274265D01*
X45054528Y26313582D01*
X45030687Y26347862D01*
X44984631Y26386720D01*
X44965177Y26401509D01*
X44908394Y26446993D01*
X44876563Y26481402D01*
X44863031Y26513566D01*
X44860882Y26539942D01*
X44863881Y26573325D01*
X44877933Y26597996D01*
X44910627Y26621546D01*
X44969549Y26651565D01*
X44975133Y26654239D01*
X45089384Y26708846D01*
X45078050Y26817284D01*
X45067251Y26899239D01*
X45050673Y26951749D01*
X45020905Y26982687D01*
X44970539Y26999926D01*
X44895818Y27010908D01*
X44809079Y27024526D01*
X44756610Y27044035D01*
X44735332Y27074618D01*
X44742170Y27121457D01*
X44774047Y27189735D01*
X44781507Y27203435D01*
X44812380Y27262306D01*
X44834236Y27309437D01*
X44842206Y27333978D01*
X44828721Y27363877D01*
X44794626Y27406517D01*
X44749455Y27452585D01*
X44702746Y27492767D01*
X44664035Y27517752D01*
X44650034Y27521647D01*
X44612101Y27512482D01*
X44558704Y27489202D01*
X44530352Y27473779D01*
X44466372Y27443988D01*
X44410431Y27431440D01*
X44397976Y27431757D01*
X44371954Y27436903D01*
X44355556Y27450382D01*
X44345105Y27480343D01*
X44336923Y27534936D01*
X44332138Y27577676D01*
X44323083Y27646989D01*
X44313080Y27701367D01*
X44304087Y27730457D01*
X44302933Y27732014D01*
X44273693Y27746050D01*
X44220917Y27760318D01*
X44158322Y27772309D01*
X44099625Y27779512D01*
X44058541Y27779420D01*
X44052345Y27777856D01*
X44027565Y27755585D01*
X43995848Y27710537D01*
X43973829Y27671216D01*
X43932422Y27604898D01*
X43890281Y27564256D01*
X43878472Y27558279D01*
X43848044Y27553713D01*
X43784821Y27549613D01*
X43693359Y27546105D01*
X43578214Y27543317D01*
X43443942Y27541377D01*
X43295099Y27540409D01*
X43234227Y27540324D01*
X43063288Y27540453D01*
X42926203Y27540229D01*
X42819475Y27538734D01*
X42739610Y27535048D01*
X42683111Y27528252D01*
X42646485Y27517429D01*
X42626234Y27501659D01*
X42618865Y27480023D01*
X41906899Y27480023D01*
X41849896Y27501511D01*
X41800220Y27513460D01*
X41745184Y27521240D01*
X41662579Y27527808D01*
X41557456Y27533164D01*
X41434870Y27537307D01*
X41299872Y27540238D01*
X41157517Y27541958D01*
X41012856Y27542465D01*
X40870943Y27541761D01*
X40736832Y27539846D01*
X40615574Y27536719D01*
X40512224Y27532381D01*
X40431834Y27526832D01*
X40379458Y27520072D01*
X40360775Y27513420D01*
X40352107Y27478450D01*
X40357325Y27419476D01*
X40374062Y27346131D01*
X40399954Y27268045D01*
X40432636Y27194848D01*
X40444109Y27174086D01*
X40512189Y27083523D01*
X40603915Y26996425D01*
X40706349Y26923779D01*
X40785646Y26884101D01*
X40824587Y26870038D01*
X40864725Y26859187D01*
X40912013Y26850946D01*
X40972405Y26844711D01*
X41051853Y26839881D01*
X41156309Y26835854D01*
X41291728Y26832026D01*
X41303015Y26831737D01*
X41449541Y26827378D01*
X41562619Y26822464D01*
X41646152Y26816674D01*
X41704044Y26809690D01*
X41740197Y26801191D01*
X41753744Y26794800D01*
X41813624Y26734808D01*
X41846249Y26658803D01*
X41851909Y26576001D01*
X41830891Y26495619D01*
X41783486Y26426872D01*
X41741168Y26394252D01*
X41723441Y26386009D01*
X41698500Y26379368D01*
X41662482Y26374163D01*
X41611527Y26370227D01*
X41541773Y26367391D01*
X41449358Y26365489D01*
X41330421Y26364353D01*
X41181100Y26363817D01*
X41036280Y26363706D01*
X40858116Y26363486D01*
X40713809Y26362736D01*
X40599865Y26361316D01*
X40512793Y26359091D01*
X40449097Y26355921D01*
X40405284Y26351670D01*
X40377862Y26346199D01*
X40363336Y26339371D01*
X40361016Y26337093D01*
X40354703Y26318505D01*
X40349841Y26278019D01*
X40346368Y26213033D01*
X40344220Y26120946D01*
X40343336Y25999157D01*
X40253938Y25999157D01*
X40254235Y26008853D01*
X40248700Y26169423D01*
X40230246Y26308890D01*
X40196099Y26442101D01*
X40149562Y26569147D01*
X40043176Y26782451D01*
X39907171Y26975962D01*
X39744778Y27145748D01*
X39559229Y27287879D01*
X39558491Y27288356D01*
X39490776Y27334273D01*
X39452947Y27365708D01*
X39441866Y27385634D01*
X39447270Y27393657D01*
X39473155Y27409408D01*
X39523764Y27439127D01*
X39591362Y27478301D01*
X39655386Y27515081D01*
X39730699Y27560191D01*
X39794395Y27602090D01*
X39838989Y27635621D01*
X39856158Y27653448D01*
X39873791Y27718381D01*
X39862202Y27780053D01*
X39826444Y27828945D01*
X39771565Y27855540D01*
X39747712Y27857824D01*
X39710301Y27848349D01*
X39648416Y27822109D01*
X39569105Y27782377D01*
X39486302Y27736426D01*
X39406474Y27690921D01*
X39337855Y27653189D01*
X39287087Y27626782D01*
X39260814Y27615256D01*
X39259361Y27615029D01*
X39238056Y27628294D01*
X39204184Y27661847D01*
X39187030Y27681698D01*
X39095458Y27773250D01*
X38977141Y27862247D01*
X38842479Y27942197D01*
X38701873Y28006604D01*
X38622941Y28033907D01*
X38405901Y28080624D01*
X38190904Y28090629D01*
X37980456Y28064562D01*
X37777066Y28003060D01*
X37583241Y27906764D01*
X37401490Y27776310D01*
X37319493Y27701960D01*
X37185405Y27546431D01*
X37080561Y27372217D01*
X37005973Y27184234D01*
X36962654Y26987401D01*
X36951617Y26786635D01*
X36973875Y26586855D01*
X37030440Y26392979D01*
X37043369Y26361364D01*
X37042234Y26344439D01*
X37022845Y26322471D01*
X36981029Y26292290D01*
X36912611Y26250726D01*
X36852529Y26216460D01*
X36750813Y26157886D01*
X36678008Y26112096D01*
X36629463Y26075479D01*
X36600525Y26044425D01*
X36586544Y26015324D01*
X36585019Y26008853D01*
X36398825Y26008853D01*
X36386556Y26266467D01*
X36397556Y26547205D01*
X36450996Y26977318D01*
X36537789Y27390896D01*
X36657808Y27787664D01*
X36810929Y28167347D01*
X36997024Y28529668D01*
X37215968Y28874353D01*
X37467635Y29201125D01*
X37751898Y29509711D01*
X37753105Y29510913D01*
X37981460Y29726546D01*
X38206846Y29913976D01*
X38438965Y30080135D01*
X38687520Y30231957D01*
X38962214Y30376378D01*
X38968456Y30379441D01*
X39174518Y30476041D01*
X39365700Y30555318D01*
X39556752Y30622687D01*
X39762426Y30683567D01*
X39882386Y30715049D01*
X40099503Y30766541D01*
X40294596Y30804499D01*
X40479803Y30830483D01*
X40667267Y30846055D01*
X40869128Y30852776D01*
X40957500Y30853336D01*
X41168618Y30849747D01*
X41168618Y30849747D01*
G37*
X41168618Y30849747D02*
X41360436Y30837938D01*
X41545093Y30816347D01*
X41734731Y30783414D01*
X41941491Y30737576D01*
X42032614Y30715049D01*
X42252017Y30655412D01*
X42448980Y30592157D01*
X42638255Y30519865D01*
X42834595Y30433119D01*
X42946544Y30379441D01*
X43221904Y30235104D01*
X43470918Y30083512D01*
X43703287Y29917733D01*
X43928715Y29730832D01*
X44156905Y29515875D01*
X44161895Y29510913D01*
X44446227Y29202420D01*
X44698058Y28875592D01*
X44917217Y28530807D01*
X45103532Y28168438D01*
X45256832Y27788863D01*
X45376946Y27392455D01*
X45463702Y26979592D01*
X45516929Y26550647D01*
X45517847Y26539505D01*
X45527775Y26214905D01*
X45507138Y25876491D01*
X45457336Y25529774D01*
X45379768Y25180268D01*
X45275832Y24833486D01*
X45146928Y24494940D01*
X44994455Y24170142D01*
X44852306Y23917088D01*
X44635911Y23595335D01*
X44388184Y23287790D01*
X44113975Y22999391D01*
X43818136Y22735074D01*
X43505518Y22499774D01*
X43374459Y22413365D01*
X43253294Y22341420D01*
X43107792Y22262483D01*
X42948868Y22181917D01*
X42787437Y22105081D01*
X42634414Y22037337D01*
X42500713Y21984047D01*
X42499526Y21983610D01*
X42355603Y21935281D01*
X42186730Y21885838D01*
X42005075Y21838333D01*
X41822809Y21795814D01*
X41652100Y21761333D01*
X41536471Y21742221D01*
X41393164Y21725573D01*
X41230128Y21713224D01*
X41058487Y21705502D01*
X40889369Y21702735D01*
X40733897Y21705251D01*
X40603200Y21713380D01*
X40593309Y21714369D01*
X40188450Y21774023D01*
X39788929Y21867641D01*
X39399429Y21993627D01*
X39024628Y22150385D01*
X38669208Y22336321D01*
X38540541Y22414084D01*
X38230120Y22629534D01*
X37932529Y22876379D01*
X37652821Y23149482D01*
X37396049Y23443702D01*
X37167265Y23753903D01*
X37062694Y23917088D01*
X36892459Y24225339D01*
X36744448Y24551907D01*
X36620055Y24891275D01*
X36520674Y25237930D01*
X36447701Y25586357D01*
X36402530Y25931040D01*
X36398825Y26008853D01*
X36585019Y26008853D01*
X36589142Y25942262D01*
X36622416Y25882079D01*
X36663832Y25849110D01*
X36687296Y25837941D01*
X36708969Y25833249D01*
X36735065Y25837255D01*
X36771797Y25852179D01*
X36825379Y25880240D01*
X36902023Y25923659D01*
X36950362Y25951491D01*
X37033185Y25998860D01*
X37104071Y26038702D01*
X37156959Y26067662D01*
X37185786Y26082388D01*
X37189095Y26083559D01*
X37194936Y26066374D01*
X37202122Y26020601D01*
X37209382Y25954913D01*
X37211650Y25929478D01*
X37249363Y25680499D01*
X37319073Y25450770D01*
X37420820Y25240203D01*
X37554643Y25048711D01*
X37658535Y24934739D01*
X37840821Y24778781D01*
X38040024Y24654953D01*
X38252870Y24564150D01*
X38476089Y24507273D01*
X38706407Y24485219D01*
X38940554Y24498885D01*
X39119331Y24533786D01*
X39334533Y24607724D01*
X39535819Y24714424D01*
X39719686Y24850775D01*
X39882630Y25013666D01*
X40021149Y25199988D01*
X40131740Y25406629D01*
X40149562Y25448559D01*
X40200234Y25588855D01*
X40232713Y25722023D01*
X40249772Y25862908D01*
X40253938Y25999157D01*
X40343336Y25999157D01*
X40343653Y25845065D01*
X40344981Y25669409D01*
X40346697Y25497070D01*
X40348441Y25357758D01*
X40350496Y25247148D01*
X40353143Y25160914D01*
X40356665Y25094731D01*
X40361345Y25044274D01*
X40367465Y25005218D01*
X40375307Y24973238D01*
X40385155Y24944008D01*
X40393800Y24921852D01*
X40467429Y24787006D01*
X40569939Y24670743D01*
X40695292Y24578381D01*
X40837453Y24515233D01*
X40864570Y24507322D01*
X40934120Y24489250D01*
X40977036Y24480951D01*
X41002618Y24481998D01*
X41020166Y24491964D01*
X41028471Y24499794D01*
X41035384Y24518010D01*
X41040886Y24559121D01*
X41045077Y24625778D01*
X41048058Y24720636D01*
X41049930Y24846347D01*
X41050795Y25005564D01*
X41050882Y25088103D01*
X41050882Y25654000D01*
X41354375Y25654108D01*
X41510109Y25655615D01*
X41635788Y25660753D01*
X41738626Y25670629D01*
X41825836Y25686355D01*
X41904632Y25709038D01*
X41982227Y25739789D01*
X42017767Y25756123D01*
X42169151Y25847283D01*
X42299575Y25964477D01*
X42406276Y26102570D01*
X42486487Y26256423D01*
X42537445Y26420902D01*
X42556382Y26590869D01*
X42545223Y26735914D01*
X42496982Y26913813D01*
X42416814Y27076673D01*
X42308371Y27220683D01*
X42175303Y27342033D01*
X42021261Y27436912D01*
X41906899Y27480023D01*
X42618865Y27480023D01*
X42620881Y27451604D01*
X42628787Y27415482D01*
X42636387Y27383196D01*
X42688197Y27234863D01*
X42771875Y27102434D01*
X42883696Y26990493D01*
X43019930Y26903623D01*
X43030588Y26898454D01*
X43151985Y26840761D01*
X43574958Y26831020D01*
X43712370Y26827635D01*
X43817410Y26824295D01*
X43895055Y26820494D01*
X43950282Y26815729D01*
X43988068Y26809495D01*
X44013389Y26801288D01*
X44031224Y26790603D01*
X44039112Y26783971D01*
X44101404Y26706167D01*
X44128627Y26621159D01*
X44120782Y26534594D01*
X44077868Y26452122D01*
X44039096Y26410353D01*
X44026754Y26400614D01*
X44010854Y26392647D01*
X43987616Y26386209D01*
X43953262Y26381057D01*
X43904013Y26376948D01*
X43836090Y26373640D01*
X43745714Y26370889D01*
X43629106Y26368452D01*
X43482486Y26366087D01*
X43313471Y26363706D01*
X42629044Y26354368D01*
X42624122Y25720348D01*
X42622984Y25531606D01*
X42623083Y25375962D01*
X42624872Y25249171D01*
X42628808Y25146987D01*
X42635343Y25065164D01*
X42644933Y24999454D01*
X42658031Y24945614D01*
X42675094Y24899395D01*
X42696574Y24856553D01*
X42720920Y24816008D01*
X42810026Y24703811D01*
X42921426Y24608493D01*
X43045645Y24536825D01*
X43167955Y24496600D01*
X43206444Y24488311D01*
X43236756Y24483177D01*
X43259902Y24484983D01*
X43276895Y24497519D01*
X43288747Y24524573D01*
X43296470Y24569933D01*
X43301077Y24637385D01*
X43303578Y24730720D01*
X43304987Y24853724D01*
X43306316Y25010185D01*
X43306357Y25014580D01*
X43308075Y25150579D01*
X43310470Y25273573D01*
X43313383Y25378856D01*
X43316654Y25461721D01*
X43320125Y25517464D01*
X43323635Y25541379D01*
X43324238Y25541941D01*
X43340026Y25529234D01*
X43379149Y25493098D01*
X43438524Y25436514D01*
X43515070Y25362462D01*
X43605704Y25273921D01*
X43707344Y25173872D01*
X43804867Y25077262D01*
X43942117Y24941486D01*
X44056749Y24829910D01*
X44152185Y24739955D01*
X44231852Y24669047D01*
X44299174Y24614608D01*
X44357577Y24574063D01*
X44410485Y24544834D01*
X44461324Y24524345D01*
X44513519Y24510021D01*
X44570495Y24499284D01*
X44573976Y24498724D01*
X44699861Y24492272D01*
X44829563Y24509474D01*
X44952801Y24547358D01*
X45059293Y24602951D01*
X45125493Y24658151D01*
X45167459Y24702822D01*
X44674372Y25196172D01*
X44547467Y25323215D01*
X44444745Y25426443D01*
X44363972Y25508451D01*
X44302916Y25571832D01*
X44259343Y25619181D01*
X44231019Y25653092D01*
X44215712Y25676160D01*
X44211188Y25690978D01*
X44215215Y25700141D01*
X44225558Y25706243D01*
X44232814Y25709114D01*
X44270842Y25722467D01*
X44299295Y25725051D01*
X44328717Y25713506D01*
X44369653Y25684468D01*
X44409911Y25652647D01*
X44468183Y25609625D01*
X44512600Y25590496D01*
X44553836Y25595934D01*
X44602562Y25626613D01*
X44651975Y25667924D01*
X44732552Y25738044D01*
X44684603Y25864683D01*
X44660282Y25931209D01*
X44648831Y25973518D01*
X44649235Y26002068D01*
X44660481Y26027318D01*
X44667732Y26038752D01*
X44685665Y26062920D01*
X44706190Y26076029D01*
X44739083Y26080088D01*
X44794123Y26077109D01*
X44835951Y26073331D01*
X44973094Y26060480D01*
X45009001Y26142056D01*
X45042061Y26220295D01*
X45057778Y26274265D01*
X45054528Y26313582D01*
X45030687Y26347862D01*
X44984631Y26386720D01*
X44965177Y26401509D01*
X44908394Y26446993D01*
X44876563Y26481402D01*
X44863031Y26513566D01*
X44860882Y26539942D01*
X44863881Y26573325D01*
X44877933Y26597996D01*
X44910627Y26621546D01*
X44969549Y26651565D01*
X44975133Y26654239D01*
X45089384Y26708846D01*
X45078050Y26817284D01*
X45067251Y26899239D01*
X45050673Y26951749D01*
X45020905Y26982687D01*
X44970539Y26999926D01*
X44895818Y27010908D01*
X44809079Y27024526D01*
X44756610Y27044035D01*
X44735332Y27074618D01*
X44742170Y27121457D01*
X44774047Y27189735D01*
X44781507Y27203435D01*
X44812380Y27262306D01*
X44834236Y27309437D01*
X44842206Y27333978D01*
X44828721Y27363877D01*
X44794626Y27406517D01*
X44749455Y27452585D01*
X44702746Y27492767D01*
X44664035Y27517752D01*
X44650034Y27521647D01*
X44612101Y27512482D01*
X44558704Y27489202D01*
X44530352Y27473779D01*
X44466372Y27443988D01*
X44410431Y27431440D01*
X44397976Y27431757D01*
X44371954Y27436903D01*
X44355556Y27450382D01*
X44345105Y27480343D01*
X44336923Y27534936D01*
X44332138Y27577676D01*
X44323083Y27646989D01*
X44313080Y27701367D01*
X44304087Y27730457D01*
X44302933Y27732014D01*
X44273693Y27746050D01*
X44220917Y27760318D01*
X44158322Y27772309D01*
X44099625Y27779512D01*
X44058541Y27779420D01*
X44052345Y27777856D01*
X44027565Y27755585D01*
X43995848Y27710537D01*
X43973829Y27671216D01*
X43932422Y27604898D01*
X43890281Y27564256D01*
X43878472Y27558279D01*
X43848044Y27553713D01*
X43784821Y27549613D01*
X43693359Y27546105D01*
X43578214Y27543317D01*
X43443942Y27541377D01*
X43295099Y27540409D01*
X43234227Y27540324D01*
X43063288Y27540453D01*
X42926203Y27540229D01*
X42819475Y27538734D01*
X42739610Y27535048D01*
X42683111Y27528252D01*
X42646485Y27517429D01*
X42626234Y27501659D01*
X42618865Y27480023D01*
X41906899Y27480023D01*
X41849896Y27501511D01*
X41800220Y27513460D01*
X41745184Y27521240D01*
X41662579Y27527808D01*
X41557456Y27533164D01*
X41434870Y27537307D01*
X41299872Y27540238D01*
X41157517Y27541958D01*
X41012856Y27542465D01*
X40870943Y27541761D01*
X40736832Y27539846D01*
X40615574Y27536719D01*
X40512224Y27532381D01*
X40431834Y27526832D01*
X40379458Y27520072D01*
X40360775Y27513420D01*
X40352107Y27478450D01*
X40357325Y27419476D01*
X40374062Y27346131D01*
X40399954Y27268045D01*
X40432636Y27194848D01*
X40444109Y27174086D01*
X40512189Y27083523D01*
X40603915Y26996425D01*
X40706349Y26923779D01*
X40785646Y26884101D01*
X40824587Y26870038D01*
X40864725Y26859187D01*
X40912013Y26850946D01*
X40972405Y26844711D01*
X41051853Y26839881D01*
X41156309Y26835854D01*
X41291728Y26832026D01*
X41303015Y26831737D01*
X41449541Y26827378D01*
X41562619Y26822464D01*
X41646152Y26816674D01*
X41704044Y26809690D01*
X41740197Y26801191D01*
X41753744Y26794800D01*
X41813624Y26734808D01*
X41846249Y26658803D01*
X41851909Y26576001D01*
X41830891Y26495619D01*
X41783486Y26426872D01*
X41741168Y26394252D01*
X41723441Y26386009D01*
X41698500Y26379368D01*
X41662482Y26374163D01*
X41611527Y26370227D01*
X41541773Y26367391D01*
X41449358Y26365489D01*
X41330421Y26364353D01*
X41181100Y26363817D01*
X41036280Y26363706D01*
X40858116Y26363486D01*
X40713809Y26362736D01*
X40599865Y26361316D01*
X40512793Y26359091D01*
X40449097Y26355921D01*
X40405284Y26351670D01*
X40377862Y26346199D01*
X40363336Y26339371D01*
X40361016Y26337093D01*
X40354703Y26318505D01*
X40349841Y26278019D01*
X40346368Y26213033D01*
X40344220Y26120946D01*
X40343336Y25999157D01*
X40253938Y25999157D01*
X40254235Y26008853D01*
X40248700Y26169423D01*
X40230246Y26308890D01*
X40196099Y26442101D01*
X40149562Y26569147D01*
X40043176Y26782451D01*
X39907171Y26975962D01*
X39744778Y27145748D01*
X39559229Y27287879D01*
X39558491Y27288356D01*
X39490776Y27334273D01*
X39452947Y27365708D01*
X39441866Y27385634D01*
X39447270Y27393657D01*
X39473155Y27409408D01*
X39523764Y27439127D01*
X39591362Y27478301D01*
X39655386Y27515081D01*
X39730699Y27560191D01*
X39794395Y27602090D01*
X39838989Y27635621D01*
X39856158Y27653448D01*
X39873791Y27718381D01*
X39862202Y27780053D01*
X39826444Y27828945D01*
X39771565Y27855540D01*
X39747712Y27857824D01*
X39710301Y27848349D01*
X39648416Y27822109D01*
X39569105Y27782377D01*
X39486302Y27736426D01*
X39406474Y27690921D01*
X39337855Y27653189D01*
X39287087Y27626782D01*
X39260814Y27615256D01*
X39259361Y27615029D01*
X39238056Y27628294D01*
X39204184Y27661847D01*
X39187030Y27681698D01*
X39095458Y27773250D01*
X38977141Y27862247D01*
X38842479Y27942197D01*
X38701873Y28006604D01*
X38622941Y28033907D01*
X38405901Y28080624D01*
X38190904Y28090629D01*
X37980456Y28064562D01*
X37777066Y28003060D01*
X37583241Y27906764D01*
X37401490Y27776310D01*
X37319493Y27701960D01*
X37185405Y27546431D01*
X37080561Y27372217D01*
X37005973Y27184234D01*
X36962654Y26987401D01*
X36951617Y26786635D01*
X36973875Y26586855D01*
X37030440Y26392979D01*
X37043369Y26361364D01*
X37042234Y26344439D01*
X37022845Y26322471D01*
X36981029Y26292290D01*
X36912611Y26250726D01*
X36852529Y26216460D01*
X36750813Y26157886D01*
X36678008Y26112096D01*
X36629463Y26075479D01*
X36600525Y26044425D01*
X36586544Y26015324D01*
X36585019Y26008853D01*
X36398825Y26008853D01*
X36386556Y26266467D01*
X36397556Y26547205D01*
X36450996Y26977318D01*
X36537789Y27390896D01*
X36657808Y27787664D01*
X36810929Y28167347D01*
X36997024Y28529668D01*
X37215968Y28874353D01*
X37467635Y29201125D01*
X37751898Y29509711D01*
X37753105Y29510913D01*
X37981460Y29726546D01*
X38206846Y29913976D01*
X38438965Y30080135D01*
X38687520Y30231957D01*
X38962214Y30376378D01*
X38968456Y30379441D01*
X39174518Y30476041D01*
X39365700Y30555318D01*
X39556752Y30622687D01*
X39762426Y30683567D01*
X39882386Y30715049D01*
X40099503Y30766541D01*
X40294596Y30804499D01*
X40479803Y30830483D01*
X40667267Y30846055D01*
X40869128Y30852776D01*
X40957500Y30853336D01*
X41168618Y30849747D01*
G04 #@! TD*
G04 #@! TO.C,A1*
D14*
X25154095Y60491620D02*
X25154095Y59682096D01*
X25201714Y59586858D01*
X25249333Y59539239D01*
X25344571Y59491620D01*
X25535047Y59491620D01*
X25630285Y59539239D01*
X25677904Y59586858D01*
X25725523Y59682096D01*
X25725523Y60491620D01*
X26154095Y59539239D02*
X26296952Y59491620D01*
X26535047Y59491620D01*
X26630285Y59539239D01*
X26677904Y59586858D01*
X26725523Y59682096D01*
X26725523Y59777334D01*
X26677904Y59872572D01*
X26630285Y59920191D01*
X26535047Y59967810D01*
X26344571Y60015429D01*
X26249333Y60063048D01*
X26201714Y60110667D01*
X26154095Y60205905D01*
X26154095Y60301143D01*
X26201714Y60396381D01*
X26249333Y60444000D01*
X26344571Y60491620D01*
X26582666Y60491620D01*
X26725523Y60444000D01*
X27487428Y60015429D02*
X27630285Y59967810D01*
X27677904Y59920191D01*
X27725523Y59824953D01*
X27725523Y59682096D01*
X27677904Y59586858D01*
X27630285Y59539239D01*
X27535047Y59491620D01*
X27154095Y59491620D01*
X27154095Y60491620D01*
X27487428Y60491620D01*
X27582666Y60444000D01*
X27630285Y60396381D01*
X27677904Y60301143D01*
X27677904Y60205905D01*
X27630285Y60110667D01*
X27582666Y60063048D01*
X27487428Y60015429D01*
X27154095Y60015429D01*
G04 #@! TO.C,C2*
D11*
X24741142Y14184334D02*
X24788761Y14136715D01*
X24836380Y13993858D01*
X24836380Y13898620D01*
X24788761Y13755762D01*
X24693523Y13660524D01*
X24598285Y13612905D01*
X24407809Y13565286D01*
X24264952Y13565286D01*
X24074476Y13612905D01*
X23979238Y13660524D01*
X23884000Y13755762D01*
X23836380Y13898620D01*
X23836380Y13993858D01*
X23884000Y14136715D01*
X23931619Y14184334D01*
X23931619Y14565286D02*
X23884000Y14612905D01*
X23836380Y14708143D01*
X23836380Y14946239D01*
X23884000Y15041477D01*
X23931619Y15089096D01*
X24026857Y15136715D01*
X24122095Y15136715D01*
X24264952Y15089096D01*
X24836380Y14517667D01*
X24836380Y15136715D01*
G04 #@! TO.C,C3*
X38457142Y14184334D02*
X38504761Y14136715D01*
X38552380Y13993858D01*
X38552380Y13898620D01*
X38504761Y13755762D01*
X38409523Y13660524D01*
X38314285Y13612905D01*
X38123809Y13565286D01*
X37980952Y13565286D01*
X37790476Y13612905D01*
X37695238Y13660524D01*
X37600000Y13755762D01*
X37552380Y13898620D01*
X37552380Y13993858D01*
X37600000Y14136715D01*
X37647619Y14184334D01*
X37552380Y14517667D02*
X37552380Y15136715D01*
X37933333Y14803381D01*
X37933333Y14946239D01*
X37980952Y15041477D01*
X38028571Y15089096D01*
X38123809Y15136715D01*
X38361904Y15136715D01*
X38457142Y15089096D01*
X38504761Y15041477D01*
X38552380Y14946239D01*
X38552380Y14660524D01*
X38504761Y14565286D01*
X38457142Y14517667D01*
G04 #@! TO.C,C1*
X11025142Y14184334D02*
X11072761Y14136715D01*
X11120380Y13993858D01*
X11120380Y13898620D01*
X11072761Y13755762D01*
X10977523Y13660524D01*
X10882285Y13612905D01*
X10691809Y13565286D01*
X10548952Y13565286D01*
X10358476Y13612905D01*
X10263238Y13660524D01*
X10168000Y13755762D01*
X10120380Y13898620D01*
X10120380Y13993858D01*
X10168000Y14136715D01*
X10215619Y14184334D01*
X11120380Y15136715D02*
X11120380Y14565286D01*
X11120380Y14851000D02*
X10120380Y14851000D01*
X10263238Y14755762D01*
X10358476Y14660524D01*
X10406095Y14565286D01*
G04 #@! TO.C,*
G04 #@! TO.C,VESC2*
X1875285Y40104429D02*
X2625285Y40354429D01*
X1875285Y40604429D01*
X2232428Y40854429D02*
X2232428Y41104429D01*
X2625285Y41211572D02*
X2625285Y40854429D01*
X1875285Y40854429D01*
X1875285Y41211572D01*
X2589571Y41497286D02*
X2625285Y41604429D01*
X2625285Y41783000D01*
X2589571Y41854429D01*
X2553857Y41890143D01*
X2482428Y41925858D01*
X2411000Y41925858D01*
X2339571Y41890143D01*
X2303857Y41854429D01*
X2268142Y41783000D01*
X2232428Y41640143D01*
X2196714Y41568715D01*
X2161000Y41533000D01*
X2089571Y41497286D01*
X2018142Y41497286D01*
X1946714Y41533000D01*
X1911000Y41568715D01*
X1875285Y41640143D01*
X1875285Y41818715D01*
X1911000Y41925858D01*
X2553857Y42675858D02*
X2589571Y42640143D01*
X2625285Y42533000D01*
X2625285Y42461572D01*
X2589571Y42354429D01*
X2518142Y42283000D01*
X2446714Y42247286D01*
X2303857Y42211572D01*
X2196714Y42211572D01*
X2053857Y42247286D01*
X1982428Y42283000D01*
X1911000Y42354429D01*
X1875285Y42461572D01*
X1875285Y42533000D01*
X1911000Y42640143D01*
X1946714Y42675858D01*
X1946714Y42961572D02*
X1911000Y42997286D01*
X1875285Y43068715D01*
X1875285Y43247286D01*
X1911000Y43318715D01*
X1946714Y43354429D01*
X2018142Y43390143D01*
X2089571Y43390143D01*
X2196714Y43354429D01*
X2625285Y42925858D01*
X2625285Y43390143D01*
G04 #@! TO.C,VESC1*
X1875285Y50010429D02*
X2625285Y50260429D01*
X1875285Y50510429D01*
X2232428Y50760429D02*
X2232428Y51010429D01*
X2625285Y51117572D02*
X2625285Y50760429D01*
X1875285Y50760429D01*
X1875285Y51117572D01*
X2589571Y51403286D02*
X2625285Y51510429D01*
X2625285Y51689000D01*
X2589571Y51760429D01*
X2553857Y51796143D01*
X2482428Y51831858D01*
X2411000Y51831858D01*
X2339571Y51796143D01*
X2303857Y51760429D01*
X2268142Y51689000D01*
X2232428Y51546143D01*
X2196714Y51474715D01*
X2161000Y51439000D01*
X2089571Y51403286D01*
X2018142Y51403286D01*
X1946714Y51439000D01*
X1911000Y51474715D01*
X1875285Y51546143D01*
X1875285Y51724715D01*
X1911000Y51831858D01*
X2553857Y52581858D02*
X2589571Y52546143D01*
X2625285Y52439000D01*
X2625285Y52367572D01*
X2589571Y52260429D01*
X2518142Y52189000D01*
X2446714Y52153286D01*
X2303857Y52117572D01*
X2196714Y52117572D01*
X2053857Y52153286D01*
X1982428Y52189000D01*
X1911000Y52260429D01*
X1875285Y52367572D01*
X1875285Y52439000D01*
X1911000Y52546143D01*
X1946714Y52581858D01*
X2625285Y53296143D02*
X2625285Y52867572D01*
X2625285Y53081858D02*
X1875285Y53081858D01*
X1982428Y53010429D01*
X2053857Y52939000D01*
X2089571Y52867572D01*
G04 #@! TO.C,PANEL*
X9596380Y60031572D02*
X8596380Y60031572D01*
X8596380Y60412524D01*
X8644000Y60507762D01*
X8691619Y60555381D01*
X8786857Y60603000D01*
X8929714Y60603000D01*
X9024952Y60555381D01*
X9072571Y60507762D01*
X9120190Y60412524D01*
X9120190Y60031572D01*
X9310666Y60983953D02*
X9310666Y61460143D01*
X9596380Y60888715D02*
X8596380Y61222048D01*
X9596380Y61555381D01*
X9596380Y61888715D02*
X8596380Y61888715D01*
X9596380Y62460143D01*
X8596380Y62460143D01*
X9072571Y62936334D02*
X9072571Y63269667D01*
X9596380Y63412524D02*
X9596380Y62936334D01*
X8596380Y62936334D01*
X8596380Y63412524D01*
X9596380Y64317286D02*
X9596380Y63841096D01*
X8596380Y63841096D01*
G04 #@! TO.C,Amper\00EDmetro1*
X2007219Y56716634D02*
X2483409Y56716634D01*
X1911980Y56430920D02*
X2245314Y57430920D01*
X2578647Y56430920D01*
X2911980Y56430920D02*
X2911980Y57097586D01*
X2911980Y57002348D02*
X2959600Y57049967D01*
X3054838Y57097586D01*
X3197695Y57097586D01*
X3292933Y57049967D01*
X3340552Y56954729D01*
X3340552Y56430920D01*
X3340552Y56954729D02*
X3388171Y57049967D01*
X3483409Y57097586D01*
X3626266Y57097586D01*
X3721504Y57049967D01*
X3769123Y56954729D01*
X3769123Y56430920D01*
X4245314Y57097586D02*
X4245314Y56097586D01*
X4245314Y57049967D02*
X4340552Y57097586D01*
X4531028Y57097586D01*
X4626266Y57049967D01*
X4673885Y57002348D01*
X4721504Y56907110D01*
X4721504Y56621396D01*
X4673885Y56526158D01*
X4626266Y56478539D01*
X4531028Y56430920D01*
X4340552Y56430920D01*
X4245314Y56478539D01*
X5531028Y56478539D02*
X5435790Y56430920D01*
X5245314Y56430920D01*
X5150076Y56478539D01*
X5102457Y56573777D01*
X5102457Y56954729D01*
X5150076Y57049967D01*
X5245314Y57097586D01*
X5435790Y57097586D01*
X5531028Y57049967D01*
X5578647Y56954729D01*
X5578647Y56859491D01*
X5102457Y56764253D01*
X6007219Y56430920D02*
X6007219Y57097586D01*
X6007219Y56907110D02*
X6054838Y57002348D01*
X6102457Y57049967D01*
X6197695Y57097586D01*
X6292933Y57097586D01*
X6626266Y56430920D02*
X6626266Y57097586D01*
X6721504Y57478539D02*
X6578647Y57335681D01*
X7102457Y56430920D02*
X7102457Y57097586D01*
X7102457Y57002348D02*
X7150076Y57049967D01*
X7245314Y57097586D01*
X7388171Y57097586D01*
X7483409Y57049967D01*
X7531028Y56954729D01*
X7531028Y56430920D01*
X7531028Y56954729D02*
X7578647Y57049967D01*
X7673885Y57097586D01*
X7816742Y57097586D01*
X7911980Y57049967D01*
X7959600Y56954729D01*
X7959600Y56430920D01*
X8816742Y56478539D02*
X8721504Y56430920D01*
X8531028Y56430920D01*
X8435790Y56478539D01*
X8388171Y56573777D01*
X8388171Y56954729D01*
X8435790Y57049967D01*
X8531028Y57097586D01*
X8721504Y57097586D01*
X8816742Y57049967D01*
X8864361Y56954729D01*
X8864361Y56859491D01*
X8388171Y56764253D01*
X9150076Y57097586D02*
X9531028Y57097586D01*
X9292933Y57430920D02*
X9292933Y56573777D01*
X9340552Y56478539D01*
X9435790Y56430920D01*
X9531028Y56430920D01*
X9864361Y56430920D02*
X9864361Y57097586D01*
X9864361Y56907110D02*
X9911980Y57002348D01*
X9959600Y57049967D01*
X10054838Y57097586D01*
X10150076Y57097586D01*
X10626266Y56430920D02*
X10531028Y56478539D01*
X10483409Y56526158D01*
X10435790Y56621396D01*
X10435790Y56907110D01*
X10483409Y57002348D01*
X10531028Y57049967D01*
X10626266Y57097586D01*
X10769123Y57097586D01*
X10864361Y57049967D01*
X10911980Y57002348D01*
X10959600Y56907110D01*
X10959600Y56621396D01*
X10911980Y56526158D01*
X10864361Y56478539D01*
X10769123Y56430920D01*
X10626266Y56430920D01*
X11911980Y56430920D02*
X11340552Y56430920D01*
X11626266Y56430920D02*
X11626266Y57430920D01*
X11531028Y57288062D01*
X11435790Y57192824D01*
X11340552Y57145205D01*
G04 #@! TO.C,Batt_Aux1*
X46664571Y13795762D02*
X46712190Y13938620D01*
X46759809Y13986239D01*
X46855047Y14033858D01*
X46997904Y14033858D01*
X47093142Y13986239D01*
X47140761Y13938620D01*
X47188380Y13843381D01*
X47188380Y13462429D01*
X46188380Y13462429D01*
X46188380Y13795762D01*
X46236000Y13891000D01*
X46283619Y13938620D01*
X46378857Y13986239D01*
X46474095Y13986239D01*
X46569333Y13938620D01*
X46616952Y13891000D01*
X46664571Y13795762D01*
X46664571Y13462429D01*
X47188380Y14891000D02*
X46664571Y14891000D01*
X46569333Y14843381D01*
X46521714Y14748143D01*
X46521714Y14557667D01*
X46569333Y14462429D01*
X47140761Y14891000D02*
X47188380Y14795762D01*
X47188380Y14557667D01*
X47140761Y14462429D01*
X47045523Y14414810D01*
X46950285Y14414810D01*
X46855047Y14462429D01*
X46807428Y14557667D01*
X46807428Y14795762D01*
X46759809Y14891000D01*
X46521714Y15224334D02*
X46521714Y15605286D01*
X46188380Y15367191D02*
X47045523Y15367191D01*
X47140761Y15414810D01*
X47188380Y15510048D01*
X47188380Y15605286D01*
X46521714Y15795762D02*
X46521714Y16176715D01*
X46188380Y15938620D02*
X47045523Y15938620D01*
X47140761Y15986239D01*
X47188380Y16081477D01*
X47188380Y16176715D01*
X47283619Y16271953D02*
X47283619Y17033858D01*
X46902666Y17224334D02*
X46902666Y17700524D01*
X47188380Y17129096D02*
X46188380Y17462429D01*
X47188380Y17795762D01*
X46521714Y18557667D02*
X47188380Y18557667D01*
X46521714Y18129096D02*
X47045523Y18129096D01*
X47140761Y18176715D01*
X47188380Y18271953D01*
X47188380Y18414810D01*
X47140761Y18510048D01*
X47093142Y18557667D01*
X47188380Y18938620D02*
X46521714Y19462429D01*
X46521714Y18938620D02*
X47188380Y19462429D01*
X47188380Y20367191D02*
X47188380Y19795762D01*
X47188380Y20081477D02*
X46188380Y20081477D01*
X46331238Y19986239D01*
X46426476Y19891000D01*
X46474095Y19795762D01*
G04 #@! TO.C,C4*
X17006842Y57275434D02*
X17054461Y57227815D01*
X17102080Y57084958D01*
X17102080Y56989720D01*
X17054461Y56846862D01*
X16959223Y56751624D01*
X16863985Y56704005D01*
X16673509Y56656386D01*
X16530652Y56656386D01*
X16340176Y56704005D01*
X16244938Y56751624D01*
X16149700Y56846862D01*
X16102080Y56989720D01*
X16102080Y57084958D01*
X16149700Y57227815D01*
X16197319Y57275434D01*
X16435414Y58132577D02*
X17102080Y58132577D01*
X16054461Y57894481D02*
X16768747Y57656386D01*
X16768747Y58275434D01*
G04 #@! TO.C,C5*
X10907733Y49172858D02*
X10860114Y49125239D01*
X10717257Y49077620D01*
X10622019Y49077620D01*
X10479161Y49125239D01*
X10383923Y49220477D01*
X10336304Y49315715D01*
X10288685Y49506191D01*
X10288685Y49649048D01*
X10336304Y49839524D01*
X10383923Y49934762D01*
X10479161Y50030000D01*
X10622019Y50077620D01*
X10717257Y50077620D01*
X10860114Y50030000D01*
X10907733Y49982381D01*
X11812495Y50077620D02*
X11336304Y50077620D01*
X11288685Y49601429D01*
X11336304Y49649048D01*
X11431542Y49696667D01*
X11669638Y49696667D01*
X11764876Y49649048D01*
X11812495Y49601429D01*
X11860114Y49506191D01*
X11860114Y49268096D01*
X11812495Y49172858D01*
X11764876Y49125239D01*
X11669638Y49077620D01*
X11431542Y49077620D01*
X11336304Y49125239D01*
X11288685Y49172858D01*
G04 #@! TO.C,ENCODERS1*
X46664571Y30504334D02*
X46664571Y30837667D01*
X47188380Y30980524D02*
X47188380Y30504334D01*
X46188380Y30504334D01*
X46188380Y30980524D01*
X47188380Y31409096D02*
X46188380Y31409096D01*
X47188380Y31980524D01*
X46188380Y31980524D01*
X47093142Y33028143D02*
X47140761Y32980524D01*
X47188380Y32837667D01*
X47188380Y32742429D01*
X47140761Y32599572D01*
X47045523Y32504334D01*
X46950285Y32456715D01*
X46759809Y32409096D01*
X46616952Y32409096D01*
X46426476Y32456715D01*
X46331238Y32504334D01*
X46236000Y32599572D01*
X46188380Y32742429D01*
X46188380Y32837667D01*
X46236000Y32980524D01*
X46283619Y33028143D01*
X46188380Y33647191D02*
X46188380Y33837667D01*
X46236000Y33932905D01*
X46331238Y34028143D01*
X46521714Y34075762D01*
X46855047Y34075762D01*
X47045523Y34028143D01*
X47140761Y33932905D01*
X47188380Y33837667D01*
X47188380Y33647191D01*
X47140761Y33551953D01*
X47045523Y33456715D01*
X46855047Y33409096D01*
X46521714Y33409096D01*
X46331238Y33456715D01*
X46236000Y33551953D01*
X46188380Y33647191D01*
X47188380Y34504334D02*
X46188380Y34504334D01*
X46188380Y34742429D01*
X46236000Y34885286D01*
X46331238Y34980524D01*
X46426476Y35028143D01*
X46616952Y35075762D01*
X46759809Y35075762D01*
X46950285Y35028143D01*
X47045523Y34980524D01*
X47140761Y34885286D01*
X47188380Y34742429D01*
X47188380Y34504334D01*
X46664571Y35504334D02*
X46664571Y35837667D01*
X47188380Y35980524D02*
X47188380Y35504334D01*
X46188380Y35504334D01*
X46188380Y35980524D01*
X47188380Y36980524D02*
X46712190Y36647191D01*
X47188380Y36409096D02*
X46188380Y36409096D01*
X46188380Y36790048D01*
X46236000Y36885286D01*
X46283619Y36932905D01*
X46378857Y36980524D01*
X46521714Y36980524D01*
X46616952Y36932905D01*
X46664571Y36885286D01*
X46712190Y36790048D01*
X46712190Y36409096D01*
X47140761Y37361477D02*
X47188380Y37504334D01*
X47188380Y37742429D01*
X47140761Y37837667D01*
X47093142Y37885286D01*
X46997904Y37932905D01*
X46902666Y37932905D01*
X46807428Y37885286D01*
X46759809Y37837667D01*
X46712190Y37742429D01*
X46664571Y37551953D01*
X46616952Y37456715D01*
X46569333Y37409096D01*
X46474095Y37361477D01*
X46378857Y37361477D01*
X46283619Y37409096D01*
X46236000Y37456715D01*
X46188380Y37551953D01*
X46188380Y37790048D01*
X46236000Y37932905D01*
X47188380Y38885286D02*
X47188380Y38313858D01*
X47188380Y38599572D02*
X46188380Y38599572D01*
X46331238Y38504334D01*
X46426476Y38409096D01*
X46474095Y38313858D01*
G04 #@! TO.C,Ibus1*
X47188380Y22725286D02*
X46188380Y22725286D01*
X47188380Y23201477D02*
X46188380Y23201477D01*
X46569333Y23201477D02*
X46521714Y23296715D01*
X46521714Y23487191D01*
X46569333Y23582429D01*
X46616952Y23630048D01*
X46712190Y23677667D01*
X46997904Y23677667D01*
X47093142Y23630048D01*
X47140761Y23582429D01*
X47188380Y23487191D01*
X47188380Y23296715D01*
X47140761Y23201477D01*
X46521714Y24534810D02*
X47188380Y24534810D01*
X46521714Y24106239D02*
X47045523Y24106239D01*
X47140761Y24153858D01*
X47188380Y24249096D01*
X47188380Y24391953D01*
X47140761Y24487191D01*
X47093142Y24534810D01*
X47140761Y24963381D02*
X47188380Y25058620D01*
X47188380Y25249096D01*
X47140761Y25344334D01*
X47045523Y25391953D01*
X46997904Y25391953D01*
X46902666Y25344334D01*
X46855047Y25249096D01*
X46855047Y25106239D01*
X46807428Y25011000D01*
X46712190Y24963381D01*
X46664571Y24963381D01*
X46569333Y25011000D01*
X46521714Y25106239D01*
X46521714Y25249096D01*
X46569333Y25344334D01*
X47188380Y26344334D02*
X47188380Y25772905D01*
X47188380Y26058620D02*
X46188380Y26058620D01*
X46331238Y25963381D01*
X46426476Y25868143D01*
X46474095Y25772905D01*
G04 #@! TO.C,JP1*
X37393666Y56745120D02*
X37393666Y56030834D01*
X37346047Y55887977D01*
X37250809Y55792739D01*
X37107952Y55745120D01*
X37012714Y55745120D01*
X37869857Y55745120D02*
X37869857Y56745120D01*
X38250809Y56745120D01*
X38346047Y56697500D01*
X38393666Y56649881D01*
X38441285Y56554643D01*
X38441285Y56411786D01*
X38393666Y56316548D01*
X38346047Y56268929D01*
X38250809Y56221310D01*
X37869857Y56221310D01*
X39393666Y55745120D02*
X38822238Y55745120D01*
X39107952Y55745120D02*
X39107952Y56745120D01*
X39012714Y56602262D01*
X38917476Y56507024D01*
X38822238Y56459405D01*
G04 #@! TO.C,JP2*
X37330166Y52681120D02*
X37330166Y51966834D01*
X37282547Y51823977D01*
X37187309Y51728739D01*
X37044452Y51681120D01*
X36949214Y51681120D01*
X37806357Y51681120D02*
X37806357Y52681120D01*
X38187309Y52681120D01*
X38282547Y52633500D01*
X38330166Y52585881D01*
X38377785Y52490643D01*
X38377785Y52347786D01*
X38330166Y52252548D01*
X38282547Y52204929D01*
X38187309Y52157310D01*
X37806357Y52157310D01*
X38758738Y52585881D02*
X38806357Y52633500D01*
X38901595Y52681120D01*
X39139690Y52681120D01*
X39234928Y52633500D01*
X39282547Y52585881D01*
X39330166Y52490643D01*
X39330166Y52395405D01*
X39282547Y52252548D01*
X38711119Y51681120D01*
X39330166Y51681120D01*
G04 #@! TO.C,MOT1*
X47188380Y51244715D02*
X46188380Y51244715D01*
X46902666Y51578048D01*
X46188380Y51911381D01*
X47188380Y51911381D01*
X46188380Y52578048D02*
X46188380Y52768524D01*
X46236000Y52863762D01*
X46331238Y52959000D01*
X46521714Y53006620D01*
X46855047Y53006620D01*
X47045523Y52959000D01*
X47140761Y52863762D01*
X47188380Y52768524D01*
X47188380Y52578048D01*
X47140761Y52482810D01*
X47045523Y52387572D01*
X46855047Y52339953D01*
X46521714Y52339953D01*
X46331238Y52387572D01*
X46236000Y52482810D01*
X46188380Y52578048D01*
X46188380Y53292334D02*
X46188380Y53863762D01*
X47188380Y53578048D02*
X46188380Y53578048D01*
X47188380Y54720905D02*
X47188380Y54149477D01*
X47188380Y54435191D02*
X46188380Y54435191D01*
X46331238Y54339953D01*
X46426476Y54244715D01*
X46474095Y54149477D01*
G04 #@! TO.C,MOT2*
X41600380Y51244715D02*
X40600380Y51244715D01*
X41314666Y51578048D01*
X40600380Y51911381D01*
X41600380Y51911381D01*
X40600380Y52578048D02*
X40600380Y52768524D01*
X40648000Y52863762D01*
X40743238Y52959000D01*
X40933714Y53006620D01*
X41267047Y53006620D01*
X41457523Y52959000D01*
X41552761Y52863762D01*
X41600380Y52768524D01*
X41600380Y52578048D01*
X41552761Y52482810D01*
X41457523Y52387572D01*
X41267047Y52339953D01*
X40933714Y52339953D01*
X40743238Y52387572D01*
X40648000Y52482810D01*
X40600380Y52578048D01*
X40600380Y53292334D02*
X40600380Y53863762D01*
X41600380Y53578048D02*
X40600380Y53578048D01*
X40695619Y54149477D02*
X40648000Y54197096D01*
X40600380Y54292334D01*
X40600380Y54530429D01*
X40648000Y54625667D01*
X40695619Y54673286D01*
X40790857Y54720905D01*
X40886095Y54720905D01*
X41028952Y54673286D01*
X41600380Y54101858D01*
X41600380Y54720905D01*
G04 #@! TO.C,R1*
X10120333Y45445420D02*
X9787000Y45921610D01*
X9548904Y45445420D02*
X9548904Y46445420D01*
X9929857Y46445420D01*
X10025095Y46397800D01*
X10072714Y46350181D01*
X10120333Y46254943D01*
X10120333Y46112086D01*
X10072714Y46016848D01*
X10025095Y45969229D01*
X9929857Y45921610D01*
X9548904Y45921610D01*
X11072714Y45445420D02*
X10501285Y45445420D01*
X10787000Y45445420D02*
X10787000Y46445420D01*
X10691761Y46302562D01*
X10596523Y46207324D01*
X10501285Y46159705D01*
G04 #@! TO.C,R2*
X13879533Y45420020D02*
X13546200Y45896210D01*
X13308104Y45420020D02*
X13308104Y46420020D01*
X13689057Y46420020D01*
X13784295Y46372400D01*
X13831914Y46324781D01*
X13879533Y46229543D01*
X13879533Y46086686D01*
X13831914Y45991448D01*
X13784295Y45943829D01*
X13689057Y45896210D01*
X13308104Y45896210D01*
X14260485Y46324781D02*
X14308104Y46372400D01*
X14403342Y46420020D01*
X14641438Y46420020D01*
X14736676Y46372400D01*
X14784295Y46324781D01*
X14831914Y46229543D01*
X14831914Y46134305D01*
X14784295Y45991448D01*
X14212866Y45420020D01*
X14831914Y45420020D01*
G04 #@! TO.C,SERVO1*
X47140761Y41656334D02*
X47188380Y41799191D01*
X47188380Y42037286D01*
X47140761Y42132524D01*
X47093142Y42180143D01*
X46997904Y42227762D01*
X46902666Y42227762D01*
X46807428Y42180143D01*
X46759809Y42132524D01*
X46712190Y42037286D01*
X46664571Y41846810D01*
X46616952Y41751572D01*
X46569333Y41703953D01*
X46474095Y41656334D01*
X46378857Y41656334D01*
X46283619Y41703953D01*
X46236000Y41751572D01*
X46188380Y41846810D01*
X46188380Y42084905D01*
X46236000Y42227762D01*
X46664571Y42656334D02*
X46664571Y42989667D01*
X47188380Y43132524D02*
X47188380Y42656334D01*
X46188380Y42656334D01*
X46188380Y43132524D01*
X47188380Y44132524D02*
X46712190Y43799191D01*
X47188380Y43561096D02*
X46188380Y43561096D01*
X46188380Y43942048D01*
X46236000Y44037286D01*
X46283619Y44084905D01*
X46378857Y44132524D01*
X46521714Y44132524D01*
X46616952Y44084905D01*
X46664571Y44037286D01*
X46712190Y43942048D01*
X46712190Y43561096D01*
X46188380Y44418239D02*
X47188380Y44751572D01*
X46188380Y45084905D01*
X46188380Y45608715D02*
X46188380Y45799191D01*
X46236000Y45894429D01*
X46331238Y45989667D01*
X46521714Y46037286D01*
X46855047Y46037286D01*
X47045523Y45989667D01*
X47140761Y45894429D01*
X47188380Y45799191D01*
X47188380Y45608715D01*
X47140761Y45513477D01*
X47045523Y45418239D01*
X46855047Y45370620D01*
X46521714Y45370620D01*
X46331238Y45418239D01*
X46236000Y45513477D01*
X46188380Y45608715D01*
X47188380Y46989667D02*
X47188380Y46418239D01*
X47188380Y46703953D02*
X46188380Y46703953D01*
X46331238Y46608715D01*
X46426476Y46513477D01*
X46474095Y46418239D01*
G04 #@! TO.C,SERVO2*
X41552761Y41656334D02*
X41600380Y41799191D01*
X41600380Y42037286D01*
X41552761Y42132524D01*
X41505142Y42180143D01*
X41409904Y42227762D01*
X41314666Y42227762D01*
X41219428Y42180143D01*
X41171809Y42132524D01*
X41124190Y42037286D01*
X41076571Y41846810D01*
X41028952Y41751572D01*
X40981333Y41703953D01*
X40886095Y41656334D01*
X40790857Y41656334D01*
X40695619Y41703953D01*
X40648000Y41751572D01*
X40600380Y41846810D01*
X40600380Y42084905D01*
X40648000Y42227762D01*
X41076571Y42656334D02*
X41076571Y42989667D01*
X41600380Y43132524D02*
X41600380Y42656334D01*
X40600380Y42656334D01*
X40600380Y43132524D01*
X41600380Y44132524D02*
X41124190Y43799191D01*
X41600380Y43561096D02*
X40600380Y43561096D01*
X40600380Y43942048D01*
X40648000Y44037286D01*
X40695619Y44084905D01*
X40790857Y44132524D01*
X40933714Y44132524D01*
X41028952Y44084905D01*
X41076571Y44037286D01*
X41124190Y43942048D01*
X41124190Y43561096D01*
X40600380Y44418239D02*
X41600380Y44751572D01*
X40600380Y45084905D01*
X40600380Y45608715D02*
X40600380Y45799191D01*
X40648000Y45894429D01*
X40743238Y45989667D01*
X40933714Y46037286D01*
X41267047Y46037286D01*
X41457523Y45989667D01*
X41552761Y45894429D01*
X41600380Y45799191D01*
X41600380Y45608715D01*
X41552761Y45513477D01*
X41457523Y45418239D01*
X41267047Y45370620D01*
X40933714Y45370620D01*
X40743238Y45418239D01*
X40648000Y45513477D01*
X40600380Y45608715D01*
X40695619Y46418239D02*
X40648000Y46465858D01*
X40600380Y46561096D01*
X40600380Y46799191D01*
X40648000Y46894429D01*
X40695619Y46942048D01*
X40790857Y46989667D01*
X40886095Y46989667D01*
X41028952Y46942048D01*
X41600380Y46370620D01*
X41600380Y46989667D01*
G04 #@! TO.C,*
G04 #@! TD*
%LPC*%
D17*
G04 #@! TO.C,A1*
X34036000Y20447000D03*
D18*
X18796000Y53467000D03*
X34036000Y22987000D03*
X18796000Y50927000D03*
X34036000Y25527000D03*
X18796000Y48387000D03*
X34036000Y28067000D03*
X18796000Y45847000D03*
X34036000Y30607000D03*
X18796000Y43307000D03*
X34036000Y33147000D03*
X18796000Y40767000D03*
X34036000Y35687000D03*
X18796000Y38227000D03*
X34036000Y38227000D03*
X18796000Y35687000D03*
X34036000Y40767000D03*
X18796000Y33147000D03*
X34036000Y43307000D03*
X18796000Y30607000D03*
X34036000Y45847000D03*
X18796000Y28067000D03*
X34036000Y48387000D03*
X18796000Y25527000D03*
X34036000Y50927000D03*
X18796000Y22987000D03*
X34036000Y53467000D03*
X18796000Y20447000D03*
X34036000Y56007000D03*
X18796000Y56007000D03*
G04 #@! TD*
D19*
G04 #@! TO.C,C2*
X12700000Y7573000D03*
D20*
X12700000Y12573000D03*
G04 #@! TD*
G04 #@! TO.C,C3*
X26416000Y12573000D03*
D19*
X26416000Y7573000D03*
G04 #@! TD*
D20*
G04 #@! TO.C,C1*
X40132000Y12573000D03*
D19*
X40132000Y7573000D03*
G04 #@! TD*
D21*
G04 #@! TO.C,*
X48260000Y4699000D03*
D22*
X50660000Y4699000D03*
X49957056Y3001944D03*
X48260000Y2299000D03*
X46562944Y3001944D03*
X45860000Y4699000D03*
X46562944Y6396056D03*
X48260000Y7099000D03*
X49957056Y6396056D03*
G04 #@! TD*
G04 #@! TO.C,*
X6269056Y6396056D03*
X4572000Y7099000D03*
X2874944Y6396056D03*
X2172000Y4699000D03*
X2874944Y3001944D03*
X4572000Y2299000D03*
X6269056Y3001944D03*
X6972000Y4699000D03*
D21*
X4572000Y4699000D03*
G04 #@! TD*
G04 #@! TO.C,*
X4572000Y62103000D03*
D22*
X6972000Y62103000D03*
X6269056Y60405944D03*
X4572000Y59703000D03*
X2874944Y60405944D03*
X2172000Y62103000D03*
X2874944Y63800056D03*
X4572000Y64503000D03*
X6269056Y63800056D03*
G04 #@! TD*
D23*
G04 #@! TO.C,VESC2*
X4572000Y44069000D03*
D24*
G36*
X5423512Y41806266D02*
X5498793Y41795099D01*
X5572616Y41776607D01*
X5644271Y41750969D01*
X5713068Y41718430D01*
X5778345Y41679305D01*
X5839472Y41633970D01*
X5895861Y41582861D01*
X5946970Y41526472D01*
X5992305Y41465345D01*
X6031430Y41400068D01*
X6063969Y41331271D01*
X6089607Y41259616D01*
X6108099Y41185793D01*
X6119266Y41110512D01*
X6123000Y41034500D01*
X6123000Y39483500D01*
X6119266Y39407488D01*
X6108099Y39332207D01*
X6089607Y39258384D01*
X6063969Y39186729D01*
X6031430Y39117932D01*
X5992305Y39052655D01*
X5946970Y38991528D01*
X5895861Y38935139D01*
X5839472Y38884030D01*
X5778345Y38838695D01*
X5713068Y38799570D01*
X5644271Y38767031D01*
X5572616Y38741393D01*
X5498793Y38722901D01*
X5423512Y38711734D01*
X5347500Y38708000D01*
X3796500Y38708000D01*
X3720488Y38711734D01*
X3645207Y38722901D01*
X3571384Y38741393D01*
X3499729Y38767031D01*
X3430932Y38799570D01*
X3365655Y38838695D01*
X3304528Y38884030D01*
X3248139Y38935139D01*
X3197030Y38991528D01*
X3151695Y39052655D01*
X3112570Y39117932D01*
X3080031Y39186729D01*
X3054393Y39258384D01*
X3035901Y39332207D01*
X3024734Y39407488D01*
X3021000Y39483500D01*
X3021000Y41034500D01*
X3024734Y41110512D01*
X3035901Y41185793D01*
X3054393Y41259616D01*
X3080031Y41331271D01*
X3112570Y41400068D01*
X3151695Y41465345D01*
X3197030Y41526472D01*
X3248139Y41582861D01*
X3304528Y41633970D01*
X3365655Y41679305D01*
X3430932Y41718430D01*
X3499729Y41750969D01*
X3571384Y41776607D01*
X3645207Y41795099D01*
X3720488Y41806266D01*
X3796500Y41810000D01*
X5347500Y41810000D01*
X5423512Y41806266D01*
X5423512Y41806266D01*
G37*
D25*
X4572000Y40259000D03*
G04 #@! TD*
D24*
G04 #@! TO.C,VESC1*
G36*
X5423512Y51204266D02*
X5498793Y51193099D01*
X5572616Y51174607D01*
X5644271Y51148969D01*
X5713068Y51116430D01*
X5778345Y51077305D01*
X5839472Y51031970D01*
X5895861Y50980861D01*
X5946970Y50924472D01*
X5992305Y50863345D01*
X6031430Y50798068D01*
X6063969Y50729271D01*
X6089607Y50657616D01*
X6108099Y50583793D01*
X6119266Y50508512D01*
X6123000Y50432500D01*
X6123000Y48881500D01*
X6119266Y48805488D01*
X6108099Y48730207D01*
X6089607Y48656384D01*
X6063969Y48584729D01*
X6031430Y48515932D01*
X5992305Y48450655D01*
X5946970Y48389528D01*
X5895861Y48333139D01*
X5839472Y48282030D01*
X5778345Y48236695D01*
X5713068Y48197570D01*
X5644271Y48165031D01*
X5572616Y48139393D01*
X5498793Y48120901D01*
X5423512Y48109734D01*
X5347500Y48106000D01*
X3796500Y48106000D01*
X3720488Y48109734D01*
X3645207Y48120901D01*
X3571384Y48139393D01*
X3499729Y48165031D01*
X3430932Y48197570D01*
X3365655Y48236695D01*
X3304528Y48282030D01*
X3248139Y48333139D01*
X3197030Y48389528D01*
X3151695Y48450655D01*
X3112570Y48515932D01*
X3080031Y48584729D01*
X3054393Y48656384D01*
X3035901Y48730207D01*
X3024734Y48805488D01*
X3021000Y48881500D01*
X3021000Y50432500D01*
X3024734Y50508512D01*
X3035901Y50583793D01*
X3054393Y50657616D01*
X3080031Y50729271D01*
X3112570Y50798068D01*
X3151695Y50863345D01*
X3197030Y50924472D01*
X3248139Y50980861D01*
X3304528Y51031970D01*
X3365655Y51077305D01*
X3430932Y51116430D01*
X3499729Y51148969D01*
X3571384Y51174607D01*
X3645207Y51193099D01*
X3720488Y51204266D01*
X3796500Y51208000D01*
X5347500Y51208000D01*
X5423512Y51204266D01*
X5423512Y51204266D01*
G37*
D25*
X4572000Y49657000D03*
D23*
X4572000Y53467000D03*
G04 #@! TD*
D24*
G04 #@! TO.C,PANEL*
G36*
X18583013Y64150050D02*
X18662652Y64138236D01*
X18740750Y64118674D01*
X18816553Y64091551D01*
X18889334Y64057128D01*
X18958390Y64015738D01*
X19023056Y63967778D01*
X19082710Y63913710D01*
X19136778Y63854056D01*
X19184738Y63789390D01*
X19226128Y63720334D01*
X19260551Y63647553D01*
X19287674Y63571750D01*
X19307236Y63493652D01*
X19319050Y63414013D01*
X19323000Y63333600D01*
X19323000Y60872400D01*
X19319050Y60791987D01*
X19307236Y60712348D01*
X19287674Y60634250D01*
X19260551Y60558447D01*
X19226128Y60485666D01*
X19184738Y60416610D01*
X19136778Y60351944D01*
X19082710Y60292290D01*
X19023056Y60238222D01*
X18958390Y60190262D01*
X18889334Y60148872D01*
X18816553Y60114449D01*
X18740750Y60087326D01*
X18662652Y60067764D01*
X18583013Y60055950D01*
X18502600Y60052000D01*
X16041400Y60052000D01*
X15960987Y60055950D01*
X15881348Y60067764D01*
X15803250Y60087326D01*
X15727447Y60114449D01*
X15654666Y60148872D01*
X15585610Y60190262D01*
X15520944Y60238222D01*
X15461290Y60292290D01*
X15407222Y60351944D01*
X15359262Y60416610D01*
X15317872Y60485666D01*
X15283449Y60558447D01*
X15256326Y60634250D01*
X15236764Y60712348D01*
X15224950Y60791987D01*
X15221000Y60872400D01*
X15221000Y63333600D01*
X15224950Y63414013D01*
X15236764Y63493652D01*
X15256326Y63571750D01*
X15283449Y63647553D01*
X15317872Y63720334D01*
X15359262Y63789390D01*
X15407222Y63854056D01*
X15461290Y63913710D01*
X15520944Y63967778D01*
X15585610Y64015738D01*
X15654666Y64057128D01*
X15727447Y64091551D01*
X15803250Y64118674D01*
X15881348Y64138236D01*
X15960987Y64150050D01*
X16041400Y64154000D01*
X18502600Y64154000D01*
X18583013Y64150050D01*
X18583013Y64150050D01*
G37*
D26*
X17272000Y62103000D03*
D24*
G36*
X12763027Y64146099D02*
X12922304Y64122472D01*
X13078499Y64083348D01*
X13230107Y64029102D01*
X13375668Y63960256D01*
X13513780Y63877475D01*
X13643113Y63781556D01*
X13762421Y63673421D01*
X13870556Y63554113D01*
X13966475Y63424780D01*
X14049256Y63286668D01*
X14118102Y63141107D01*
X14172348Y62989499D01*
X14211472Y62833304D01*
X14235099Y62674027D01*
X14243000Y62513200D01*
X14243000Y61692800D01*
X14235099Y61531973D01*
X14211472Y61372696D01*
X14172348Y61216501D01*
X14118102Y61064893D01*
X14049256Y60919332D01*
X13966475Y60781220D01*
X13870556Y60651887D01*
X13762421Y60532579D01*
X13643113Y60424444D01*
X13513780Y60328525D01*
X13375668Y60245744D01*
X13230107Y60176898D01*
X13078499Y60122652D01*
X12922304Y60083528D01*
X12763027Y60059901D01*
X12602200Y60052000D01*
X11781800Y60052000D01*
X11620973Y60059901D01*
X11461696Y60083528D01*
X11305501Y60122652D01*
X11153893Y60176898D01*
X11008332Y60245744D01*
X10870220Y60328525D01*
X10740887Y60424444D01*
X10621579Y60532579D01*
X10513444Y60651887D01*
X10417525Y60781220D01*
X10334744Y60919332D01*
X10265898Y61064893D01*
X10211652Y61216501D01*
X10172528Y61372696D01*
X10148901Y61531973D01*
X10141000Y61692800D01*
X10141000Y62513200D01*
X10148901Y62674027D01*
X10172528Y62833304D01*
X10211652Y62989499D01*
X10265898Y63141107D01*
X10334744Y63286668D01*
X10417525Y63424780D01*
X10513444Y63554113D01*
X10621579Y63673421D01*
X10740887Y63781556D01*
X10870220Y63877475D01*
X11008332Y63960256D01*
X11153893Y64029102D01*
X11305501Y64083348D01*
X11461696Y64122472D01*
X11620973Y64146099D01*
X11781800Y64154000D01*
X12602200Y64154000D01*
X12763027Y64146099D01*
X12763027Y64146099D01*
G37*
D26*
X12192000Y62103000D03*
G04 #@! TD*
D27*
G04 #@! TO.C,Amper\00EDmetro1*
X9365000Y55308500D03*
X9365000Y54038500D03*
X9365000Y52768500D03*
X9365000Y51498500D03*
X14765000Y51498500D03*
X14765000Y52768500D03*
X14765000Y54038500D03*
X14765000Y55308500D03*
G04 #@! TD*
D28*
G04 #@! TO.C,Batt_Aux1*
X49276000Y18415000D03*
X49276000Y15875000D03*
D29*
X49276000Y13335000D03*
G04 #@! TD*
D24*
G04 #@! TO.C,C4*
G36*
X13325505Y58090189D02*
X13351925Y58086270D01*
X13377835Y58079780D01*
X13402983Y58070782D01*
X13427128Y58059362D01*
X13450038Y58045631D01*
X13471492Y58029720D01*
X13491282Y58011782D01*
X13509220Y57991992D01*
X13525131Y57970538D01*
X13538862Y57947628D01*
X13550282Y57923483D01*
X13559280Y57898335D01*
X13565770Y57872425D01*
X13569689Y57846005D01*
X13571000Y57819327D01*
X13571000Y56861673D01*
X13569689Y56834995D01*
X13565770Y56808575D01*
X13559280Y56782665D01*
X13550282Y56757517D01*
X13538862Y56733372D01*
X13525131Y56710462D01*
X13509220Y56689008D01*
X13491282Y56669218D01*
X13471492Y56651280D01*
X13450038Y56635369D01*
X13427128Y56621638D01*
X13402983Y56610218D01*
X13377835Y56601220D01*
X13351925Y56594730D01*
X13325505Y56590811D01*
X13298827Y56589500D01*
X12591173Y56589500D01*
X12564495Y56590811D01*
X12538075Y56594730D01*
X12512165Y56601220D01*
X12487017Y56610218D01*
X12462872Y56621638D01*
X12439962Y56635369D01*
X12418508Y56651280D01*
X12398718Y56669218D01*
X12380780Y56689008D01*
X12364869Y56710462D01*
X12351138Y56733372D01*
X12339718Y56757517D01*
X12330720Y56782665D01*
X12324230Y56808575D01*
X12320311Y56834995D01*
X12319000Y56861673D01*
X12319000Y57819327D01*
X12320311Y57846005D01*
X12324230Y57872425D01*
X12330720Y57898335D01*
X12339718Y57923483D01*
X12351138Y57947628D01*
X12364869Y57970538D01*
X12380780Y57991992D01*
X12398718Y58011782D01*
X12418508Y58029720D01*
X12439962Y58045631D01*
X12462872Y58059362D01*
X12487017Y58070782D01*
X12512165Y58079780D01*
X12538075Y58086270D01*
X12564495Y58090189D01*
X12591173Y58091500D01*
X13298827Y58091500D01*
X13325505Y58090189D01*
X13325505Y58090189D01*
G37*
D30*
X12945000Y57340500D03*
D24*
G36*
X15375505Y58090189D02*
X15401925Y58086270D01*
X15427835Y58079780D01*
X15452983Y58070782D01*
X15477128Y58059362D01*
X15500038Y58045631D01*
X15521492Y58029720D01*
X15541282Y58011782D01*
X15559220Y57991992D01*
X15575131Y57970538D01*
X15588862Y57947628D01*
X15600282Y57923483D01*
X15609280Y57898335D01*
X15615770Y57872425D01*
X15619689Y57846005D01*
X15621000Y57819327D01*
X15621000Y56861673D01*
X15619689Y56834995D01*
X15615770Y56808575D01*
X15609280Y56782665D01*
X15600282Y56757517D01*
X15588862Y56733372D01*
X15575131Y56710462D01*
X15559220Y56689008D01*
X15541282Y56669218D01*
X15521492Y56651280D01*
X15500038Y56635369D01*
X15477128Y56621638D01*
X15452983Y56610218D01*
X15427835Y56601220D01*
X15401925Y56594730D01*
X15375505Y56590811D01*
X15348827Y56589500D01*
X14641173Y56589500D01*
X14614495Y56590811D01*
X14588075Y56594730D01*
X14562165Y56601220D01*
X14537017Y56610218D01*
X14512872Y56621638D01*
X14489962Y56635369D01*
X14468508Y56651280D01*
X14448718Y56669218D01*
X14430780Y56689008D01*
X14414869Y56710462D01*
X14401138Y56733372D01*
X14389718Y56757517D01*
X14380720Y56782665D01*
X14374230Y56808575D01*
X14370311Y56834995D01*
X14369000Y56861673D01*
X14369000Y57819327D01*
X14370311Y57846005D01*
X14374230Y57872425D01*
X14380720Y57898335D01*
X14389718Y57923483D01*
X14401138Y57947628D01*
X14414869Y57970538D01*
X14430780Y57991992D01*
X14448718Y58011782D01*
X14468508Y58029720D01*
X14489962Y58045631D01*
X14512872Y58059362D01*
X14537017Y58070782D01*
X14562165Y58079780D01*
X14588075Y58086270D01*
X14614495Y58090189D01*
X14641173Y58091500D01*
X15348827Y58091500D01*
X15375505Y58090189D01*
X15375505Y58090189D01*
G37*
D30*
X14995000Y57340500D03*
G04 #@! TD*
D24*
G04 #@! TO.C,C5*
G36*
X15375505Y50343189D02*
X15401925Y50339270D01*
X15427835Y50332780D01*
X15452983Y50323782D01*
X15477128Y50312362D01*
X15500038Y50298631D01*
X15521492Y50282720D01*
X15541282Y50264782D01*
X15559220Y50244992D01*
X15575131Y50223538D01*
X15588862Y50200628D01*
X15600282Y50176483D01*
X15609280Y50151335D01*
X15615770Y50125425D01*
X15619689Y50099005D01*
X15621000Y50072327D01*
X15621000Y49114673D01*
X15619689Y49087995D01*
X15615770Y49061575D01*
X15609280Y49035665D01*
X15600282Y49010517D01*
X15588862Y48986372D01*
X15575131Y48963462D01*
X15559220Y48942008D01*
X15541282Y48922218D01*
X15521492Y48904280D01*
X15500038Y48888369D01*
X15477128Y48874638D01*
X15452983Y48863218D01*
X15427835Y48854220D01*
X15401925Y48847730D01*
X15375505Y48843811D01*
X15348827Y48842500D01*
X14641173Y48842500D01*
X14614495Y48843811D01*
X14588075Y48847730D01*
X14562165Y48854220D01*
X14537017Y48863218D01*
X14512872Y48874638D01*
X14489962Y48888369D01*
X14468508Y48904280D01*
X14448718Y48922218D01*
X14430780Y48942008D01*
X14414869Y48963462D01*
X14401138Y48986372D01*
X14389718Y49010517D01*
X14380720Y49035665D01*
X14374230Y49061575D01*
X14370311Y49087995D01*
X14369000Y49114673D01*
X14369000Y50072327D01*
X14370311Y50099005D01*
X14374230Y50125425D01*
X14380720Y50151335D01*
X14389718Y50176483D01*
X14401138Y50200628D01*
X14414869Y50223538D01*
X14430780Y50244992D01*
X14448718Y50264782D01*
X14468508Y50282720D01*
X14489962Y50298631D01*
X14512872Y50312362D01*
X14537017Y50323782D01*
X14562165Y50332780D01*
X14588075Y50339270D01*
X14614495Y50343189D01*
X14641173Y50344500D01*
X15348827Y50344500D01*
X15375505Y50343189D01*
X15375505Y50343189D01*
G37*
D30*
X14995000Y49593500D03*
D24*
G36*
X13325505Y50343189D02*
X13351925Y50339270D01*
X13377835Y50332780D01*
X13402983Y50323782D01*
X13427128Y50312362D01*
X13450038Y50298631D01*
X13471492Y50282720D01*
X13491282Y50264782D01*
X13509220Y50244992D01*
X13525131Y50223538D01*
X13538862Y50200628D01*
X13550282Y50176483D01*
X13559280Y50151335D01*
X13565770Y50125425D01*
X13569689Y50099005D01*
X13571000Y50072327D01*
X13571000Y49114673D01*
X13569689Y49087995D01*
X13565770Y49061575D01*
X13559280Y49035665D01*
X13550282Y49010517D01*
X13538862Y48986372D01*
X13525131Y48963462D01*
X13509220Y48942008D01*
X13491282Y48922218D01*
X13471492Y48904280D01*
X13450038Y48888369D01*
X13427128Y48874638D01*
X13402983Y48863218D01*
X13377835Y48854220D01*
X13351925Y48847730D01*
X13325505Y48843811D01*
X13298827Y48842500D01*
X12591173Y48842500D01*
X12564495Y48843811D01*
X12538075Y48847730D01*
X12512165Y48854220D01*
X12487017Y48863218D01*
X12462872Y48874638D01*
X12439962Y48888369D01*
X12418508Y48904280D01*
X12398718Y48922218D01*
X12380780Y48942008D01*
X12364869Y48963462D01*
X12351138Y48986372D01*
X12339718Y49010517D01*
X12330720Y49035665D01*
X12324230Y49061575D01*
X12320311Y49087995D01*
X12319000Y49114673D01*
X12319000Y50072327D01*
X12320311Y50099005D01*
X12324230Y50125425D01*
X12330720Y50151335D01*
X12339718Y50176483D01*
X12351138Y50200628D01*
X12364869Y50223538D01*
X12380780Y50244992D01*
X12398718Y50264782D01*
X12418508Y50282720D01*
X12439962Y50298631D01*
X12462872Y50312362D01*
X12487017Y50323782D01*
X12512165Y50332780D01*
X12538075Y50339270D01*
X12564495Y50343189D01*
X12591173Y50344500D01*
X13298827Y50344500D01*
X13325505Y50343189D01*
X13325505Y50343189D01*
G37*
D30*
X12945000Y49593500D03*
G04 #@! TD*
D29*
G04 #@! TO.C,ENCODERS1*
X49276000Y30607000D03*
D28*
X49276000Y33147000D03*
X49276000Y35687000D03*
X49276000Y38227000D03*
G04 #@! TD*
D29*
G04 #@! TO.C,Ibus1*
X49276000Y27051000D03*
D28*
X49276000Y24511000D03*
X49276000Y21971000D03*
G04 #@! TD*
D29*
G04 #@! TO.C,J1*
X37592000Y35687000D03*
D28*
X37592000Y38227000D03*
X37592000Y40767000D03*
X37592000Y43307000D03*
X37592000Y45847000D03*
G04 #@! TD*
D29*
G04 #@! TO.C,J2*
X15240000Y43307000D03*
D28*
X15240000Y40767000D03*
X15240000Y38227000D03*
X15240000Y35687000D03*
X15240000Y33147000D03*
X15240000Y30607000D03*
G04 #@! TD*
D31*
G04 #@! TO.C,JP1*
X38825000Y54483000D03*
D24*
G36*
X38315050Y53682980D02*
X38305483Y53685882D01*
X38296666Y53690595D01*
X38288938Y53696938D01*
X38282565Y53704710D01*
X37782565Y54454710D01*
X37777862Y54463532D01*
X37774970Y54473103D01*
X37774000Y54483053D01*
X37774990Y54493002D01*
X37777903Y54502566D01*
X37782565Y54511290D01*
X38282565Y55261290D01*
X38288900Y55269025D01*
X38296622Y55275375D01*
X38305434Y55280097D01*
X38314998Y55283010D01*
X38325000Y55284000D01*
X39325000Y55284000D01*
X39334950Y55283020D01*
X39344517Y55280118D01*
X39353334Y55275405D01*
X39361062Y55269062D01*
X39367405Y55261334D01*
X39372118Y55252517D01*
X39375020Y55242950D01*
X39376000Y55233000D01*
X39376000Y53733000D01*
X39375020Y53723050D01*
X39372118Y53713483D01*
X39367405Y53704666D01*
X39361062Y53696938D01*
X39353334Y53690595D01*
X39344517Y53685882D01*
X39334950Y53682980D01*
X39325000Y53682000D01*
X38325000Y53682000D01*
X38315050Y53682980D01*
X38315050Y53682980D01*
G37*
D31*
X37375000Y54483000D03*
D24*
G36*
X36865050Y53682980D02*
X36855483Y53685882D01*
X36846666Y53690595D01*
X36838938Y53696938D01*
X36832595Y53704666D01*
X36827882Y53713483D01*
X36824980Y53723050D01*
X36824000Y53733000D01*
X36824000Y55233000D01*
X36824980Y55242950D01*
X36827882Y55252517D01*
X36832595Y55261334D01*
X36838938Y55269062D01*
X36846666Y55275405D01*
X36855483Y55280118D01*
X36865050Y55283020D01*
X36875000Y55284000D01*
X38025000Y55284000D01*
X38034950Y55283020D01*
X38044517Y55280118D01*
X38053334Y55275405D01*
X38061062Y55269062D01*
X38067405Y55261334D01*
X38072118Y55252517D01*
X38075020Y55242950D01*
X38076000Y55233000D01*
X38075020Y55223050D01*
X38072118Y55213483D01*
X38067435Y55204710D01*
X37586295Y54483000D01*
X38067435Y53761290D01*
X38072138Y53752468D01*
X38075030Y53742897D01*
X38076000Y53732947D01*
X38075010Y53722998D01*
X38072097Y53713434D01*
X38067375Y53704622D01*
X38061025Y53696900D01*
X38053290Y53690565D01*
X38044468Y53685862D01*
X38034897Y53682970D01*
X38025000Y53682000D01*
X36875000Y53682000D01*
X36865050Y53682980D01*
X36865050Y53682980D01*
G37*
G04 #@! TD*
D31*
G04 #@! TO.C,JP2*
X37375000Y50419000D03*
D24*
G36*
X36865050Y49618980D02*
X36855483Y49621882D01*
X36846666Y49626595D01*
X36838938Y49632938D01*
X36832595Y49640666D01*
X36827882Y49649483D01*
X36824980Y49659050D01*
X36824000Y49669000D01*
X36824000Y51169000D01*
X36824980Y51178950D01*
X36827882Y51188517D01*
X36832595Y51197334D01*
X36838938Y51205062D01*
X36846666Y51211405D01*
X36855483Y51216118D01*
X36865050Y51219020D01*
X36875000Y51220000D01*
X38025000Y51220000D01*
X38034950Y51219020D01*
X38044517Y51216118D01*
X38053334Y51211405D01*
X38061062Y51205062D01*
X38067405Y51197334D01*
X38072118Y51188517D01*
X38075020Y51178950D01*
X38076000Y51169000D01*
X38075020Y51159050D01*
X38072118Y51149483D01*
X38067435Y51140710D01*
X37586295Y50419000D01*
X38067435Y49697290D01*
X38072138Y49688468D01*
X38075030Y49678897D01*
X38076000Y49668947D01*
X38075010Y49658998D01*
X38072097Y49649434D01*
X38067375Y49640622D01*
X38061025Y49632900D01*
X38053290Y49626565D01*
X38044468Y49621862D01*
X38034897Y49618970D01*
X38025000Y49618000D01*
X36875000Y49618000D01*
X36865050Y49618980D01*
X36865050Y49618980D01*
G37*
D31*
X38825000Y50419000D03*
D24*
G36*
X38315050Y49618980D02*
X38305483Y49621882D01*
X38296666Y49626595D01*
X38288938Y49632938D01*
X38282565Y49640710D01*
X37782565Y50390710D01*
X37777862Y50399532D01*
X37774970Y50409103D01*
X37774000Y50419053D01*
X37774990Y50429002D01*
X37777903Y50438566D01*
X37782565Y50447290D01*
X38282565Y51197290D01*
X38288900Y51205025D01*
X38296622Y51211375D01*
X38305434Y51216097D01*
X38314998Y51219010D01*
X38325000Y51220000D01*
X39325000Y51220000D01*
X39334950Y51219020D01*
X39344517Y51216118D01*
X39353334Y51211405D01*
X39361062Y51205062D01*
X39367405Y51197334D01*
X39372118Y51188517D01*
X39375020Y51178950D01*
X39376000Y51169000D01*
X39376000Y49669000D01*
X39375020Y49659050D01*
X39372118Y49649483D01*
X39367405Y49640666D01*
X39361062Y49632938D01*
X39353334Y49626595D01*
X39344517Y49621882D01*
X39334950Y49618980D01*
X39325000Y49618000D01*
X38325000Y49618000D01*
X38315050Y49618980D01*
X38315050Y49618980D01*
G37*
G04 #@! TD*
D28*
G04 #@! TO.C,MOT1*
X49276000Y55499000D03*
X49276000Y52959000D03*
D29*
X49276000Y50419000D03*
G04 #@! TD*
G04 #@! TO.C,MOT2*
X43688000Y50419000D03*
D28*
X43688000Y52959000D03*
X43688000Y55499000D03*
G04 #@! TD*
D24*
G04 #@! TO.C,R1*
G36*
X11692505Y48311189D02*
X11718925Y48307270D01*
X11744835Y48300780D01*
X11769983Y48291782D01*
X11794128Y48280362D01*
X11817038Y48266631D01*
X11838492Y48250720D01*
X11858282Y48232782D01*
X11876220Y48212992D01*
X11892131Y48191538D01*
X11905862Y48168628D01*
X11917282Y48144483D01*
X11926280Y48119335D01*
X11932770Y48093425D01*
X11936689Y48067005D01*
X11938000Y48040327D01*
X11938000Y47082673D01*
X11936689Y47055995D01*
X11932770Y47029575D01*
X11926280Y47003665D01*
X11917282Y46978517D01*
X11905862Y46954372D01*
X11892131Y46931462D01*
X11876220Y46910008D01*
X11858282Y46890218D01*
X11838492Y46872280D01*
X11817038Y46856369D01*
X11794128Y46842638D01*
X11769983Y46831218D01*
X11744835Y46822220D01*
X11718925Y46815730D01*
X11692505Y46811811D01*
X11665827Y46810500D01*
X10958173Y46810500D01*
X10931495Y46811811D01*
X10905075Y46815730D01*
X10879165Y46822220D01*
X10854017Y46831218D01*
X10829872Y46842638D01*
X10806962Y46856369D01*
X10785508Y46872280D01*
X10765718Y46890218D01*
X10747780Y46910008D01*
X10731869Y46931462D01*
X10718138Y46954372D01*
X10706718Y46978517D01*
X10697720Y47003665D01*
X10691230Y47029575D01*
X10687311Y47055995D01*
X10686000Y47082673D01*
X10686000Y48040327D01*
X10687311Y48067005D01*
X10691230Y48093425D01*
X10697720Y48119335D01*
X10706718Y48144483D01*
X10718138Y48168628D01*
X10731869Y48191538D01*
X10747780Y48212992D01*
X10765718Y48232782D01*
X10785508Y48250720D01*
X10806962Y48266631D01*
X10829872Y48280362D01*
X10854017Y48291782D01*
X10879165Y48300780D01*
X10905075Y48307270D01*
X10931495Y48311189D01*
X10958173Y48312500D01*
X11665827Y48312500D01*
X11692505Y48311189D01*
X11692505Y48311189D01*
G37*
D30*
X11312000Y47561500D03*
D24*
G36*
X9642505Y48311189D02*
X9668925Y48307270D01*
X9694835Y48300780D01*
X9719983Y48291782D01*
X9744128Y48280362D01*
X9767038Y48266631D01*
X9788492Y48250720D01*
X9808282Y48232782D01*
X9826220Y48212992D01*
X9842131Y48191538D01*
X9855862Y48168628D01*
X9867282Y48144483D01*
X9876280Y48119335D01*
X9882770Y48093425D01*
X9886689Y48067005D01*
X9888000Y48040327D01*
X9888000Y47082673D01*
X9886689Y47055995D01*
X9882770Y47029575D01*
X9876280Y47003665D01*
X9867282Y46978517D01*
X9855862Y46954372D01*
X9842131Y46931462D01*
X9826220Y46910008D01*
X9808282Y46890218D01*
X9788492Y46872280D01*
X9767038Y46856369D01*
X9744128Y46842638D01*
X9719983Y46831218D01*
X9694835Y46822220D01*
X9668925Y46815730D01*
X9642505Y46811811D01*
X9615827Y46810500D01*
X8908173Y46810500D01*
X8881495Y46811811D01*
X8855075Y46815730D01*
X8829165Y46822220D01*
X8804017Y46831218D01*
X8779872Y46842638D01*
X8756962Y46856369D01*
X8735508Y46872280D01*
X8715718Y46890218D01*
X8697780Y46910008D01*
X8681869Y46931462D01*
X8668138Y46954372D01*
X8656718Y46978517D01*
X8647720Y47003665D01*
X8641230Y47029575D01*
X8637311Y47055995D01*
X8636000Y47082673D01*
X8636000Y48040327D01*
X8637311Y48067005D01*
X8641230Y48093425D01*
X8647720Y48119335D01*
X8656718Y48144483D01*
X8668138Y48168628D01*
X8681869Y48191538D01*
X8697780Y48212992D01*
X8715718Y48232782D01*
X8735508Y48250720D01*
X8756962Y48266631D01*
X8779872Y48280362D01*
X8804017Y48291782D01*
X8829165Y48300780D01*
X8855075Y48307270D01*
X8881495Y48311189D01*
X8908173Y48312500D01*
X9615827Y48312500D01*
X9642505Y48311189D01*
X9642505Y48311189D01*
G37*
D30*
X9262000Y47561500D03*
G04 #@! TD*
D24*
G04 #@! TO.C,R2*
G36*
X13389005Y48311189D02*
X13415425Y48307270D01*
X13441335Y48300780D01*
X13466483Y48291782D01*
X13490628Y48280362D01*
X13513538Y48266631D01*
X13534992Y48250720D01*
X13554782Y48232782D01*
X13572720Y48212992D01*
X13588631Y48191538D01*
X13602362Y48168628D01*
X13613782Y48144483D01*
X13622780Y48119335D01*
X13629270Y48093425D01*
X13633189Y48067005D01*
X13634500Y48040327D01*
X13634500Y47082673D01*
X13633189Y47055995D01*
X13629270Y47029575D01*
X13622780Y47003665D01*
X13613782Y46978517D01*
X13602362Y46954372D01*
X13588631Y46931462D01*
X13572720Y46910008D01*
X13554782Y46890218D01*
X13534992Y46872280D01*
X13513538Y46856369D01*
X13490628Y46842638D01*
X13466483Y46831218D01*
X13441335Y46822220D01*
X13415425Y46815730D01*
X13389005Y46811811D01*
X13362327Y46810500D01*
X12654673Y46810500D01*
X12627995Y46811811D01*
X12601575Y46815730D01*
X12575665Y46822220D01*
X12550517Y46831218D01*
X12526372Y46842638D01*
X12503462Y46856369D01*
X12482008Y46872280D01*
X12462218Y46890218D01*
X12444280Y46910008D01*
X12428369Y46931462D01*
X12414638Y46954372D01*
X12403218Y46978517D01*
X12394220Y47003665D01*
X12387730Y47029575D01*
X12383811Y47055995D01*
X12382500Y47082673D01*
X12382500Y48040327D01*
X12383811Y48067005D01*
X12387730Y48093425D01*
X12394220Y48119335D01*
X12403218Y48144483D01*
X12414638Y48168628D01*
X12428369Y48191538D01*
X12444280Y48212992D01*
X12462218Y48232782D01*
X12482008Y48250720D01*
X12503462Y48266631D01*
X12526372Y48280362D01*
X12550517Y48291782D01*
X12575665Y48300780D01*
X12601575Y48307270D01*
X12627995Y48311189D01*
X12654673Y48312500D01*
X13362327Y48312500D01*
X13389005Y48311189D01*
X13389005Y48311189D01*
G37*
D30*
X13008500Y47561500D03*
D24*
G36*
X15439005Y48311189D02*
X15465425Y48307270D01*
X15491335Y48300780D01*
X15516483Y48291782D01*
X15540628Y48280362D01*
X15563538Y48266631D01*
X15584992Y48250720D01*
X15604782Y48232782D01*
X15622720Y48212992D01*
X15638631Y48191538D01*
X15652362Y48168628D01*
X15663782Y48144483D01*
X15672780Y48119335D01*
X15679270Y48093425D01*
X15683189Y48067005D01*
X15684500Y48040327D01*
X15684500Y47082673D01*
X15683189Y47055995D01*
X15679270Y47029575D01*
X15672780Y47003665D01*
X15663782Y46978517D01*
X15652362Y46954372D01*
X15638631Y46931462D01*
X15622720Y46910008D01*
X15604782Y46890218D01*
X15584992Y46872280D01*
X15563538Y46856369D01*
X15540628Y46842638D01*
X15516483Y46831218D01*
X15491335Y46822220D01*
X15465425Y46815730D01*
X15439005Y46811811D01*
X15412327Y46810500D01*
X14704673Y46810500D01*
X14677995Y46811811D01*
X14651575Y46815730D01*
X14625665Y46822220D01*
X14600517Y46831218D01*
X14576372Y46842638D01*
X14553462Y46856369D01*
X14532008Y46872280D01*
X14512218Y46890218D01*
X14494280Y46910008D01*
X14478369Y46931462D01*
X14464638Y46954372D01*
X14453218Y46978517D01*
X14444220Y47003665D01*
X14437730Y47029575D01*
X14433811Y47055995D01*
X14432500Y47082673D01*
X14432500Y48040327D01*
X14433811Y48067005D01*
X14437730Y48093425D01*
X14444220Y48119335D01*
X14453218Y48144483D01*
X14464638Y48168628D01*
X14478369Y48191538D01*
X14494280Y48212992D01*
X14512218Y48232782D01*
X14532008Y48250720D01*
X14553462Y48266631D01*
X14576372Y48280362D01*
X14600517Y48291782D01*
X14625665Y48300780D01*
X14651575Y48307270D01*
X14677995Y48311189D01*
X14704673Y48312500D01*
X15412327Y48312500D01*
X15439005Y48311189D01*
X15439005Y48311189D01*
G37*
D30*
X15058500Y47561500D03*
G04 #@! TD*
D28*
G04 #@! TO.C,SERVO1*
X49276000Y46863000D03*
X49276000Y44323000D03*
D29*
X49276000Y41783000D03*
G04 #@! TD*
G04 #@! TO.C,SERVO2*
X43688000Y41783000D03*
D28*
X43688000Y44323000D03*
X43688000Y46863000D03*
G04 #@! TD*
D32*
G04 #@! TO.C,U1*
X2857500Y34290000D03*
X12001500Y34290000D03*
X2857500Y19050000D03*
X11997500Y19050000D03*
G04 #@! TD*
D22*
G04 #@! TO.C,*
X49957056Y63800056D03*
X48260000Y64503000D03*
X46562944Y63800056D03*
X45860000Y62103000D03*
X46562944Y60405944D03*
X48260000Y59703000D03*
X49957056Y60405944D03*
X50660000Y62103000D03*
D21*
X48260000Y62103000D03*
G04 #@! TD*
M02*
