M48
;DRILL file {KiCad (5.0.2)-1} date 27/06/2019 12:52:28
;FORMAT={-:-/ absolute / inch / decimal}
FMAT,2
INCH,TZ
T1C0.0157
T2C0.0197
T3C0.0300
T4C0.0315
T5C0.0394
T6C0.0472
T7C0.0689
T8C0.0984
T9C0.1260
%
G90
G05
T1
X0.1925Y0.5
X0.2625Y0.75
X0.655Y1.9375
X0.6575Y1.885
T2
X1.8055Y2.445
X1.8332Y2.5118
X1.8332Y2.3782
X1.9Y2.5395
X1.9Y2.3505
X1.9668Y2.5118
X1.9668Y2.3782
X1.9945Y2.445
X1.8055Y0.185
X1.8332Y0.2518
X1.8332Y0.1182
X1.9Y0.2795
X1.9Y0.0905
X1.9668Y0.2518
X1.9668Y0.1182
X1.9945Y0.185
X0.0855Y2.445
X0.1132Y2.5118
X0.1132Y2.3782
X0.18Y2.5395
X0.18Y2.3505
X0.2468Y2.5118
X0.2468Y2.3782
X0.2745Y2.445
X0.0855Y0.185
X0.1132Y0.2518
X0.1132Y0.1182
X0.18Y0.2795
X0.18Y0.0905
X0.2468Y0.2518
X0.2468Y0.1182
X0.2745Y0.185
T3
X0.1125Y1.35
X0.1125Y0.75
X0.4723Y0.75
X0.4725Y1.35
T4
X0.74Y2.205
X0.74Y2.105
X0.74Y2.005
X0.74Y1.905
X0.74Y1.805
X0.74Y1.705
X0.74Y1.605
X0.74Y1.505
X0.74Y1.405
X0.74Y1.305
X0.74Y1.205
X0.74Y1.105
X0.74Y1.005
X0.74Y0.905
X0.74Y0.805
X1.34Y2.205
X1.34Y2.105
X1.34Y2.005
X1.34Y1.905
X1.34Y1.805
X1.34Y1.705
X1.34Y1.605
X1.34Y1.505
X1.34Y1.405
X1.34Y1.305
X1.34Y1.205
X1.34Y1.105
X1.34Y1.005
X1.34Y0.905
X1.34Y0.805
T5
X1.48Y1.805
X1.48Y1.705
X1.48Y1.605
X1.48Y1.505
X1.48Y1.405
X1.72Y1.845
X1.72Y1.745
X1.72Y1.645
X1.72Y2.185
X1.72Y2.085
X1.72Y1.985
X1.94Y0.725
X1.94Y0.625
X1.94Y0.525
X1.94Y2.185
X1.94Y2.085
X1.94Y1.985
X1.94Y1.845
X1.94Y1.745
X1.94Y1.645
X1.94Y1.065
X1.94Y0.965
X1.94Y0.865
X0.6Y1.705
X0.6Y1.605
X0.6Y1.505
X0.6Y1.405
X0.6Y1.305
X0.6Y1.205
X1.94Y1.505
X1.94Y1.405
X1.94Y1.305
X1.94Y1.205
T6
X1.58Y0.495
X1.58Y0.2981
X0.5Y0.495
X0.5Y0.2981
X1.04Y0.495
X1.04Y0.2981
T7
X0.18Y1.735
X0.18Y1.585
X0.18Y2.105
X0.18Y1.955
T8
X0.48Y2.445
X0.68Y2.445
T9
X1.9Y0.185
X0.18Y2.445
X0.18Y0.185
X1.9Y2.445
T0
M30
